<svg id="Layer_1" enable-background="new 0 0 512.002 512.002" height="512" viewBox="0 0 512.002 512.002" width="512" xmlns="http://www.w3.org/2000/svg"><g><g><path d="m321.225 182.869c.852-1.494 1.981-3.361 3.29-5.524 10.114-16.72 27.044-44.705 19.676-66.131-2.105-6.122-7.218-14.412-19.619-19.141-32.713-12.474-40.64-23.499-43.114-33.09 5.91-6.269 9.543-14.707 9.543-23.982 0-19.299-15.701-35-35-35s-35 15.701-35 35c0 9.275 3.634 17.713 9.543 23.983-2.475 9.591-10.403 20.616-43.113 33.089-12.402 4.729-17.516 13.02-19.62 19.142-7.369 21.426 9.561 49.411 19.675 66.131 1.309 2.163 2.438 4.03 3.29 5.523 16.841 29.528 8.994 40.715-2.884 57.647-13.309 18.972-29.872 42.583-11.644 92.892 1.435 3.958 5.193 6.593 9.402 6.593h60.35v112.002h-30c-16.542 0-30 13.458-30 30v20c0 5.523 4.478 10 10 10h120c5.522 0 10-4.477 10-10v-20c0-16.542-13.458-30-30-30h-30v-112.003h60.351c4.209 0 7.968-2.636 9.402-6.593 18.228-50.309 1.665-73.919-11.644-92.892-11.877-16.932-19.725-28.119-2.884-57.646zm-15.224 299.133v10h-100v-10c0-5.514 4.486-10 10-10h80c5.513 0 10 4.486 10 10zm-50-462.002c8.271 0 15 6.729 15 15s-6.729 15-15 15-15-6.729-15-15 6.728-15 15-15zm63.175 300h-126.349c-2.333-7.487-3.687-14.083-4.279-20.001h42.099c5.522 0 10-4.477 10-10s-4.478-10-10-10h-40.935c2.681-11.054 8.532-19.412 14.554-27.998 12.659-18.045 27.007-38.499 3.884-79.042-.979-1.716-2.171-3.686-3.551-5.967-7.205-11.912-22.199-36.698-17.875-49.275.675-1.962 2.222-4.818 7.834-6.958 30.495-11.629 46.994-24.206 53.668-41.641 2.503.57 5.103.881 7.776.881s5.273-.311 7.776-.881c6.674 17.435 23.172 30.011 53.669 41.641 5.612 2.14 7.158 4.996 7.833 6.958 4.325 12.576-10.669 37.363-17.875 49.275-1.38 2.28-2.571 4.25-3.551 5.967-23.122 40.542-8.774 60.996 3.884 79.041 11.599 16.538 22.593 32.207 11.438 68z"/><path d="m275.643 279.999c-5.522 0-10 4.477-10 10s4.478 10 10 10h.007c5.522 0 9.997-4.477 9.997-10s-4.481-10-10.004-10z"/></g></g></svg>