<?xml version="1.0" encoding="utf-8"?>
<svg viewBox="0 0 500 500" xmlns="http://www.w3.org/2000/svg" xmlns:bx="https://boxy-svg.com">
  <defs>
    <linearGradient id="gradient-9" bx:pinned="true"/>
    <symbol id="symbol-0" viewBox="0 0 100 100" bx:pinned="true"/>
  </defs>
  <rect x="-5.154" width="500.866" height="500.865" style="fill: rgb(91, 132, 177);" transform="matrix(1, 0.00009, 0.000449, 1, 1.581347, 0.361626)"/>
  <path d="M 425.472 -7.423 C 415.31 -7.423 402.492 34.086 405.978 53.892 C 406.906 59.163 411.354 66.622 413.13 71.666 C 414.831 76.497 416.549 88.637 415.365 95.366 C 412.532 111.459 403.908 126.773 407.766 148.69 C 409.05 155.98 415.243 160.694 413.13 170.697 C 410.841 181.535 405.465 189.571 402.849 199.476 C 402.447 200.999 400.93 209.384 401.956 211.325 C 406.134 219.238 414.951 223.691 418.047 232.486 C 423.039 246.666 412.505 253.813 409.554 261.263 C 405.532 271.42 402.797 285.016 403.743 299.353 C 404.721 314.169 412.623 312.439 414.471 326.438 C 415.703 335.771 411.589 335.662 410.001 341.673 C 407.329 351.793 402.276 357.641 404.19 372.144 C 406.475 389.448 419.064 393.156 421.623 407.694 C 423.77 419.89 407.991 425.886 406.425 434.779 C 405.179 441.861 401.652 461.099 404.637 468.636 C 406.82 474.146 410.561 472.448 412.236 478.793 C 414.043 485.638 408.217 491.503 409.554 496.568 C 411.078 502.338 415.315 505.652 418.494 509.265 C 423.951 515.464 434.995 503.099 438.637 507.739 C 444.922 515.746 480.992 518.184 484.487 498.327 C 487.234 482.718 477.23 446.019 479.081 428.492 C 485.736 365.484 489.812 359.303 486.478 296.156 C 485.738 282.138 489.166 239.055 486.722 226.098 C 484.452 214.06 484.517 187.776 483.564 175.145 C 481.932 153.515 487.204 129.285 480.261 111.757 C 479.585 110.048 481.175 59.806 480.681 57.463 C 477.119 40.602 486.747 9.629 478.011 1.358 C 474.737 -1.743 542.174 -15.071 537.987 -12.428 C 535.69 -10.978 469.717 -5.749 468.609 -5.749" style="fill: rgb(240, 156, 149);"/>
  <path d="M 446.234 -2.232 C 436.072 -2.232 415.468 9 418.954 28.806 C 419.882 34.077 424.33 65.757 426.106 70.801 C 427.807 75.632 429.525 87.772 428.341 94.501 C 425.508 110.594 416.884 125.908 420.742 147.825 C 422.026 155.115 428.219 159.829 426.106 169.832 C 423.817 180.67 421.901 184.381 419.285 194.286 C 418.883 195.809 416.501 208.519 417.527 210.46 C 421.705 218.373 427.927 222.826 431.023 231.621 C 436.015 245.801 423.751 257.273 420.8 264.723 C 416.778 274.88 416.638 287.611 417.584 301.948 C 418.562 316.764 426.464 311.574 428.312 325.573 C 429.544 334.906 424.565 334.797 422.977 340.808 C 420.305 350.928 417.847 357.641 419.761 372.144 C 422.046 389.448 432.04 392.291 434.599 406.829 C 436.746 419.025 420.967 425.021 419.401 433.914 C 418.155 440.996 416.358 455.044 419.343 462.581 C 421.526 468.091 423.537 471.583 425.212 477.928 C 427.019 484.773 421.193 490.638 422.53 495.703 C 424.054 501.473 428.291 504.787 431.47 508.4 C 436.927 514.599 447.971 502.234 451.613 506.874 C 457.898 514.881 493.968 517.319 497.463 497.462 C 500.21 481.853 490.206 445.154 492.057 427.627 C 498.712 364.619 502.788 358.438 499.454 295.291 C 498.714 281.273 502.142 238.19 499.698 225.233 C 497.428 213.195 497.493 186.911 496.54 174.28 C 494.908 152.65 500.18 128.42 493.237 110.892 C 492.561 109.183 494.151 58.941 493.657 56.598 C 490.095 39.737 499.723 8.764 490.987 0.493 C 487.713 -2.608 450.479 -32.372 446.292 -29.729 C 443.995 -28.279 448.956 35.773 447.848 35.773" style="fill: rgb(251, 136, 125);"/>
  <path d="M 457.952 -10.882 C 447.79 -10.882 427.186 14.191 430.672 33.997 C 431.6 39.268 436.048 70.948 437.824 75.992 C 439.525 80.823 441.243 92.963 440.059 99.692 C 437.226 115.785 428.602 131.099 432.46 153.016 C 433.744 160.306 439.937 165.02 437.824 175.023 C 435.535 185.861 433.619 189.572 431.003 199.477 C 430.601 201 428.219 213.71 429.245 215.651 C 433.423 223.564 439.645 228.017 442.741 236.812 C 447.733 250.992 435.469 262.464 432.518 269.914 C 428.496 280.071 428.356 292.802 429.302 307.139 C 430.28 321.955 438.182 316.765 440.03 330.764 C 441.262 340.097 436.283 339.988 434.695 345.999 C 432.023 356.119 429.565 362.832 431.479 377.335 C 433.764 394.639 443.758 397.482 446.317 412.02 C 448.464 424.216 432.685 430.212 431.119 439.105 C 429.873 446.187 428.076 460.235 431.061 467.772 C 433.244 473.282 435.255 476.774 436.93 483.119 C 438.737 489.964 432.911 495.829 434.248 500.894 C 435.772 506.664 440.009 509.978 443.188 513.591 C 448.645 519.79 459.689 507.425 463.331 512.065 C 469.616 520.072 505.686 522.51 509.181 502.653 C 511.928 487.044 501.924 450.345 503.775 432.818 C 510.43 369.81 514.506 363.629 511.172 300.482 C 510.432 286.464 513.86 243.381 511.416 230.424 C 509.146 218.386 509.211 192.102 508.258 179.471 C 506.626 157.841 511.898 133.611 504.955 116.083 C 504.279 114.374 505.869 64.132 505.375 61.789 C 501.813 44.928 511.441 13.955 502.705 5.684 C 499.431 2.583 462.197 -27.181 458.01 -24.538 C 455.713 -23.088 477.11 -33.43 476.002 -33.43" style="fill: rgb(252, 118, 106);"/>
  <g transform="matrix(0.067484, 0, 0, 0.063766, 429.776794, 31.589355)" style="">
    <g>
      <path d="m289.38 462.086c-.92 0-1.854-.17-2.762-.529l-82.312-32.625c-2.858-1.134-4.736-3.897-4.736-6.973v-70.749c0-4.143 3.357-7.5 7.5-7.5s7.5 3.357 7.5 7.5v65.654l77.575 30.747c3.851 1.526 5.735 5.886 4.209 9.736-1.166 2.945-3.989 4.739-6.974 4.739z" fill="#fde588"/>
    </g>
    <path d="m288.787 489.489h-22.092v-130.909c0-4.143-3.357-7.5-7.5-7.5s-7.5 3.357-7.5 7.5v137.105c0 .666.095 1.307.258 1.921.315 3.853 3.535 6.882 7.469 6.882h29.365c4.143 0 7.5-3.357 7.5-7.5s-3.357-7.499-7.5-7.499z" fill="#fdd76f"/>
    <g>
      <path clip-rule="evenodd" d="m464.153 65.095c-7.837 2.707-9.637 5.831-13.996 15.401-2.013 4.42-5.455 11.654-1.679 22.893 13.804 15.732 9.75 38.974 11.083 39.768 20.153-19.076 23.356-37.671 18.31-54.054-2.663-8.702-7.68-16.808-13.718-24.008z" fill="#7e707d" fill-rule="evenodd"/>
    </g>
    <g>
      <path clip-rule="evenodd" d="m421.155 32.215c-8.356 3.566-12.318 13.685-13.977 23.403-1.766 10.345-2.397 18.68 2.129 28.128 12.613-1.389 26.757 5.499 39.172 19.643 9.013-16.128 13.492-28.855 15.674-38.294-14.568-17.376-35.061-29.564-42.998-32.88z" fill="#fde588" fill-rule="evenodd"/>
    </g>
    <g>
      <path clip-rule="evenodd" d="m74.986 215.806c-28.004 28.147-47.505 67.745-50.481 117.49 46.513-30.584 95.322-11.48 119.244-2.211 51.19 23.526 152.152 41.554 203.285 15.051 63.548-32.937 38.633-128.573 24.66-187.956-3.883-16.554-5.017-21.769-9.212-38.124-2.098-8.163-4.252-20.323-5.555-34.383 28.373 12.018 41.269 4.79 52.38-1.927 14.937-8.73 18.112-37.132 11.848-51.531-12.868-35.233-96.399-55.811-107.822 15.59-5.017 31.35 18.395 108.788 28.344 167.094 2.976 17.489 20.039 97.167-13.662 88.182-23.724-3.656-.567-67.546-38.01-101.334-13.379-11.792-28.486-20.522-44.501-26.389-5.667 3.429-183.811 43.849-170.518 40.448z" fill="#fe8d94" fill-rule="evenodd"/>
    </g>
    <g>
      <path clip-rule="evenodd" d="m141.539 305.093c-22.902-8.872-68.48-26.729-113.094-1.559-1.984 9.467-3.316 19.388-3.94 29.762 46.513-30.584 95.322-11.48 119.244-2.211 17.233 7.937 40.107 15.221 64.823 20.408 16.44 3.43 33.673 5.952 50.623 7.086 33.276 2.239 65.362-.794 87.839-12.444 41.354-21.429 45.237-69.445 39.058-116.725 1.275 38.039-7.511 73.244-41.269 90.733-51.16 26.504-152.123 8.476-203.284-15.05z" fill="#ff6d75" fill-rule="evenodd"/>
    </g>
    <g>
      <path d="m376.796 49.622c-4.143 0-7.5-3.344-7.5-7.486v-.028c0-4.143 3.357-7.5 7.5-7.5s7.5 3.357 7.5 7.5-3.357 7.514-7.5 7.514z" fill="#6a5c6b"/>
    </g>
    <g>
      <path clip-rule="evenodd" d="m213.958 163.849c-67.459-6.661-111.903 31.406-160.089 31.321 6.037 9.892 13.549 17.064 21.768 22.223 25.538 16.043 57.822 12.415 74.347 9.155 0 16.412-17.999 27.353-24.064 33.079 20.55 16.213 76.218 4.167 90.815-11.111 4.025 22.251-13.293 43.255-27.211 42.036 71.938 41.355 122.873-47.053 82.879-96.487-5.952-7.341-13.067-13.521-21.173-18.339-10.741-6.406-23.27-10.488-37.272-11.877z" fill="#ffdecf" fill-rule="evenodd"/>
    </g>
    <g>
      <path clip-rule="evenodd" d="m125.921 259.627c20.55 16.213 76.218 4.167 90.815-11.111 1.701-5.584 7.426-17.801-3.004-26.673-10.998 15.618-48.809 31.973-73.922 25.709-5.159 5.272-10.941 9.297-13.889 12.075z" fill="#ffcebe" fill-rule="evenodd"/>
    </g>
    <g>
      <path clip-rule="evenodd" d="m158.29 207.586c-16.525 3.26-48.809 6.888-74.347-9.155-2.664-1.672-5.244-3.571-7.738-5.697-7.426 1.531-14.852 2.438-22.335 2.438 6.037 9.892 13.549 17.064 21.768 22.223 25.538 16.043 57.822 12.415 74.347 9.155 4.62-5.217 8.305-11.538 8.305-18.964z" fill="#ffcebe" fill-rule="evenodd"/>
    </g>
    <g>
      <path clip-rule="evenodd" d="m189.526 290.552c71.938 41.355 122.873-47.053 82.879-96.487-3.883-4.762-8.22-9.042-13.01-12.784-2.579-2.013-5.3-3.883-8.163-5.556-7.795-4.677-16.553-8.078-26.133-10.148.255.17.539.312.794.454v.028c5.244 3.118 10.034 6.774 14.399 10.998 2.381 2.296 4.648 4.734 6.746 7.341 35.117 43.398.197 116.783-57.512 106.154z" fill="#ffcebe" fill-rule="evenodd"/>
    </g>
  </g>
  <g transform="matrix(-0.067484, 0, 0, 0.063766, 496.2612, 66.62397)" style="">
    <g>
      <path d="m289.38 462.086c-.92 0-1.854-.17-2.762-.529l-82.312-32.625c-2.858-1.134-4.736-3.897-4.736-6.973v-70.749c0-4.143 3.357-7.5 7.5-7.5s7.5 3.357 7.5 7.5v65.654l77.575 30.747c3.851 1.526 5.735 5.886 4.209 9.736-1.166 2.945-3.989 4.739-6.974 4.739z" fill="#fde588"/>
    </g>
    <path d="m288.787 489.489h-22.092v-130.909c0-4.143-3.357-7.5-7.5-7.5s-7.5 3.357-7.5 7.5v137.105c0 .666.095 1.307.258 1.921.315 3.853 3.535 6.882 7.469 6.882h29.365c4.143 0 7.5-3.357 7.5-7.5s-3.357-7.499-7.5-7.499z" fill="#fdd76f"/>
    <g>
      <path clip-rule="evenodd" d="m464.153 65.095c-7.837 2.707-9.637 5.831-13.996 15.401-2.013 4.42-5.455 11.654-1.679 22.893 13.804 15.732 9.75 38.974 11.083 39.768 20.153-19.076 23.356-37.671 18.31-54.054-2.663-8.702-7.68-16.808-13.718-24.008z" fill="#7e707d" fill-rule="evenodd"/>
    </g>
    <g>
      <path clip-rule="evenodd" d="m421.155 32.215c-8.356 3.566-12.318 13.685-13.977 23.403-1.766 10.345-2.397 18.68 2.129 28.128 12.613-1.389 26.757 5.499 39.172 19.643 9.013-16.128 13.492-28.855 15.674-38.294-14.568-17.376-35.061-29.564-42.998-32.88z" fill="#fde588" fill-rule="evenodd"/>
    </g>
    <g>
      <path clip-rule="evenodd" d="m74.986 215.806c-28.004 28.147-47.505 67.745-50.481 117.49 46.513-30.584 95.322-11.48 119.244-2.211 51.19 23.526 152.152 41.554 203.285 15.051 63.548-32.937 38.633-128.573 24.66-187.956-3.883-16.554-5.017-21.769-9.212-38.124-2.098-8.163-4.252-20.323-5.555-34.383 28.373 12.018 41.269 4.79 52.38-1.927 14.937-8.73 18.112-37.132 11.848-51.531-12.868-35.233-96.399-55.811-107.822 15.59-5.017 31.35 18.395 108.788 28.344 167.094 2.976 17.489 20.039 97.167-13.662 88.182-23.724-3.656-.567-67.546-38.01-101.334-13.379-11.792-28.486-20.522-44.501-26.389-5.667 3.429-183.811 43.849-170.518 40.448z" fill="#fe8d94" fill-rule="evenodd"/>
    </g>
    <g>
      <path clip-rule="evenodd" d="m141.539 305.093c-22.902-8.872-68.48-26.729-113.094-1.559-1.984 9.467-3.316 19.388-3.94 29.762 46.513-30.584 95.322-11.48 119.244-2.211 17.233 7.937 40.107 15.221 64.823 20.408 16.44 3.43 33.673 5.952 50.623 7.086 33.276 2.239 65.362-.794 87.839-12.444 41.354-21.429 45.237-69.445 39.058-116.725 1.275 38.039-7.511 73.244-41.269 90.733-51.16 26.504-152.123 8.476-203.284-15.05z" fill="#ff6d75" fill-rule="evenodd"/>
    </g>
    <g>
      <path d="m376.796 49.622c-4.143 0-7.5-3.344-7.5-7.486v-.028c0-4.143 3.357-7.5 7.5-7.5s7.5 3.357 7.5 7.5-3.357 7.514-7.5 7.514z" fill="#6a5c6b"/>
    </g>
    <g>
      <path clip-rule="evenodd" d="m213.958 163.849c-67.459-6.661-111.903 31.406-160.089 31.321 6.037 9.892 13.549 17.064 21.768 22.223 25.538 16.043 57.822 12.415 74.347 9.155 0 16.412-17.999 27.353-24.064 33.079 20.55 16.213 76.218 4.167 90.815-11.111 4.025 22.251-13.293 43.255-27.211 42.036 71.938 41.355 122.873-47.053 82.879-96.487-5.952-7.341-13.067-13.521-21.173-18.339-10.741-6.406-23.27-10.488-37.272-11.877z" fill="#ffdecf" fill-rule="evenodd"/>
    </g>
    <g>
      <path clip-rule="evenodd" d="m125.921 259.627c20.55 16.213 76.218 4.167 90.815-11.111 1.701-5.584 7.426-17.801-3.004-26.673-10.998 15.618-48.809 31.973-73.922 25.709-5.159 5.272-10.941 9.297-13.889 12.075z" fill="#ffcebe" fill-rule="evenodd"/>
    </g>
    <g>
      <path clip-rule="evenodd" d="m158.29 207.586c-16.525 3.26-48.809 6.888-74.347-9.155-2.664-1.672-5.244-3.571-7.738-5.697-7.426 1.531-14.852 2.438-22.335 2.438 6.037 9.892 13.549 17.064 21.768 22.223 25.538 16.043 57.822 12.415 74.347 9.155 4.62-5.217 8.305-11.538 8.305-18.964z" fill="#ffcebe" fill-rule="evenodd"/>
    </g>
    <g>
      <path clip-rule="evenodd" d="m189.526 290.552c71.938 41.355 122.873-47.053 82.879-96.487-3.883-4.762-8.22-9.042-13.01-12.784-2.579-2.013-5.3-3.883-8.163-5.556-7.795-4.677-16.553-8.078-26.133-10.148.255.17.539.312.794.454v.028c5.244 3.118 10.034 6.774 14.399 10.998 2.381 2.296 4.648 4.734 6.746 7.341 35.117 43.398.197 116.783-57.512 106.154z" fill="#ffcebe" fill-rule="evenodd"/>
    </g>
  </g>
  <g transform="matrix(0.067484, 0, 0, 0.063766, 434.534637, 128.475174)" style="">
    <g>
      <path d="m289.38 462.086c-.92 0-1.854-.17-2.762-.529l-82.312-32.625c-2.858-1.134-4.736-3.897-4.736-6.973v-70.749c0-4.143 3.357-7.5 7.5-7.5s7.5 3.357 7.5 7.5v65.654l77.575 30.747c3.851 1.526 5.735 5.886 4.209 9.736-1.166 2.945-3.989 4.739-6.974 4.739z" fill="#fde588"/>
    </g>
    <path d="m288.787 489.489h-22.092v-130.909c0-4.143-3.357-7.5-7.5-7.5s-7.5 3.357-7.5 7.5v137.105c0 .666.095 1.307.258 1.921.315 3.853 3.535 6.882 7.469 6.882h29.365c4.143 0 7.5-3.357 7.5-7.5s-3.357-7.499-7.5-7.499z" fill="#fdd76f"/>
    <g>
      <path clip-rule="evenodd" d="m464.153 65.095c-7.837 2.707-9.637 5.831-13.996 15.401-2.013 4.42-5.455 11.654-1.679 22.893 13.804 15.732 9.75 38.974 11.083 39.768 20.153-19.076 23.356-37.671 18.31-54.054-2.663-8.702-7.68-16.808-13.718-24.008z" fill="#7e707d" fill-rule="evenodd"/>
    </g>
    <g>
      <path clip-rule="evenodd" d="m421.155 32.215c-8.356 3.566-12.318 13.685-13.977 23.403-1.766 10.345-2.397 18.68 2.129 28.128 12.613-1.389 26.757 5.499 39.172 19.643 9.013-16.128 13.492-28.855 15.674-38.294-14.568-17.376-35.061-29.564-42.998-32.88z" fill="#fde588" fill-rule="evenodd"/>
    </g>
    <g>
      <path clip-rule="evenodd" d="m74.986 215.806c-28.004 28.147-47.505 67.745-50.481 117.49 46.513-30.584 95.322-11.48 119.244-2.211 51.19 23.526 152.152 41.554 203.285 15.051 63.548-32.937 38.633-128.573 24.66-187.956-3.883-16.554-5.017-21.769-9.212-38.124-2.098-8.163-4.252-20.323-5.555-34.383 28.373 12.018 41.269 4.79 52.38-1.927 14.937-8.73 18.112-37.132 11.848-51.531-12.868-35.233-96.399-55.811-107.822 15.59-5.017 31.35 18.395 108.788 28.344 167.094 2.976 17.489 20.039 97.167-13.662 88.182-23.724-3.656-.567-67.546-38.01-101.334-13.379-11.792-28.486-20.522-44.501-26.389-5.667 3.429-183.811 43.849-170.518 40.448z" fill="#fe8d94" fill-rule="evenodd"/>
    </g>
    <g>
      <path clip-rule="evenodd" d="m141.539 305.093c-22.902-8.872-68.48-26.729-113.094-1.559-1.984 9.467-3.316 19.388-3.94 29.762 46.513-30.584 95.322-11.48 119.244-2.211 17.233 7.937 40.107 15.221 64.823 20.408 16.44 3.43 33.673 5.952 50.623 7.086 33.276 2.239 65.362-.794 87.839-12.444 41.354-21.429 45.237-69.445 39.058-116.725 1.275 38.039-7.511 73.244-41.269 90.733-51.16 26.504-152.123 8.476-203.284-15.05z" fill="#ff6d75" fill-rule="evenodd"/>
    </g>
    <g>
      <path d="m376.796 49.622c-4.143 0-7.5-3.344-7.5-7.486v-.028c0-4.143 3.357-7.5 7.5-7.5s7.5 3.357 7.5 7.5-3.357 7.514-7.5 7.514z" fill="#6a5c6b"/>
    </g>
    <g>
      <path clip-rule="evenodd" d="m213.958 163.849c-67.459-6.661-111.903 31.406-160.089 31.321 6.037 9.892 13.549 17.064 21.768 22.223 25.538 16.043 57.822 12.415 74.347 9.155 0 16.412-17.999 27.353-24.064 33.079 20.55 16.213 76.218 4.167 90.815-11.111 4.025 22.251-13.293 43.255-27.211 42.036 71.938 41.355 122.873-47.053 82.879-96.487-5.952-7.341-13.067-13.521-21.173-18.339-10.741-6.406-23.27-10.488-37.272-11.877z" fill="#ffdecf" fill-rule="evenodd"/>
    </g>
    <g>
      <path clip-rule="evenodd" d="m125.921 259.627c20.55 16.213 76.218 4.167 90.815-11.111 1.701-5.584 7.426-17.801-3.004-26.673-10.998 15.618-48.809 31.973-73.922 25.709-5.159 5.272-10.941 9.297-13.889 12.075z" fill="#ffcebe" fill-rule="evenodd"/>
    </g>
    <g>
      <path clip-rule="evenodd" d="m158.29 207.586c-16.525 3.26-48.809 6.888-74.347-9.155-2.664-1.672-5.244-3.571-7.738-5.697-7.426 1.531-14.852 2.438-22.335 2.438 6.037 9.892 13.549 17.064 21.768 22.223 25.538 16.043 57.822 12.415 74.347 9.155 4.62-5.217 8.305-11.538 8.305-18.964z" fill="#ffcebe" fill-rule="evenodd"/>
    </g>
    <g>
      <path clip-rule="evenodd" d="m189.526 290.552c71.938 41.355 122.873-47.053 82.879-96.487-3.883-4.762-8.22-9.042-13.01-12.784-2.579-2.013-5.3-3.883-8.163-5.556-7.795-4.677-16.553-8.078-26.133-10.148.255.17.539.312.794.454v.028c5.244 3.118 10.034 6.774 14.399 10.998 2.381 2.296 4.648 4.734 6.746 7.341 35.117 43.398.197 116.783-57.512 106.154z" fill="#ffcebe" fill-rule="evenodd"/>
    </g>
  </g>
  <g transform="matrix(0.067484, 0, 0, 0.063766, 464.811462, 175.187988)" style="">
    <g>
      <path d="m289.38 462.086c-.92 0-1.854-.17-2.762-.529l-82.312-32.625c-2.858-1.134-4.736-3.897-4.736-6.973v-70.749c0-4.143 3.357-7.5 7.5-7.5s7.5 3.357 7.5 7.5v65.654l77.575 30.747c3.851 1.526 5.735 5.886 4.209 9.736-1.166 2.945-3.989 4.739-6.974 4.739z" fill="#fde588"/>
    </g>
    <path d="m288.787 489.489h-22.092v-130.909c0-4.143-3.357-7.5-7.5-7.5s-7.5 3.357-7.5 7.5v137.105c0 .666.095 1.307.258 1.921.315 3.853 3.535 6.882 7.469 6.882h29.365c4.143 0 7.5-3.357 7.5-7.5s-3.357-7.499-7.5-7.499z" fill="#fdd76f"/>
    <g>
      <path clip-rule="evenodd" d="m464.153 65.095c-7.837 2.707-9.637 5.831-13.996 15.401-2.013 4.42-5.455 11.654-1.679 22.893 13.804 15.732 9.75 38.974 11.083 39.768 20.153-19.076 23.356-37.671 18.31-54.054-2.663-8.702-7.68-16.808-13.718-24.008z" fill="#7e707d" fill-rule="evenodd"/>
    </g>
    <g>
      <path clip-rule="evenodd" d="m421.155 32.215c-8.356 3.566-12.318 13.685-13.977 23.403-1.766 10.345-2.397 18.68 2.129 28.128 12.613-1.389 26.757 5.499 39.172 19.643 9.013-16.128 13.492-28.855 15.674-38.294-14.568-17.376-35.061-29.564-42.998-32.88z" fill="#fde588" fill-rule="evenodd"/>
    </g>
    <g>
      <path clip-rule="evenodd" d="m74.986 215.806c-28.004 28.147-47.505 67.745-50.481 117.49 46.513-30.584 95.322-11.48 119.244-2.211 51.19 23.526 152.152 41.554 203.285 15.051 63.548-32.937 38.633-128.573 24.66-187.956-3.883-16.554-5.017-21.769-9.212-38.124-2.098-8.163-4.252-20.323-5.555-34.383 28.373 12.018 41.269 4.79 52.38-1.927 14.937-8.73 18.112-37.132 11.848-51.531-12.868-35.233-96.399-55.811-107.822 15.59-5.017 31.35 18.395 108.788 28.344 167.094 2.976 17.489 20.039 97.167-13.662 88.182-23.724-3.656-.567-67.546-38.01-101.334-13.379-11.792-28.486-20.522-44.501-26.389-5.667 3.429-183.811 43.849-170.518 40.448z" fill="#fe8d94" fill-rule="evenodd"/>
    </g>
    <g>
      <path clip-rule="evenodd" d="m141.539 305.093c-22.902-8.872-68.48-26.729-113.094-1.559-1.984 9.467-3.316 19.388-3.94 29.762 46.513-30.584 95.322-11.48 119.244-2.211 17.233 7.937 40.107 15.221 64.823 20.408 16.44 3.43 33.673 5.952 50.623 7.086 33.276 2.239 65.362-.794 87.839-12.444 41.354-21.429 45.237-69.445 39.058-116.725 1.275 38.039-7.511 73.244-41.269 90.733-51.16 26.504-152.123 8.476-203.284-15.05z" fill="#ff6d75" fill-rule="evenodd"/>
    </g>
    <g>
      <path d="m376.796 49.622c-4.143 0-7.5-3.344-7.5-7.486v-.028c0-4.143 3.357-7.5 7.5-7.5s7.5 3.357 7.5 7.5-3.357 7.514-7.5 7.514z" fill="#6a5c6b"/>
    </g>
    <g>
      <path clip-rule="evenodd" d="m213.958 163.849c-67.459-6.661-111.903 31.406-160.089 31.321 6.037 9.892 13.549 17.064 21.768 22.223 25.538 16.043 57.822 12.415 74.347 9.155 0 16.412-17.999 27.353-24.064 33.079 20.55 16.213 76.218 4.167 90.815-11.111 4.025 22.251-13.293 43.255-27.211 42.036 71.938 41.355 122.873-47.053 82.879-96.487-5.952-7.341-13.067-13.521-21.173-18.339-10.741-6.406-23.27-10.488-37.272-11.877z" fill="#ffdecf" fill-rule="evenodd"/>
    </g>
    <g>
      <path clip-rule="evenodd" d="m125.921 259.627c20.55 16.213 76.218 4.167 90.815-11.111 1.701-5.584 7.426-17.801-3.004-26.673-10.998 15.618-48.809 31.973-73.922 25.709-5.159 5.272-10.941 9.297-13.889 12.075z" fill="#ffcebe" fill-rule="evenodd"/>
    </g>
    <g>
      <path clip-rule="evenodd" d="m158.29 207.586c-16.525 3.26-48.809 6.888-74.347-9.155-2.664-1.672-5.244-3.571-7.738-5.697-7.426 1.531-14.852 2.438-22.335 2.438 6.037 9.892 13.549 17.064 21.768 22.223 25.538 16.043 57.822 12.415 74.347 9.155 4.62-5.217 8.305-11.538 8.305-18.964z" fill="#ffcebe" fill-rule="evenodd"/>
    </g>
    <g>
      <path clip-rule="evenodd" d="m189.526 290.552c71.938 41.355 122.873-47.053 82.879-96.487-3.883-4.762-8.22-9.042-13.01-12.784-2.579-2.013-5.3-3.883-8.163-5.556-7.795-4.677-16.553-8.078-26.133-10.148.255.17.539.312.794.454v.028c5.244 3.118 10.034 6.774 14.399 10.998 2.381 2.296 4.648 4.734 6.746 7.341 35.117 43.398.197 116.783-57.512 106.154z" fill="#ffcebe" fill-rule="evenodd"/>
    </g>
  </g>
  <g transform="matrix(-0.067484, 0, 0, 0.063766, 491.935883, 259.963074)" style="">
    <g>
      <path d="m289.38 462.086c-.92 0-1.854-.17-2.762-.529l-82.312-32.625c-2.858-1.134-4.736-3.897-4.736-6.973v-70.749c0-4.143 3.357-7.5 7.5-7.5s7.5 3.357 7.5 7.5v65.654l77.575 30.747c3.851 1.526 5.735 5.886 4.209 9.736-1.166 2.945-3.989 4.739-6.974 4.739z" fill="#fde588"/>
    </g>
    <path d="m288.787 489.489h-22.092v-130.909c0-4.143-3.357-7.5-7.5-7.5s-7.5 3.357-7.5 7.5v137.105c0 .666.095 1.307.258 1.921.315 3.853 3.535 6.882 7.469 6.882h29.365c4.143 0 7.5-3.357 7.5-7.5s-3.357-7.499-7.5-7.499z" fill="#fdd76f"/>
    <g>
      <path clip-rule="evenodd" d="m464.153 65.095c-7.837 2.707-9.637 5.831-13.996 15.401-2.013 4.42-5.455 11.654-1.679 22.893 13.804 15.732 9.75 38.974 11.083 39.768 20.153-19.076 23.356-37.671 18.31-54.054-2.663-8.702-7.68-16.808-13.718-24.008z" fill="#7e707d" fill-rule="evenodd"/>
    </g>
    <g>
      <path clip-rule="evenodd" d="m421.155 32.215c-8.356 3.566-12.318 13.685-13.977 23.403-1.766 10.345-2.397 18.68 2.129 28.128 12.613-1.389 26.757 5.499 39.172 19.643 9.013-16.128 13.492-28.855 15.674-38.294-14.568-17.376-35.061-29.564-42.998-32.88z" fill="#fde588" fill-rule="evenodd"/>
    </g>
    <g>
      <path clip-rule="evenodd" d="m74.986 215.806c-28.004 28.147-47.505 67.745-50.481 117.49 46.513-30.584 95.322-11.48 119.244-2.211 51.19 23.526 152.152 41.554 203.285 15.051 63.548-32.937 38.633-128.573 24.66-187.956-3.883-16.554-5.017-21.769-9.212-38.124-2.098-8.163-4.252-20.323-5.555-34.383 28.373 12.018 41.269 4.79 52.38-1.927 14.937-8.73 18.112-37.132 11.848-51.531-12.868-35.233-96.399-55.811-107.822 15.59-5.017 31.35 18.395 108.788 28.344 167.094 2.976 17.489 20.039 97.167-13.662 88.182-23.724-3.656-.567-67.546-38.01-101.334-13.379-11.792-28.486-20.522-44.501-26.389-5.667 3.429-183.811 43.849-170.518 40.448z" fill="#fe8d94" fill-rule="evenodd"/>
    </g>
    <g>
      <path clip-rule="evenodd" d="m141.539 305.093c-22.902-8.872-68.48-26.729-113.094-1.559-1.984 9.467-3.316 19.388-3.94 29.762 46.513-30.584 95.322-11.48 119.244-2.211 17.233 7.937 40.107 15.221 64.823 20.408 16.44 3.43 33.673 5.952 50.623 7.086 33.276 2.239 65.362-.794 87.839-12.444 41.354-21.429 45.237-69.445 39.058-116.725 1.275 38.039-7.511 73.244-41.269 90.733-51.16 26.504-152.123 8.476-203.284-15.05z" fill="#ff6d75" fill-rule="evenodd"/>
    </g>
    <g>
      <path d="m376.796 49.622c-4.143 0-7.5-3.344-7.5-7.486v-.028c0-4.143 3.357-7.5 7.5-7.5s7.5 3.357 7.5 7.5-3.357 7.514-7.5 7.514z" fill="#6a5c6b"/>
    </g>
    <g>
      <path clip-rule="evenodd" d="m213.958 163.849c-67.459-6.661-111.903 31.406-160.089 31.321 6.037 9.892 13.549 17.064 21.768 22.223 25.538 16.043 57.822 12.415 74.347 9.155 0 16.412-17.999 27.353-24.064 33.079 20.55 16.213 76.218 4.167 90.815-11.111 4.025 22.251-13.293 43.255-27.211 42.036 71.938 41.355 122.873-47.053 82.879-96.487-5.952-7.341-13.067-13.521-21.173-18.339-10.741-6.406-23.27-10.488-37.272-11.877z" fill="#ffdecf" fill-rule="evenodd"/>
    </g>
    <g>
      <path clip-rule="evenodd" d="m125.921 259.627c20.55 16.213 76.218 4.167 90.815-11.111 1.701-5.584 7.426-17.801-3.004-26.673-10.998 15.618-48.809 31.973-73.922 25.709-5.159 5.272-10.941 9.297-13.889 12.075z" fill="#ffcebe" fill-rule="evenodd"/>
    </g>
    <g>
      <path clip-rule="evenodd" d="m158.29 207.586c-16.525 3.26-48.809 6.888-74.347-9.155-2.664-1.672-5.244-3.571-7.738-5.697-7.426 1.531-14.852 2.438-22.335 2.438 6.037 9.892 13.549 17.064 21.768 22.223 25.538 16.043 57.822 12.415 74.347 9.155 4.62-5.217 8.305-11.538 8.305-18.964z" fill="#ffcebe" fill-rule="evenodd"/>
    </g>
    <g>
      <path clip-rule="evenodd" d="m189.526 290.552c71.938 41.355 122.873-47.053 82.879-96.487-3.883-4.762-8.22-9.042-13.01-12.784-2.579-2.013-5.3-3.883-8.163-5.556-7.795-4.677-16.553-8.078-26.133-10.148.255.17.539.312.794.454v.028c5.244 3.118 10.034 6.774 14.399 10.998 2.381 2.296 4.648 4.734 6.746 7.341 35.117 43.398.197 116.783-57.512 106.154z" fill="#ffcebe" fill-rule="evenodd"/>
    </g>
  </g>
  <g transform="matrix(0.067484, 0, 0, 0.063766, 432.804565, 319.843872)" style="">
    <g>
      <path d="m289.38 462.086c-.92 0-1.854-.17-2.762-.529l-82.312-32.625c-2.858-1.134-4.736-3.897-4.736-6.973v-70.749c0-4.143 3.357-7.5 7.5-7.5s7.5 3.357 7.5 7.5v65.654l77.575 30.747c3.851 1.526 5.735 5.886 4.209 9.736-1.166 2.945-3.989 4.739-6.974 4.739z" fill="#fde588"/>
    </g>
    <path d="m288.787 489.489h-22.092v-130.909c0-4.143-3.357-7.5-7.5-7.5s-7.5 3.357-7.5 7.5v137.105c0 .666.095 1.307.258 1.921.315 3.853 3.535 6.882 7.469 6.882h29.365c4.143 0 7.5-3.357 7.5-7.5s-3.357-7.499-7.5-7.499z" fill="#fdd76f"/>
    <g>
      <path clip-rule="evenodd" d="m464.153 65.095c-7.837 2.707-9.637 5.831-13.996 15.401-2.013 4.42-5.455 11.654-1.679 22.893 13.804 15.732 9.75 38.974 11.083 39.768 20.153-19.076 23.356-37.671 18.31-54.054-2.663-8.702-7.68-16.808-13.718-24.008z" fill="#7e707d" fill-rule="evenodd"/>
    </g>
    <g>
      <path clip-rule="evenodd" d="m421.155 32.215c-8.356 3.566-12.318 13.685-13.977 23.403-1.766 10.345-2.397 18.68 2.129 28.128 12.613-1.389 26.757 5.499 39.172 19.643 9.013-16.128 13.492-28.855 15.674-38.294-14.568-17.376-35.061-29.564-42.998-32.88z" fill="#fde588" fill-rule="evenodd"/>
    </g>
    <g>
      <path clip-rule="evenodd" d="m74.986 215.806c-28.004 28.147-47.505 67.745-50.481 117.49 46.513-30.584 95.322-11.48 119.244-2.211 51.19 23.526 152.152 41.554 203.285 15.051 63.548-32.937 38.633-128.573 24.66-187.956-3.883-16.554-5.017-21.769-9.212-38.124-2.098-8.163-4.252-20.323-5.555-34.383 28.373 12.018 41.269 4.79 52.38-1.927 14.937-8.73 18.112-37.132 11.848-51.531-12.868-35.233-96.399-55.811-107.822 15.59-5.017 31.35 18.395 108.788 28.344 167.094 2.976 17.489 20.039 97.167-13.662 88.182-23.724-3.656-.567-67.546-38.01-101.334-13.379-11.792-28.486-20.522-44.501-26.389-5.667 3.429-183.811 43.849-170.518 40.448z" fill="#fe8d94" fill-rule="evenodd"/>
    </g>
    <g>
      <path clip-rule="evenodd" d="m141.539 305.093c-22.902-8.872-68.48-26.729-113.094-1.559-1.984 9.467-3.316 19.388-3.94 29.762 46.513-30.584 95.322-11.48 119.244-2.211 17.233 7.937 40.107 15.221 64.823 20.408 16.44 3.43 33.673 5.952 50.623 7.086 33.276 2.239 65.362-.794 87.839-12.444 41.354-21.429 45.237-69.445 39.058-116.725 1.275 38.039-7.511 73.244-41.269 90.733-51.16 26.504-152.123 8.476-203.284-15.05z" fill="#ff6d75" fill-rule="evenodd"/>
    </g>
    <g>
      <path d="m376.796 49.622c-4.143 0-7.5-3.344-7.5-7.486v-.028c0-4.143 3.357-7.5 7.5-7.5s7.5 3.357 7.5 7.5-3.357 7.514-7.5 7.514z" fill="#6a5c6b"/>
    </g>
    <g>
      <path clip-rule="evenodd" d="m213.958 163.849c-67.459-6.661-111.903 31.406-160.089 31.321 6.037 9.892 13.549 17.064 21.768 22.223 25.538 16.043 57.822 12.415 74.347 9.155 0 16.412-17.999 27.353-24.064 33.079 20.55 16.213 76.218 4.167 90.815-11.111 4.025 22.251-13.293 43.255-27.211 42.036 71.938 41.355 122.873-47.053 82.879-96.487-5.952-7.341-13.067-13.521-21.173-18.339-10.741-6.406-23.27-10.488-37.272-11.877z" fill="#ffdecf" fill-rule="evenodd"/>
    </g>
    <g>
      <path clip-rule="evenodd" d="m125.921 259.627c20.55 16.213 76.218 4.167 90.815-11.111 1.701-5.584 7.426-17.801-3.004-26.673-10.998 15.618-48.809 31.973-73.922 25.709-5.159 5.272-10.941 9.297-13.889 12.075z" fill="#ffcebe" fill-rule="evenodd"/>
    </g>
    <g>
      <path clip-rule="evenodd" d="m158.29 207.586c-16.525 3.26-48.809 6.888-74.347-9.155-2.664-1.672-5.244-3.571-7.738-5.697-7.426 1.531-14.852 2.438-22.335 2.438 6.037 9.892 13.549 17.064 21.768 22.223 25.538 16.043 57.822 12.415 74.347 9.155 4.62-5.217 8.305-11.538 8.305-18.964z" fill="#ffcebe" fill-rule="evenodd"/>
    </g>
    <g>
      <path clip-rule="evenodd" d="m189.526 290.552c71.938 41.355 122.873-47.053 82.879-96.487-3.883-4.762-8.22-9.042-13.01-12.784-2.579-2.013-5.3-3.883-8.163-5.556-7.795-4.677-16.553-8.078-26.133-10.148.255.17.539.312.794.454v.028c5.244 3.118 10.034 6.774 14.399 10.998 2.381 2.296 4.648 4.734 6.746 7.341 35.117 43.398.197 116.783-57.512 106.154z" fill="#ffcebe" fill-rule="evenodd"/>
    </g>
  </g>
  <g transform="matrix(-0.067484, 0, 0, 0.063766, 494.531067, 382.127625)" style="">
    <g>
      <path d="m289.38 462.086c-.92 0-1.854-.17-2.762-.529l-82.312-32.625c-2.858-1.134-4.736-3.897-4.736-6.973v-70.749c0-4.143 3.357-7.5 7.5-7.5s7.5 3.357 7.5 7.5v65.654l77.575 30.747c3.851 1.526 5.735 5.886 4.209 9.736-1.166 2.945-3.989 4.739-6.974 4.739z" fill="#fde588"/>
    </g>
    <path d="m288.787 489.489h-22.092v-130.909c0-4.143-3.357-7.5-7.5-7.5s-7.5 3.357-7.5 7.5v137.105c0 .666.095 1.307.258 1.921.315 3.853 3.535 6.882 7.469 6.882h29.365c4.143 0 7.5-3.357 7.5-7.5s-3.357-7.499-7.5-7.499z" fill="#fdd76f"/>
    <g>
      <path clip-rule="evenodd" d="m464.153 65.095c-7.837 2.707-9.637 5.831-13.996 15.401-2.013 4.42-5.455 11.654-1.679 22.893 13.804 15.732 9.75 38.974 11.083 39.768 20.153-19.076 23.356-37.671 18.31-54.054-2.663-8.702-7.68-16.808-13.718-24.008z" fill="#7e707d" fill-rule="evenodd"/>
    </g>
    <g>
      <path clip-rule="evenodd" d="m421.155 32.215c-8.356 3.566-12.318 13.685-13.977 23.403-1.766 10.345-2.397 18.68 2.129 28.128 12.613-1.389 26.757 5.499 39.172 19.643 9.013-16.128 13.492-28.855 15.674-38.294-14.568-17.376-35.061-29.564-42.998-32.88z" fill="#fde588" fill-rule="evenodd"/>
    </g>
    <g>
      <path clip-rule="evenodd" d="m74.986 215.806c-28.004 28.147-47.505 67.745-50.481 117.49 46.513-30.584 95.322-11.48 119.244-2.211 51.19 23.526 152.152 41.554 203.285 15.051 63.548-32.937 38.633-128.573 24.66-187.956-3.883-16.554-5.017-21.769-9.212-38.124-2.098-8.163-4.252-20.323-5.555-34.383 28.373 12.018 41.269 4.79 52.38-1.927 14.937-8.73 18.112-37.132 11.848-51.531-12.868-35.233-96.399-55.811-107.822 15.59-5.017 31.35 18.395 108.788 28.344 167.094 2.976 17.489 20.039 97.167-13.662 88.182-23.724-3.656-.567-67.546-38.01-101.334-13.379-11.792-28.486-20.522-44.501-26.389-5.667 3.429-183.811 43.849-170.518 40.448z" fill="#fe8d94" fill-rule="evenodd"/>
    </g>
    <g>
      <path clip-rule="evenodd" d="m141.539 305.093c-22.902-8.872-68.48-26.729-113.094-1.559-1.984 9.467-3.316 19.388-3.94 29.762 46.513-30.584 95.322-11.48 119.244-2.211 17.233 7.937 40.107 15.221 64.823 20.408 16.44 3.43 33.673 5.952 50.623 7.086 33.276 2.239 65.362-.794 87.839-12.444 41.354-21.429 45.237-69.445 39.058-116.725 1.275 38.039-7.511 73.244-41.269 90.733-51.16 26.504-152.123 8.476-203.284-15.05z" fill="#ff6d75" fill-rule="evenodd"/>
    </g>
    <g>
      <path d="m376.796 49.622c-4.143 0-7.5-3.344-7.5-7.486v-.028c0-4.143 3.357-7.5 7.5-7.5s7.5 3.357 7.5 7.5-3.357 7.514-7.5 7.514z" fill="#6a5c6b"/>
    </g>
    <g>
      <path clip-rule="evenodd" d="m213.958 163.849c-67.459-6.661-111.903 31.406-160.089 31.321 6.037 9.892 13.549 17.064 21.768 22.223 25.538 16.043 57.822 12.415 74.347 9.155 0 16.412-17.999 27.353-24.064 33.079 20.55 16.213 76.218 4.167 90.815-11.111 4.025 22.251-13.293 43.255-27.211 42.036 71.938 41.355 122.873-47.053 82.879-96.487-5.952-7.341-13.067-13.521-21.173-18.339-10.741-6.406-23.27-10.488-37.272-11.877z" fill="#ffdecf" fill-rule="evenodd"/>
    </g>
    <g>
      <path clip-rule="evenodd" d="m125.921 259.627c20.55 16.213 76.218 4.167 90.815-11.111 1.701-5.584 7.426-17.801-3.004-26.673-10.998 15.618-48.809 31.973-73.922 25.709-5.159 5.272-10.941 9.297-13.889 12.075z" fill="#ffcebe" fill-rule="evenodd"/>
    </g>
    <g>
      <path clip-rule="evenodd" d="m158.29 207.586c-16.525 3.26-48.809 6.888-74.347-9.155-2.664-1.672-5.244-3.571-7.738-5.697-7.426 1.531-14.852 2.438-22.335 2.438 6.037 9.892 13.549 17.064 21.768 22.223 25.538 16.043 57.822 12.415 74.347 9.155 4.62-5.217 8.305-11.538 8.305-18.964z" fill="#ffcebe" fill-rule="evenodd"/>
    </g>
    <g>
      <path clip-rule="evenodd" d="m189.526 290.552c71.938 41.355 122.873-47.053 82.879-96.487-3.883-4.762-8.22-9.042-13.01-12.784-2.579-2.013-5.3-3.883-8.163-5.556-7.795-4.677-16.553-8.078-26.133-10.148.255.17.539.312.794.454v.028c5.244 3.118 10.034 6.774 14.399 10.998 2.381 2.296 4.648 4.734 6.746 7.341 35.117 43.398.197 116.783-57.512 106.154z" fill="#ffcebe" fill-rule="evenodd"/>
    </g>
  </g>
  <g transform="matrix(0.067484, 0, 0, 0.063766, 442.320129, 445.276398)" style="">
    <g>
      <path d="m289.38 462.086c-.92 0-1.854-.17-2.762-.529l-82.312-32.625c-2.858-1.134-4.736-3.897-4.736-6.973v-70.749c0-4.143 3.357-7.5 7.5-7.5s7.5 3.357 7.5 7.5v65.654l77.575 30.747c3.851 1.526 5.735 5.886 4.209 9.736-1.166 2.945-3.989 4.739-6.974 4.739z" fill="#fde588"/>
    </g>
    <path d="m288.787 489.489h-22.092v-130.909c0-4.143-3.357-7.5-7.5-7.5s-7.5 3.357-7.5 7.5v137.105c0 .666.095 1.307.258 1.921.315 3.853 3.535 6.882 7.469 6.882h29.365c4.143 0 7.5-3.357 7.5-7.5s-3.357-7.499-7.5-7.499z" fill="#fdd76f"/>
    <g>
      <path clip-rule="evenodd" d="m464.153 65.095c-7.837 2.707-9.637 5.831-13.996 15.401-2.013 4.42-5.455 11.654-1.679 22.893 13.804 15.732 9.75 38.974 11.083 39.768 20.153-19.076 23.356-37.671 18.31-54.054-2.663-8.702-7.68-16.808-13.718-24.008z" fill="#7e707d" fill-rule="evenodd"/>
    </g>
    <g>
      <path clip-rule="evenodd" d="m421.155 32.215c-8.356 3.566-12.318 13.685-13.977 23.403-1.766 10.345-2.397 18.68 2.129 28.128 12.613-1.389 26.757 5.499 39.172 19.643 9.013-16.128 13.492-28.855 15.674-38.294-14.568-17.376-35.061-29.564-42.998-32.88z" fill="#fde588" fill-rule="evenodd"/>
    </g>
    <g>
      <path clip-rule="evenodd" d="m74.986 215.806c-28.004 28.147-47.505 67.745-50.481 117.49 46.513-30.584 95.322-11.48 119.244-2.211 51.19 23.526 152.152 41.554 203.285 15.051 63.548-32.937 38.633-128.573 24.66-187.956-3.883-16.554-5.017-21.769-9.212-38.124-2.098-8.163-4.252-20.323-5.555-34.383 28.373 12.018 41.269 4.79 52.38-1.927 14.937-8.73 18.112-37.132 11.848-51.531-12.868-35.233-96.399-55.811-107.822 15.59-5.017 31.35 18.395 108.788 28.344 167.094 2.976 17.489 20.039 97.167-13.662 88.182-23.724-3.656-.567-67.546-38.01-101.334-13.379-11.792-28.486-20.522-44.501-26.389-5.667 3.429-183.811 43.849-170.518 40.448z" fill="#fe8d94" fill-rule="evenodd"/>
    </g>
    <g>
      <path clip-rule="evenodd" d="m141.539 305.093c-22.902-8.872-68.48-26.729-113.094-1.559-1.984 9.467-3.316 19.388-3.94 29.762 46.513-30.584 95.322-11.48 119.244-2.211 17.233 7.937 40.107 15.221 64.823 20.408 16.44 3.43 33.673 5.952 50.623 7.086 33.276 2.239 65.362-.794 87.839-12.444 41.354-21.429 45.237-69.445 39.058-116.725 1.275 38.039-7.511 73.244-41.269 90.733-51.16 26.504-152.123 8.476-203.284-15.05z" fill="#ff6d75" fill-rule="evenodd"/>
    </g>
    <g>
      <path d="m376.796 49.622c-4.143 0-7.5-3.344-7.5-7.486v-.028c0-4.143 3.357-7.5 7.5-7.5s7.5 3.357 7.5 7.5-3.357 7.514-7.5 7.514z" fill="#6a5c6b"/>
    </g>
    <g>
      <path clip-rule="evenodd" d="m213.958 163.849c-67.459-6.661-111.903 31.406-160.089 31.321 6.037 9.892 13.549 17.064 21.768 22.223 25.538 16.043 57.822 12.415 74.347 9.155 0 16.412-17.999 27.353-24.064 33.079 20.55 16.213 76.218 4.167 90.815-11.111 4.025 22.251-13.293 43.255-27.211 42.036 71.938 41.355 122.873-47.053 82.879-96.487-5.952-7.341-13.067-13.521-21.173-18.339-10.741-6.406-23.27-10.488-37.272-11.877z" fill="#ffdecf" fill-rule="evenodd"/>
    </g>
    <g>
      <path clip-rule="evenodd" d="m125.921 259.627c20.55 16.213 76.218 4.167 90.815-11.111 1.701-5.584 7.426-17.801-3.004-26.673-10.998 15.618-48.809 31.973-73.922 25.709-5.159 5.272-10.941 9.297-13.889 12.075z" fill="#ffcebe" fill-rule="evenodd"/>
    </g>
    <g>
      <path clip-rule="evenodd" d="m158.29 207.586c-16.525 3.26-48.809 6.888-74.347-9.155-2.664-1.672-5.244-3.571-7.738-5.697-7.426 1.531-14.852 2.438-22.335 2.438 6.037 9.892 13.549 17.064 21.768 22.223 25.538 16.043 57.822 12.415 74.347 9.155 4.62-5.217 8.305-11.538 8.305-18.964z" fill="#ffcebe" fill-rule="evenodd"/>
    </g>
    <g>
      <path clip-rule="evenodd" d="m189.526 290.552c71.938 41.355 122.873-47.053 82.879-96.487-3.883-4.762-8.22-9.042-13.01-12.784-2.579-2.013-5.3-3.883-8.163-5.556-7.795-4.677-16.553-8.078-26.133-10.148.255.17.539.312.794.454v.028c5.244 3.118 10.034 6.774 14.399 10.998 2.381 2.296 4.648 4.734 6.746 7.341 35.117 43.398.197 116.783-57.512 106.154z" fill="#ffcebe" fill-rule="evenodd"/>
    </g>
  </g>
</svg>