<?xml version="1.0" encoding="utf-8"?>
<svg viewBox="0 0 500 500" xmlns="http://www.w3.org/2000/svg">
  <rect x="-5.154" width="500.866" height="500.865" style="fill: rgb(91, 132, 177);" transform="matrix(1, 0.00009, 0.000449, 1, 4.176919, -0.021878)"/>
  <path d="M 428.068 -7.806 C 417.906 -7.806 405.088 33.703 408.574 53.509 C 409.502 58.78 413.95 66.239 415.726 71.283 C 417.427 76.114 419.145 88.254 417.961 94.983 C 415.128 111.076 406.504 126.39 410.362 148.307 C 411.646 155.597 417.839 160.311 415.726 170.314 C 413.437 181.152 408.061 189.188 405.445 199.093 C 405.043 200.616 403.526 209.001 404.552 210.942 C 408.73 218.855 417.547 223.308 420.643 232.103 C 425.635 246.283 415.101 253.43 412.15 260.88 C 408.128 271.037 405.393 284.633 406.339 298.97 C 407.317 313.786 415.219 312.056 417.067 326.055 C 418.299 335.388 414.185 335.279 412.597 341.29 C 409.925 351.41 404.872 357.258 406.786 371.761 C 409.071 389.065 421.66 392.773 424.219 407.311 C 426.366 419.507 410.587 425.503 409.021 434.396 C 407.775 441.478 404.248 460.716 407.233 468.253 C 409.416 473.763 413.157 472.065 414.832 478.41 C 416.639 485.255 410.813 491.12 412.15 496.185 C 413.674 501.955 417.911 505.269 421.09 508.882 C 426.547 515.081 437.591 502.716 441.233 507.356 C 447.518 515.363 483.588 517.801 487.083 497.944 C 489.83 482.335 479.826 445.636 481.677 428.109 C 488.332 365.101 492.408 358.92 489.074 295.773 C 488.334 281.755 491.762 238.672 489.318 225.715 C 487.048 213.677 487.113 187.393 486.16 174.762 C 484.528 153.132 489.8 128.902 482.857 111.374 C 482.181 109.665 483.771 59.423 483.277 57.08 C 479.715 40.219 489.343 9.246 480.607 0.975 C 477.333 -2.126 544.77 -15.454 540.583 -12.811 C 538.286 -11.361 472.313 -6.132 471.205 -6.132" style="fill: rgb(92, 225, 230);"/>
  <path d="M 448.83 -2.615 C 438.668 -2.615 418.064 8.617 421.55 28.423 C 422.478 33.694 426.926 65.374 428.702 70.418 C 430.403 75.249 432.121 87.389 430.937 94.118 C 428.104 110.211 419.48 125.525 423.338 147.442 C 424.622 154.732 430.815 159.446 428.702 169.449 C 426.413 180.287 424.497 183.998 421.881 193.903 C 421.479 195.426 419.097 208.136 420.123 210.077 C 424.301 217.99 430.523 222.443 433.619 231.238 C 438.611 245.418 426.347 256.89 423.396 264.34 C 419.374 274.497 419.234 287.228 420.18 301.565 C 421.158 316.381 429.06 311.191 430.908 325.19 C 432.14 334.523 427.161 334.414 425.573 340.425 C 422.901 350.545 420.443 357.258 422.357 371.761 C 424.642 389.065 434.636 391.908 437.195 406.446 C 439.342 418.642 423.563 424.638 421.997 433.531 C 420.751 440.613 418.954 454.661 421.939 462.198 C 424.122 467.708 426.133 471.2 427.808 477.545 C 429.615 484.39 423.789 490.255 425.126 495.32 C 426.65 501.09 430.887 504.404 434.066 508.017 C 439.523 514.216 450.567 501.851 454.209 506.491 C 460.494 514.498 496.564 516.936 500.059 497.079 C 502.806 481.47 492.802 444.771 494.653 427.244 C 501.308 364.236 505.384 358.055 502.05 294.908 C 501.31 280.89 504.738 237.807 502.294 224.85 C 500.024 212.812 500.089 186.528 499.136 173.897 C 497.504 152.267 502.776 128.037 495.833 110.509 C 495.157 108.8 496.747 58.558 496.253 56.215 C 492.691 39.354 502.319 8.381 493.583 0.11 C 490.309 -2.991 453.075 -32.755 448.888 -30.112 C 446.591 -28.662 451.552 35.39 450.444 35.39" style="fill: rgb(170, 243, 246);"/>
  <g transform="matrix(0.014461, -0.102899, 0.111883, 0.015724, 438.928253, 187.948212)" style=""/>
  <g transform="matrix(0.014461, -0.102899, 0.111883, 0.015724, 438.928253, 187.948212)" style=""/>
  <g transform="matrix(0.014461, -0.102899, 0.111883, 0.015724, 438.928253, 187.948212)" style=""/>
  <g transform="matrix(0.014461, -0.102899, 0.111883, 0.015724, 438.928253, 187.948212)" style=""/>
  <g transform="matrix(0.014461, -0.102899, 0.111883, 0.015724, 438.928253, 187.948212)" style=""/>
  <g transform="matrix(0.014461, -0.102899, 0.111883, 0.015724, 438.928253, 187.948212)" style=""/>
  <g transform="matrix(0.014461, -0.102899, 0.111883, 0.015724, 438.928253, 187.948212)" style=""/>
  <g transform="matrix(0.014461, -0.102899, 0.111883, 0.015724, 438.928253, 187.948212)" style=""/>
  <g transform="matrix(0.014461, -0.102899, 0.111883, 0.015724, 438.928253, 187.948212)" style=""/>
  <g transform="matrix(0.014461, -0.102899, 0.111883, 0.015724, 438.928253, 187.948212)" style=""/>
  <g transform="matrix(0.014461, -0.102899, 0.111883, 0.015724, 438.928253, 187.948212)" style=""/>
  <g transform="matrix(0.014461, -0.102899, 0.111883, 0.015724, 438.928253, 187.948212)" style=""/>
  <g transform="matrix(0.014461, -0.102899, 0.111883, 0.015724, 438.928253, 187.948212)" style=""/>
  <g transform="matrix(0.014461, -0.102899, 0.111883, 0.015724, 438.928253, 187.948212)" style=""/>
  <g transform="matrix(0.014461, -0.102899, 0.111883, 0.015724, 438.928253, 187.948212)" style=""/>
  <path d="M 442.74 5.085 C 432.578 5.085 424.95 29.537 428.436 49.543 C 429.364 54.867 433.812 62.402 435.588 67.497 C 437.289 72.376 439.007 84.639 437.823 91.436 C 434.99 107.691 426.366 123.16 430.224 145.298 C 431.508 152.661 437.701 157.423 435.588 167.527 C 433.299 178.474 427.923 186.591 425.307 196.596 C 424.905 198.134 423.388 206.604 424.414 208.565 C 428.592 216.558 437.409 221.055 440.505 229.939 C 445.497 244.262 434.963 251.481 432.012 259.007 C 427.99 269.266 425.255 282.999 426.201 297.481 C 427.179 312.446 435.081 310.699 436.929 324.839 C 438.161 334.266 434.047 334.156 432.459 340.228 C 429.787 350.45 424.734 356.357 426.648 371.006 C 428.933 388.485 441.522 392.23 444.081 406.915 C 446.228 419.234 430.449 425.29 428.883 434.273 C 427.637 441.427 424.11 460.859 427.095 468.472 C 429.278 474.037 433.019 472.322 434.694 478.731 C 436.501 485.645 430.675 491.57 432.012 496.686 C 433.536 502.514 437.773 505.861 440.952 509.511 C 446.409 515.772 457.453 503.283 461.095 507.969 C 467.38 516.057 503.45 518.52 506.945 498.462 C 509.692 482.696 499.688 445.627 501.539 427.923 C 508.194 364.279 512.27 358.036 508.936 294.252 C 508.196 280.092 511.624 236.574 509.18 223.487 C 506.91 211.327 506.975 184.778 506.022 172.02 C 504.39 150.171 509.662 125.697 502.719 107.992 C 502.043 106.266 503.633 55.517 503.139 53.15 C 499.577 36.119 509.205 4.834 500.469 -3.521 C 497.195 -6.653 448.715 -6.135 444.528 -3.465 C 442.231 -2.001 440.272 7.65 439.164 7.65" style="fill: rgb(255, 249, 174);"/>
  <g transform="matrix(0.220811, 0.191948, -0.222343, 0.255777, 462.851837, 436.797363)" style="">
    <g>
      <path d="m26 25.999h2v5h-2z" fill="#d76e31"/>
    </g>
    <g>
      <path d="m36 25.999h2v5h-2z" fill="#d76e31"/>
    </g>
    <g fill="#d76e31">
      <path d="m49 40 9-3 4-7-3-2-3 6-7.185 2.053"/>
      <path d="m15 40-9-3-4-7 3-2 3 6 7.08 2.023"/>
      <path d="m15 50-9 3-4 7 3 2 3-6 7.865-2.247"/>
      <path d="m49 50 9 3 4 7-3 2-3-6-7.693-2.198"/>
      <path d="m15.876 33.876c1.054-1.725 2.955-2.876 5.124-2.876 0-3.201-1.272-6.272-3.536-8.536l-.464-.464-.879.879c-1.123 1.123-2.576 1.839-4.131 2.053l.01.068c0 3.201 1.272 6.272 3.536 8.536z"/>
      <path d="m48.114 33.876c-1.054-1.725-2.954-2.876-5.123-2.876 0-3.201 1.272-6.272 3.536-8.536l.464-.464.879.879c1.123 1.123 2.576 1.839 4.131 2.053l-.01.068c0 3.201-1.272 6.272-3.536 8.536z"/>
      <path d="m17.867 14.379.155-.486c.63-3.149.063-6.419-1.589-9.172-.269-.447-.752-.721-1.274-.721-.681 0-1.275.464-1.44 1.125-.465 1.86-1.556 3.503-3.09 4.654l-1.836 1.357c.515.533 1.236.864 2.035.864h1.509c1.098 0 2.187.21 3.206.617.94.376 1.734.993 2.324 1.762z"/>
    </g>
    <path d="m19 17.723c0 1.458-.579 2.857-1.61 3.888l-1.268 1.268c-1.359 1.358-3.201 2.121-5.122 2.121-1.921 0-3.763-.763-5.121-2.121l-2.101-2.101c-1.138-1.138-1.778-2.683-1.778-4.293 0-5.433 2.158-10.643 6-14.485l1.293 1.293c.453.453.707 1.067.707 1.707 0 .64-.254 1.254-.707 1.707l-.465.465c-.53.53-.828 1.249-.828 2 0 1.562 1.266 2.828 2.828 2.828h1.509c1.098 0 2.187.21 3.206.617 2.088.835 3.457 2.857 3.457 5.106z" fill="#ee8041"/>
    <path d="m46.133 14.379-.155-.486c-.63-3.149-.063-6.419 1.589-9.172.269-.447.752-.721 1.274-.721.681 0 1.275.464 1.44 1.125.465 1.86 1.556 3.503 3.09 4.654l1.836 1.357c-.515.533-1.236.864-2.035.864h-1.509c-1.098 0-2.187.21-3.206.617-.94.376-1.734.993-2.324 1.762z" fill="#d76e31"/>
    <path d="m45 17.723c0 1.458.579 2.857 1.61 3.888l1.268 1.268c1.359 1.358 3.201 2.121 5.122 2.121 1.921 0 3.763-.763 5.121-2.121l2.101-2.101c1.138-1.138 1.778-2.683 1.778-4.293 0-5.433-2.158-10.643-6-14.485l-1.293 1.293c-.453.453-.707 1.067-.707 1.707 0 .64.254 1.254.707 1.707l.464.464c.53.53.828 1.25.828 2 .001 1.563-1.265 2.829-2.827 2.829h-1.509c-1.098 0-2.187.21-3.206.617-2.088.835-3.457 2.857-3.457 5.106z" fill="#ee8041"/>
    <path d="m43 57h-22c-3.314 0-6-2.686-6-6v-14c0-3.314 2.686-6 6-6h22c3.314 0 6 2.686 6 6v14c0 3.314-2.686 6-6 6z" fill="#ee8041"/>
    <path d="m27 27c-1.105 0-2-.895-2-2v-2c0-1.105.895-2 2-2 1.105 0 2 .895 2 2v2c0 1.105-.895 2-2 2z" fill="#d5cec2"/>
    <path d="m37 27c-1.105 0-2-.895-2-2v-2c0-1.105.895-2 2-2 1.105 0 2 .895 2 2v2c0 1.105-.895 2-2 2z" fill="#d5cec2"/>
    <path d="m15 42-9 3-4 7 3 2 3-6 7-2" fill="#d76e31"/>
    <path d="m49 42 9 3 4 7-3 2-3-6-7-2" fill="#d76e31"/>
    <g>
      <path d="m32 43.998c-1.584 0-3.073-.843-3.888-2.2-1.035-1.727-2.93-2.799-4.944-2.799h-5.169v-2h5.169c2.713 0 5.265 1.444 6.66 3.771.454.758 1.286 1.229 2.171 1.229.884 0 1.717-.471 2.171-1.229 1.396-2.326 3.947-3.771 6.659-3.771h5.169v2h-5.169c-2.014 0-3.908 1.072-4.943 2.799-.815 1.357-2.304 2.2-3.886 2.2z" fill="#d76e31"/>
    </g>
    <path d="m28.924 22.484c-.228-.853-.999-1.484-1.924-1.484-1.105 0-2 .895-2 2v2c0 .254.052.495.138.718 1.889-.065 3.443-1.43 3.786-3.234z" fill="#e7e4dd"/>
    <path d="m38.924 22.484c-.228-.853-.999-1.484-1.924-1.484-1.105 0-2 .895-2 2v2c0 .254.052.495.138.718 1.889-.065 3.443-1.43 3.786-3.234z" fill="#e7e4dd"/>
    <path d="m12.337 12h-1.509c-1.562 0-2.828-1.266-2.828-2.828 0-.75.298-1.47.828-2l.464-.464c.454-.454.708-1.068.708-1.708s-.254-1.254-.707-1.707l-1.293-1.293c-3.842 3.842-6 9.052-6 14.485 0 1.61.64 3.154 1.778 4.293l2.1 2.101c.331.331.692.626 1.075.884 3.656-2.868 6.389-6.853 7.687-11.444-.748-.208-1.522-.319-2.303-.319z" fill="#f19846"/>
    <path d="m13.719 5.125c-.465 1.86-1.556 3.503-3.09 4.654l-1.836 1.357c.515.533 1.236.864 2.035.864h1.509c.78 0 1.555.111 2.304.318.545-1.928.843-3.96.843-6.062 0-.752-.038-1.495-.111-2.228-.071-.011-.141-.028-.214-.028-.681 0-1.275.464-1.44 1.125z" fill="#ee8041"/>
    <path d="m54.707 3.293c-.453.453-.707 1.067-.707 1.707s.254 1.254.707 1.707l.464.464c.53.53.828 1.25.828 2 .001 1.563-1.265 2.829-2.827 2.829h-1.509c-1.098 0-2.187.21-3.206.617-2.088.835-3.457 2.857-3.457 5.106 0 1.458.579 2.857 1.61 3.888l1.268 1.268c.099.099.206.188.31.281 5.325-1.866 9.151-6.922 9.151-12.884 0-2.736-.813-5.279-2.198-7.416z" fill="#f19846"/>
  </g>
  <g transform="matrix(0.159349, 0.245376, -0.284231, 0.184583, 469.394104, 276.898773)" style="">
    <g>
      <path d="m26 25.999h2v5h-2z" fill="#d76e31"/>
    </g>
    <g>
      <path d="m36 25.999h2v5h-2z" fill="#d76e31"/>
    </g>
    <g fill="#d76e31">
      <path d="m49 40 9-3 4-7-3-2-3 6-7.185 2.053"/>
      <path d="m15 40-9-3-4-7 3-2 3 6 7.08 2.023"/>
      <path d="m15 50-9 3-4 7 3 2 3-6 7.865-2.247"/>
      <path d="m49 50 9 3 4 7-3 2-3-6-7.693-2.198"/>
      <path d="m15.876 33.876c1.054-1.725 2.955-2.876 5.124-2.876 0-3.201-1.272-6.272-3.536-8.536l-.464-.464-.879.879c-1.123 1.123-2.576 1.839-4.131 2.053l.01.068c0 3.201 1.272 6.272 3.536 8.536z"/>
      <path d="m48.114 33.876c-1.054-1.725-2.954-2.876-5.123-2.876 0-3.201 1.272-6.272 3.536-8.536l.464-.464.879.879c1.123 1.123 2.576 1.839 4.131 2.053l-.01.068c0 3.201-1.272 6.272-3.536 8.536z"/>
      <path d="m17.867 14.379.155-.486c.63-3.149.063-6.419-1.589-9.172-.269-.447-.752-.721-1.274-.721-.681 0-1.275.464-1.44 1.125-.465 1.86-1.556 3.503-3.09 4.654l-1.836 1.357c.515.533 1.236.864 2.035.864h1.509c1.098 0 2.187.21 3.206.617.94.376 1.734.993 2.324 1.762z"/>
    </g>
    <path d="m19 17.723c0 1.458-.579 2.857-1.61 3.888l-1.268 1.268c-1.359 1.358-3.201 2.121-5.122 2.121-1.921 0-3.763-.763-5.121-2.121l-2.101-2.101c-1.138-1.138-1.778-2.683-1.778-4.293 0-5.433 2.158-10.643 6-14.485l1.293 1.293c.453.453.707 1.067.707 1.707 0 .64-.254 1.254-.707 1.707l-.465.465c-.53.53-.828 1.249-.828 2 0 1.562 1.266 2.828 2.828 2.828h1.509c1.098 0 2.187.21 3.206.617 2.088.835 3.457 2.857 3.457 5.106z" fill="#ee8041"/>
    <path d="m46.133 14.379-.155-.486c-.63-3.149-.063-6.419 1.589-9.172.269-.447.752-.721 1.274-.721.681 0 1.275.464 1.44 1.125.465 1.86 1.556 3.503 3.09 4.654l1.836 1.357c-.515.533-1.236.864-2.035.864h-1.509c-1.098 0-2.187.21-3.206.617-.94.376-1.734.993-2.324 1.762z" fill="#d76e31"/>
    <path d="m45 17.723c0 1.458.579 2.857 1.61 3.888l1.268 1.268c1.359 1.358 3.201 2.121 5.122 2.121 1.921 0 3.763-.763 5.121-2.121l2.101-2.101c1.138-1.138 1.778-2.683 1.778-4.293 0-5.433-2.158-10.643-6-14.485l-1.293 1.293c-.453.453-.707 1.067-.707 1.707 0 .64.254 1.254.707 1.707l.464.464c.53.53.828 1.25.828 2 .001 1.563-1.265 2.829-2.827 2.829h-1.509c-1.098 0-2.187.21-3.206.617-2.088.835-3.457 2.857-3.457 5.106z" fill="#ee8041"/>
    <path d="m43 57h-22c-3.314 0-6-2.686-6-6v-14c0-3.314 2.686-6 6-6h22c3.314 0 6 2.686 6 6v14c0 3.314-2.686 6-6 6z" fill="#ee8041"/>
    <path d="m27 27c-1.105 0-2-.895-2-2v-2c0-1.105.895-2 2-2 1.105 0 2 .895 2 2v2c0 1.105-.895 2-2 2z" fill="#d5cec2"/>
    <path d="m37 27c-1.105 0-2-.895-2-2v-2c0-1.105.895-2 2-2 1.105 0 2 .895 2 2v2c0 1.105-.895 2-2 2z" fill="#d5cec2"/>
    <path d="m15 42-9 3-4 7 3 2 3-6 7-2" fill="#d76e31"/>
    <path d="m49 42 9 3 4 7-3 2-3-6-7-2" fill="#d76e31"/>
    <g>
      <path d="m32 43.998c-1.584 0-3.073-.843-3.888-2.2-1.035-1.727-2.93-2.799-4.944-2.799h-5.169v-2h5.169c2.713 0 5.265 1.444 6.66 3.771.454.758 1.286 1.229 2.171 1.229.884 0 1.717-.471 2.171-1.229 1.396-2.326 3.947-3.771 6.659-3.771h5.169v2h-5.169c-2.014 0-3.908 1.072-4.943 2.799-.815 1.357-2.304 2.2-3.886 2.2z" fill="#d76e31"/>
    </g>
    <path d="m28.924 22.484c-.228-.853-.999-1.484-1.924-1.484-1.105 0-2 .895-2 2v2c0 .254.052.495.138.718 1.889-.065 3.443-1.43 3.786-3.234z" fill="#e7e4dd"/>
    <path d="m38.924 22.484c-.228-.853-.999-1.484-1.924-1.484-1.105 0-2 .895-2 2v2c0 .254.052.495.138.718 1.889-.065 3.443-1.43 3.786-3.234z" fill="#e7e4dd"/>
    <path d="m12.337 12h-1.509c-1.562 0-2.828-1.266-2.828-2.828 0-.75.298-1.47.828-2l.464-.464c.454-.454.708-1.068.708-1.708s-.254-1.254-.707-1.707l-1.293-1.293c-3.842 3.842-6 9.052-6 14.485 0 1.61.64 3.154 1.778 4.293l2.1 2.101c.331.331.692.626 1.075.884 3.656-2.868 6.389-6.853 7.687-11.444-.748-.208-1.522-.319-2.303-.319z" fill="#f19846"/>
    <path d="m13.719 5.125c-.465 1.86-1.556 3.503-3.09 4.654l-1.836 1.357c.515.533 1.236.864 2.035.864h1.509c.78 0 1.555.111 2.304.318.545-1.928.843-3.96.843-6.062 0-.752-.038-1.495-.111-2.228-.071-.011-.141-.028-.214-.028-.681 0-1.275.464-1.44 1.125z" fill="#ee8041"/>
    <path d="m54.707 3.293c-.453.453-.707 1.067-.707 1.707s.254 1.254.707 1.707l.464.464c.53.53.828 1.25.828 2 .001 1.563-1.265 2.829-2.827 2.829h-1.509c-1.098 0-2.187.21-3.206.617-2.088.835-3.457 2.857-3.457 5.106 0 1.458.579 2.857 1.61 3.888l1.268 1.268c.099.099.206.188.31.281 5.325-1.866 9.151-6.922 9.151-12.884 0-2.736-.813-5.279-2.198-7.416z" fill="#f19846"/>
  </g>
  <g transform="matrix(-0.167815, 0.239665, -0.277617, -0.194389, 480.516785, 71.215508)" style="">
    <g>
      <path d="m26 25.999h2v5h-2z" fill="#d76e31"/>
    </g>
    <g>
      <path d="m36 25.999h2v5h-2z" fill="#d76e31"/>
    </g>
    <g fill="#d76e31">
      <path d="m49 40 9-3 4-7-3-2-3 6-7.185 2.053"/>
      <path d="m15 40-9-3-4-7 3-2 3 6 7.08 2.023"/>
      <path d="m15 50-9 3-4 7 3 2 3-6 7.865-2.247"/>
      <path d="m49 50 9 3 4 7-3 2-3-6-7.693-2.198"/>
      <path d="m15.876 33.876c1.054-1.725 2.955-2.876 5.124-2.876 0-3.201-1.272-6.272-3.536-8.536l-.464-.464-.879.879c-1.123 1.123-2.576 1.839-4.131 2.053l.01.068c0 3.201 1.272 6.272 3.536 8.536z"/>
      <path d="m48.114 33.876c-1.054-1.725-2.954-2.876-5.123-2.876 0-3.201 1.272-6.272 3.536-8.536l.464-.464.879.879c1.123 1.123 2.576 1.839 4.131 2.053l-.01.068c0 3.201-1.272 6.272-3.536 8.536z"/>
      <path d="m17.867 14.379.155-.486c.63-3.149.063-6.419-1.589-9.172-.269-.447-.752-.721-1.274-.721-.681 0-1.275.464-1.44 1.125-.465 1.86-1.556 3.503-3.09 4.654l-1.836 1.357c.515.533 1.236.864 2.035.864h1.509c1.098 0 2.187.21 3.206.617.94.376 1.734.993 2.324 1.762z"/>
    </g>
    <path d="m19 17.723c0 1.458-.579 2.857-1.61 3.888l-1.268 1.268c-1.359 1.358-3.201 2.121-5.122 2.121-1.921 0-3.763-.763-5.121-2.121l-2.101-2.101c-1.138-1.138-1.778-2.683-1.778-4.293 0-5.433 2.158-10.643 6-14.485l1.293 1.293c.453.453.707 1.067.707 1.707 0 .64-.254 1.254-.707 1.707l-.465.465c-.53.53-.828 1.249-.828 2 0 1.562 1.266 2.828 2.828 2.828h1.509c1.098 0 2.187.21 3.206.617 2.088.835 3.457 2.857 3.457 5.106z" fill="#ee8041"/>
    <path d="m46.133 14.379-.155-.486c-.63-3.149-.063-6.419 1.589-9.172.269-.447.752-.721 1.274-.721.681 0 1.275.464 1.44 1.125.465 1.86 1.556 3.503 3.09 4.654l1.836 1.357c-.515.533-1.236.864-2.035.864h-1.509c-1.098 0-2.187.21-3.206.617-.94.376-1.734.993-2.324 1.762z" fill="#d76e31"/>
    <path d="m45 17.723c0 1.458.579 2.857 1.61 3.888l1.268 1.268c1.359 1.358 3.201 2.121 5.122 2.121 1.921 0 3.763-.763 5.121-2.121l2.101-2.101c1.138-1.138 1.778-2.683 1.778-4.293 0-5.433-2.158-10.643-6-14.485l-1.293 1.293c-.453.453-.707 1.067-.707 1.707 0 .64.254 1.254.707 1.707l.464.464c.53.53.828 1.25.828 2 .001 1.563-1.265 2.829-2.827 2.829h-1.509c-1.098 0-2.187.21-3.206.617-2.088.835-3.457 2.857-3.457 5.106z" fill="#ee8041"/>
    <path d="m43 57h-22c-3.314 0-6-2.686-6-6v-14c0-3.314 2.686-6 6-6h22c3.314 0 6 2.686 6 6v14c0 3.314-2.686 6-6 6z" fill="#ee8041"/>
    <path d="m27 27c-1.105 0-2-.895-2-2v-2c0-1.105.895-2 2-2 1.105 0 2 .895 2 2v2c0 1.105-.895 2-2 2z" fill="#d5cec2"/>
    <path d="m37 27c-1.105 0-2-.895-2-2v-2c0-1.105.895-2 2-2 1.105 0 2 .895 2 2v2c0 1.105-.895 2-2 2z" fill="#d5cec2"/>
    <path d="m15 42-9 3-4 7 3 2 3-6 7-2" fill="#d76e31"/>
    <path d="m49 42 9 3 4 7-3 2-3-6-7-2" fill="#d76e31"/>
    <g>
      <path d="m32 43.998c-1.584 0-3.073-.843-3.888-2.2-1.035-1.727-2.93-2.799-4.944-2.799h-5.169v-2h5.169c2.713 0 5.265 1.444 6.66 3.771.454.758 1.286 1.229 2.171 1.229.884 0 1.717-.471 2.171-1.229 1.396-2.326 3.947-3.771 6.659-3.771h5.169v2h-5.169c-2.014 0-3.908 1.072-4.943 2.799-.815 1.357-2.304 2.2-3.886 2.2z" fill="#d76e31"/>
    </g>
    <path d="m28.924 22.484c-.228-.853-.999-1.484-1.924-1.484-1.105 0-2 .895-2 2v2c0 .254.052.495.138.718 1.889-.065 3.443-1.43 3.786-3.234z" fill="#e7e4dd"/>
    <path d="m38.924 22.484c-.228-.853-.999-1.484-1.924-1.484-1.105 0-2 .895-2 2v2c0 .254.052.495.138.718 1.889-.065 3.443-1.43 3.786-3.234z" fill="#e7e4dd"/>
    <path d="m12.337 12h-1.509c-1.562 0-2.828-1.266-2.828-2.828 0-.75.298-1.47.828-2l.464-.464c.454-.454.708-1.068.708-1.708s-.254-1.254-.707-1.707l-1.293-1.293c-3.842 3.842-6 9.052-6 14.485 0 1.61.64 3.154 1.778 4.293l2.1 2.101c.331.331.692.626 1.075.884 3.656-2.868 6.389-6.853 7.687-11.444-.748-.208-1.522-.319-2.303-.319z" fill="#f19846"/>
    <path d="m13.719 5.125c-.465 1.86-1.556 3.503-3.09 4.654l-1.836 1.357c.515.533 1.236.864 2.035.864h1.509c.78 0 1.555.111 2.304.318.545-1.928.843-3.96.843-6.062 0-.752-.038-1.495-.111-2.228-.071-.011-.141-.028-.214-.028-.681 0-1.275.464-1.44 1.125z" fill="#ee8041"/>
    <path d="m54.707 3.293c-.453.453-.707 1.067-.707 1.707s.254 1.254.707 1.707l.464.464c.53.53.828 1.25.828 2 .001 1.563-1.265 2.829-2.827 2.829h-1.509c-1.098 0-2.187.21-3.206.617-2.088.835-3.457 2.857-3.457 5.106 0 1.458.579 2.857 1.61 3.888l1.268 1.268c.099.099.206.188.31.281 5.325-1.866 9.151-6.922 9.151-12.884 0-2.736-.813-5.279-2.198-7.416z" fill="#f19846"/>
  </g>
  <g transform="matrix(0.014461, -0.102899, 0.111883, 0.015724, 438.928253, 187.948212)" style="">
    <path style="fill:#5AAAE7;" d="M160.806,50.882c-4.183,0-7.574-3.39-7.574-7.574V7.574c0-4.184,3.391-7.574,7.574-7.574 s7.574,3.39,7.574,7.574v35.734C168.38,47.491,164.989,50.882,160.806,50.882z"/>
    <path style="fill:#5AAAE7;" d="M204.274,50.882c-4.183,0-7.574-3.39-7.574-7.574V7.574C196.7,3.39,200.091,0,204.274,0 s7.574,3.39,7.574,7.574v35.734C211.848,47.491,208.456,50.882,204.274,50.882z"/>
    <path style="fill:#5AAAE7;" d="M247.741,50.882c-4.183,0-7.574-3.39-7.574-7.574V7.574c0-4.184,3.391-7.574,7.574-7.574 c4.184,0,7.574,3.39,7.574,7.574v35.734C255.315,47.491,251.925,50.882,247.741,50.882z"/>
    <path style="fill:#5AAAE7;" d="M291.21,50.882c-4.184,0-7.574-3.39-7.574-7.574V7.574c0-4.184,3.39-7.574,7.574-7.574 s7.574,3.39,7.574,7.574v35.734C298.784,47.491,295.393,50.882,291.21,50.882z"/>
    <path style="fill:#5AAAE7;" d="M334.677,50.882c-4.184,0-7.574-3.39-7.574-7.574V7.574c0-4.184,3.39-7.574,7.574-7.574 c4.184,0,7.574,3.39,7.574,7.574v35.734C342.251,47.491,338.861,50.882,334.677,50.882z"/>
    <path style="fill:#5AAAE7;" d="M160.806,512c-4.183,0-7.574-3.39-7.574-7.574v-35.734c0-4.184,3.391-7.574,7.574-7.574 s7.574,3.39,7.574,7.574v35.734C168.38,508.61,164.989,512,160.806,512z"/>
    <path style="fill:#5AAAE7;" d="M204.274,512c-4.183,0-7.574-3.39-7.574-7.574v-35.734c0-4.184,3.391-7.574,7.574-7.574 s7.574,3.39,7.574,7.574v35.734C211.848,508.61,208.456,512,204.274,512z"/>
    <path style="fill:#5AAAE7;" d="M247.741,512c-4.183,0-7.574-3.39-7.574-7.574v-35.734c0-4.184,3.391-7.574,7.574-7.574 c4.184,0,7.574,3.39,7.574,7.574v35.734C255.315,508.61,251.925,512,247.741,512z"/>
    <path style="fill:#5AAAE7;" d="M291.21,512c-4.184,0-7.574-3.39-7.574-7.574v-35.734c0-4.184,3.39-7.574,7.574-7.574 s7.574,3.39,7.574,7.574v35.734C298.784,508.61,295.393,512,291.21,512z"/>
    <path style="fill:#5AAAE7;" d="M334.677,512c-4.184,0-7.574-3.39-7.574-7.574v-35.734c0-4.184,3.39-7.574,7.574-7.574 c4.184,0,7.574,3.39,7.574,7.574v35.734C342.251,508.61,338.861,512,334.677,512z"/>
    <path style="fill:#5AAAE7;" d="M119.914,0c-4.183,0-7.574,3.39-7.574,7.574v35.734c0,4.184,3.391,7.574,7.574,7.574 s7.574-3.39,7.574-7.574V7.574C127.488,3.39,124.097,0,119.914,0z"/>
    <path style="fill:#5AAAE7;" d="M380.72,0c-4.184,0-7.574,3.39-7.574,7.574v35.734c0,4.184,3.39,7.574,7.574,7.574 s7.574-3.39,7.574-7.574V7.574C388.294,3.39,384.904,0,380.72,0z"/>
    <path style="fill:#5AAAE7;" d="M119.914,461.118c-4.183,0-7.574,3.39-7.574,7.574v35.734c0,4.184,3.391,7.574,7.574,7.574 s7.574-3.39,7.574-7.574v-35.734C127.488,464.509,124.097,461.118,119.914,461.118z"/>
    <path style="fill:#5AAAE7;" d="M380.72,461.118c-4.184,0-7.574,3.39-7.574,7.574v35.734c0,4.184,3.39,7.574,7.574,7.574 s7.574-3.39,7.574-7.574v-35.734C388.294,464.509,384.904,461.118,380.72,461.118z"/>
    <path style="fill:#5AAAE7;" d="M388.295,43.303v425.394c0,4.181-3.393,7.574-7.574,7.574H119.914c-4.181,0-7.574-3.393-7.574-7.574 V43.303c0-4.181,3.393-7.574,7.574-7.574h260.807C384.902,35.729,388.295,39.122,388.295,43.303z"/>
  </g>
  <path style="fill: rgb(120, 185, 235);" d="M 483.702 140.085 L 483.702 188.147 C 483.702 188.62 483.349 189.003 482.914 189.003 L 459.269 189.003 L 459.269 139.229 L 482.914 139.229 C 483.349 139.229 483.702 139.612 483.702 140.085 Z" transform="matrix(0.139173, -0.990268, 0.990268, 0.139173, 243.348743, 608.172603)"/>
  <rect x="453.77" y="126.993" style="fill: rgb(255, 228, 119);" width="28.675" height="40.345" transform="matrix(0.139173, -0.990268, 0.990268, 0.139173, 259.986694, 609.24115)"/>
  <rect x="453.77" y="126.993" style="fill: rgb(255, 212, 34);" width="4.243" height="40.345" transform="matrix(0.139173, -0.990268, 0.990268, 0.139173, 259.986694, 609.24115)"/>
  <rect x="453.77" y="140.817" style="fill: rgb(255, 167, 51);" width="28.675" height="12.699" transform="matrix(0.139173, -0.990268, 0.990268, 0.139173, 259.986694, 609.24115)"/>
  <rect x="453.77" y="140.817" style="fill: rgb(238, 135, 0);" width="4.243" height="12.699" transform="matrix(0.139173, -0.990268, 0.990268, 0.139173, 259.986694, 609.24115)"/>
  <g transform="matrix(0.014461, -0.102899, 0.111883, 0.015724, 438.928253, 187.948212)" style="">
    <path style="fill:#FF7956;" d="M451.623,370.7c-1.404,2.262-4.07,3.726-7.17,3.181l-12.027-2.131 c-15.542-2.747-31.326,3.393-40.92,15.936l-7.423,9.695c-3.807,4.969-11.704,2.888-12.573-3.302l-1.697-12.098 c-2.181-15.633-12.906-28.741-27.791-33.992l-11.523-4.06c-5.887-2.08-6.362-10.24-0.737-12.977l10.987-5.352 c14.189-6.907,23.348-21.157,23.732-36.941l0.313-12.209c0.151-6.251,7.766-9.21,12.108-4.716l8.483,8.796 c2.464,2.555,5.201,4.756,8.15,6.574c10.119,6.281,22.591,8.079,34.315,4.595l11.704-3.494c5.999-1.777,11.169,4.544,8.23,10.068 l-5.746,10.775c-7.412,13.936-6.453,30.841,2.504,43.848l6.938,10.058C453.239,365.509,453.037,368.489,451.623,370.7z"/>
    <path style="fill:#FF7956;" d="M180.96,161.83l-10.937,5.443c-14.128,7.039-23.156,21.359-23.419,37.143l-0.192,12.219 c-0.101,6.251-7.695,9.281-12.068,4.817l-8.564-8.725c-4.989-5.07-11.058-8.705-17.602-10.745 c-7.978-2.474-16.663-2.585-24.954-0.04l-11.684,3.585c-5.968,1.828-11.199-4.443-8.311-9.988l5.645-10.836 c7.301-13.997,6.19-30.892-2.878-43.818l-7.029-9.998c-3.585-5.12,0.767-12.027,6.938-10.987l12.048,2.02 c15.562,2.616,31.296-3.666,40.778-16.289l7.342-9.765c3.757-4.989,11.674-2.989,12.593,3.201l1.798,12.078 c0.798,5.332,2.585,10.371,5.201,14.885c5.009,8.705,13.058,15.491,22.894,18.864l11.553,3.969 C186.019,150.894,186.565,159.043,180.96,161.83z"/>
  </g>
  <g transform="matrix(0.014461, -0.102899, 0.111883, 0.015724, 438.928253, 187.948212)" style="">
    <path style="fill:#FF9478;" d="M180.96,161.83l-10.937,5.443c-14.128,7.039-23.156,21.359-23.419,37.143l-0.192,12.219 c-0.101,6.251-7.695,9.281-12.068,4.817l-8.564-8.725c-4.989-5.07-11.058-8.705-17.602-10.745 c-2.474-6.423-3.837-13.411-3.837-20.712c0-26.145,17.44-48.231,41.324-55.239c5.009,8.705,13.058,15.491,22.894,18.864 l11.553,3.969C186.019,150.894,186.565,159.043,180.96,161.83z"/>
    <path style="fill:#FF9478;" d="M451.623,370.7c-2.282,0.283-4.605,0.424-6.958,0.424c-31.79,0-57.562-25.772-57.562-57.562 c0-9.543,2.323-18.541,6.433-26.458c10.119,6.281,22.591,8.079,34.315,4.595l11.704-3.494c5.999-1.777,11.169,4.544,8.23,10.068 l-5.746,10.775c-7.412,13.936-6.453,30.841,2.504,43.848l6.938,10.058C453.239,365.509,453.037,368.489,451.623,370.7z"/>
  </g>
  <g transform="matrix(0.014461, -0.102899, 0.111883, 0.015724, 438.928253, 187.948212)" style="">
    <path style="fill:#FF5023;" d="M453.215,363.458l-46.691-30.846l42.699-36.161c3.192-2.703,3.589-7.482,0.886-10.674 c-2.703-3.192-7.482-3.589-10.674-0.886l-42.159,35.703l-18.598-47.816c-1.517-3.897-5.905-5.826-9.805-4.313 c-3.898,1.517-5.829,5.907-4.313,9.805l18.471,47.492l-53.023,3.809c-4.173,0.3-7.311,3.925-7.011,8.097 c0.286,3.988,3.61,7.032,7.547,7.032c0.183,0,0.366-0.006,0.55-0.02l52.596-3.779l-13.047,55.418 c-0.958,4.072,1.565,8.15,5.637,9.109c0.584,0.137,1.167,0.203,1.743,0.203c3.434,0,6.544-2.352,7.366-5.84l12.833-54.509 l46.647,30.817c1.285,0.849,2.735,1.255,4.168,1.255c2.459,0,4.87-1.196,6.327-3.4 C457.666,370.463,456.705,365.764,453.215,363.458z"/>
    <path style="fill:#FF5023;" d="M181.934,146.089l-55.055,4.583l12.627-49.728c1.029-4.055-1.423-8.176-5.477-9.205 c-4.055-1.028-8.176,1.423-9.205,5.477l-12.541,49.39l-45.379-27.691c-3.572-2.177-8.231-1.049-10.411,2.521 c-2.178,3.57-1.05,8.23,2.521,10.411l45.013,27.467l-42.804,37.539c-3.145,2.758-3.458,7.544-0.7,10.688 c1.498,1.707,3.592,2.58,5.698,2.58c1.772,0,3.554-0.619,4.991-1.879l42.102-36.924l20.08,52.176 c1.158,3.009,4.027,4.856,7.07,4.856c0.905,0,1.825-0.163,2.719-0.507c3.904-1.503,5.85-5.885,4.348-9.789l-20.099-52.226 l55.761-4.641c4.169-0.347,7.267-4.008,6.92-8.177C189.764,148.842,186.101,145.746,181.934,146.089z"/>
  </g>
  <g id="XMLID_748_" transform="matrix(0.032785, 0.020486, -0.021724, 0.034765, 469.521667, 176.34082)" style="">
    <g id="COLORS_17_">
      <g id="XMLID_696_">
        <path id="XMLID_569_" d="m227.888 181.564c4.959-14.552 8.906-29.333 8.906-45.085 0-63.123-50.646-114.295-113.122-114.295-61.177 0-106.94 47.101-113.479 114.283-9.128 93.783 5.389 193.594 36.689 280.776 4.741 13.206 9.998 26.386 17.934 37.479 13.664 19.101 37.45 28.766 58.857 28.766 42.83 0 76.882-32.507 81.675-80.512 2.303-23.068-.629-46.33-1.82-69.505-1.724-33.539.314-67.5 7.412-100.183 3.85-17.732 11.102-34.569 16.948-51.724z" fill="#f072ae"/>
        <path d="m123.672 22.184c-3.049 0-6.059.122-9.028.353 52.732 5.886 102.15 53.687 102.15 107.362 0 14.559-4.185 28.803-8.279 40.819-1.713 5.026-3.535 9.995-5.462 15.256-4.865 13.274-9.896 27-13.093 41.726-7.518 34.615-10.304 72.102-8.284 111.417.324 6.305.767 12.621 1.195 18.731 1.261 18.006 2.453 35.014.804 51.521-1.971 19.739-9.513 36.522-21.813 48.534-11.723 11.448-29.322 25.161-46.027 25.161 2.633.282 5.254.426 7.839.426 42.83 0 76.882-32.507 81.675-80.512 2.303-23.068-.628-46.33-1.82-69.505-1.724-33.539.314-67.5 7.412-100.183 3.851-17.734 11.103-34.571 16.949-51.726 4.959-14.552 8.906-29.333 8.906-45.085-.003-63.123-50.649-114.294-113.124-114.295z" fill="#ff3f62"/>
        <path id="XMLID_649_" d="m227.888 181.564c4.959-14.552 8.906-29.334 8.906-45.084 0-9.829-1.229-19.369-3.539-28.47l-212.945 212.944c5.668 28.597 13.123 56.627 22.169 83.571l167.734-167.734c.24-1.167.472-2.337.725-3.501 3.852-17.734 11.104-34.571 16.95-51.726z" fill="#71e4bf"/>
        <path d="m236.741 133.113c-.245-8.534-1.598-16.798-3.486-25.103l-16.623 16.623c2.76 46.028-27.033 92.367-32.563 138.304l26.146-26.146c7.18-34.934 27.573-67.206 26.526-103.678z" fill="#0ea8b2"/>
      </g>
      <g id="XMLID_707_">
        <path id="XMLID_727_" d="m277.821 181.564c-4.959-14.552-8.906-29.333-8.906-45.085 0-63.123 50.646-114.295 113.122-114.295 61.177 0 106.94 47.101 113.479 114.283 9.128 93.783-5.389 193.594-36.689 280.776-4.741 13.206-9.998 26.386-17.934 37.479-13.664 19.101-37.45 28.766-58.857 28.766-42.83 0-76.882-32.507-81.675-80.512-2.303-23.068.629-46.33 1.82-69.505 1.724-33.539-.314-67.5-7.412-100.183-3.85-17.732-11.102-34.569-16.948-51.724z" fill="#71e4bf"/>
        <path d="m382.037 22.184c3.049 0 6.059.122 9.028.353-52.732 5.886-102.15 53.687-102.15 107.362 0 14.559 4.185 28.803 8.279 40.819 1.713 5.026 3.535 9.995 5.462 15.256 4.865 13.274 9.896 27 13.093 41.726 7.518 34.615 10.304 72.102 8.284 111.417-.324 6.305-.767 12.621-1.195 18.731-1.261 18.006-2.453 35.014-.804 51.521 1.971 19.739 9.513 36.522 21.813 48.534 11.723 11.448 29.322 25.161 46.027 25.161-2.633.282-5.254.426-7.839.426-42.83 0-76.882-32.507-81.675-80.512-2.303-23.068.628-46.33 1.82-69.505 1.724-33.539-.314-67.5-7.412-100.183-3.851-17.734-11.103-34.571-16.949-51.726-4.959-14.552-8.906-29.333-8.906-45.085.003-63.123 50.649-114.294 113.124-114.295z" fill="#0ea8b2"/>
        <path id="XMLID_717_" d="m277.821 181.564c-4.959-14.552-8.906-29.334-8.906-45.084 0-9.829 1.229-19.369 3.539-28.47l212.944 212.944c-5.668 28.597-13.123 56.627-22.169 83.571l-167.734-167.734c-.24-1.167-.472-2.337-.725-3.501-3.851-17.734-11.103-34.571-16.949-51.726z" fill="#fff"/>
        <path d="m268.968 133.113c.245-8.534 1.599-16.798 3.486-25.103l16.623 16.623c-2.76 46.028 27.033 92.367 32.563 138.304l-26.146-26.146c-7.18-34.934-27.572-67.206-26.526-103.678z" fill="#a7eed4"/>
      </g>
    </g>
    <g id="LINES_18_">
      <path d="m15 194.496-15 .038c.013 5.032.088 10.139.223 15.18l14.994-.4c-.131-4.922-.204-9.907-.217-14.818z"/>
      <g fill="#fff">
        <path d="m42.732 107.915 14.094 5.137c1.616-4.436 3.527-8.697 5.681-12.665l-13.186-7.153c-2.503 4.615-4.719 9.554-6.589 14.681z"/>
        <path d="m35.804 138.96 14.93 1.453c.46-4.727 1.198-9.409 2.193-13.917l-14.646-3.235c-1.126 5.094-1.959 10.376-2.477 15.699z"/>
        <path d="m75.436 82.741c.866-.877 2.329-2.25 4.014-3.765l-10.034-11.152c-1.359 1.224-3.271 2.977-4.655 4.379-2.28 2.31-4.481 4.812-6.541 7.437l11.799 9.26c1.71-2.179 3.533-4.251 5.417-6.159z"/>
      </g>
      <path d="m244.197 131.846c-.494-13.217-7.495-37.89-7.495-37.89-21.258-57.422-84.229-91.088-143.734-75.379-30.908 8.159-56.589 29.639-72.135 57.327-17.738 31.593-19.903 67.994-20.685 103.447l14.996.331c1.314-59.658 14.51-128.265 81.111-146.413 54.77-14.925 112.541 18.51 128.591 72.542l-60.885 60.885c-12.905-18.105-24.198-28.998-29.331-33.539v-21.32h-15v19.983c-52.434 25.197-82.708 82.87-100.157 135.669-1.411-11.925-2.519-23.884-3.264-35.87l-7.485.465 7.485-.466c-.155-2.498-.296-4.995-.422-7.493l-14.98.753c.128 2.557.272 5.114.432 7.671 1.789 28.828 5.519 57.534 10.974 85.896l-.037.037c6.699 33.99 16.03 67.094 27.048 99.906l.085-.085c12.001 33.697 29.778 63.132 67.307 70.926 29.581 6.144 60.799-4.063 81.072-26.385 24.28-26.733 27.283-62.193 25.457-96.704-2.242-42.379-4.367-83.651 3.955-125.63l.007-.007c7.206-36.826 28.532-70.185 27.09-108.657zm-219.36 172.292c2.998-13.692 29.215-124.032 101.008-158.679 5.109 4.713 15.509 15.204 27.274 32.08l-128.037 128.037c-.085-.479-.161-.959-.245-1.438zm19.809 82.597c-6.425-20.837-11.791-41.99-16.157-63.354l133.014-133.013c9.335 15.231 18.93 34.305 27.037 57.49l-142.704 142.704c-.4-1.273-.796-2.549-1.19-3.827zm153.238 15.497c-3.449 34.538-26.046 66.497-61.645 72.67-19.354 3.356-40.02-1.43-55.295-13.996-16.326-13.43-23.233-35.084-29.861-54.378l142.618-142.618c1.142 3.885 2.235 7.877 3.279 11.964-3.708 42.193 5.091 84.439.904 126.358zm24.477-227.823c-6.304 19.567-14.893 38.452-19.044 58.672l-3.034 3.034c-8.501-22.836-18.312-41.637-27.811-56.716l56.024-56.024c2.119 17.377-.792 34.453-6.135 51.034z"/>
      <path d="m490.709 194.496c-.013 4.911-.086 9.896-.217 14.816l14.994.401c.135-5.041.21-10.148.223-15.18z"/>
      <path d="m489.803 226.388c-.739 13.736-1.95 27.44-3.567 41.101-17.445-52.79-47.713-110.452-100.132-135.656v-19.996h-15v21.297c-5.121 4.527-16.43 15.426-29.358 33.562l-60.885-60.885c16.081-54.133 73.782-87.331 128.591-72.542 66.615 17.975 79.8 86.889 81.111 146.413l14.996-.33c-.766-34.735-2.81-70.375-19.664-101.557-15.448-28.581-41.507-50.863-73.156-59.218-59.503-15.709-122.473 17.955-143.732 75.379 0 0-8.328 31.126-7.455 47.813 1.81 34.616 20.538 65.132 27.05 98.735l.007.007c8.32 41.97 6.173 83.262 3.955 125.63-1.807 34.52 1.166 69.959 25.457 96.704 20.273 22.321 51.491 32.528 81.072 26.385 37.588-7.806 55.294-37.196 67.307-70.926l.085.085c11.018-32.814 20.349-65.913 27.048-99.906l-.038-.037c5.941-30.886 9.791-62.157 11.405-93.569l-14.98-.748zm-204.882-47.243c-6.153-18.055-10.036-36.677-7.709-55.771l56.024 56.024c-9.499 15.079-19.31 33.88-27.811 56.716l-3.034-3.034c-3.813-18.577-11.378-36.054-17.47-53.935zm183.601 181.51c-2.652 10.036-5.534 20.005-8.65 29.907l-142.694-142.695c8.107-23.141 17.716-42.216 27.068-57.459l132.974 132.974c-2.558 12.517-5.452 24.964-8.698 37.273zm-16.752 54.055c-10.199 28.405-24.422 53.521-56.41 59.938-24.107 4.836-49.406-3.7-65.965-21.755-18.535-20.209-22.811-47.004-22.321-73.491.642-34.716 4.712-68.737 1.655-103.526 1.044-4.086 2.137-8.078 3.281-11.964l142.616 142.617c-.94 2.735-1.883 5.469-2.856 8.181zm-99.137-237.129c11.754-16.862 22.146-27.387 27.245-32.116 71.781 34.655 97.996 144.982 100.994 158.673-.083.479-.16.959-.245 1.438z"/>
      <g fill="#fff">
        <path d="m469.905 138.96c-.519-5.324-1.352-10.605-2.477-15.699l-14.646 3.235c.995 4.508 1.733 9.19 2.193 13.917z"/>
        <path d="m436.293 67.824-10.033 11.151c1.685 1.515 3.147 2.888 4.015 3.767 1.883 1.907 3.705 3.979 5.416 6.158l11.799-9.261c-2.06-2.625-4.261-5.126-6.54-7.435-1.386-1.403-3.298-3.156-4.657-4.38z"/>
        <path d="m462.977 107.915c-1.869-5.127-4.086-10.066-6.589-14.681l-13.186 7.153c2.153 3.968 4.064 8.229 5.681 12.665z"/>
      </g>
    </g>
  </g>
</svg>