<?xml version="1.0" encoding="utf-8"?>
<svg viewBox="0 0 500 500" xmlns="http://www.w3.org/2000/svg" xmlns:bx="https://boxy-svg.com">
  <defs>
    <filter id="brightness-filter-0" x="-500%" y="-500%" width="1000%" height="1000%" bx:preset="brightness 1 1.5">
      <feComponentTransfer>
        <feFuncR type="linear" slope="1.5"/>
        <feFuncG type="linear" slope="1.5"/>
        <feFuncB type="linear" slope="1.5"/>
      </feComponentTransfer>
    </filter>
    <linearGradient gradientUnits="userSpaceOnUse" x1="442.907" y1="17.091" x2="442.907" y2="24.431" id="gradient-0" spreadMethod="reflect" gradientTransform="matrix(1, 0, 0, 1, -16.595594, 0.383499)">
      <stop offset="0" style="stop-color: rgba(216, 216, 216, 1)"/>
      <stop offset="1" style="stop-color: rgba(165, 165, 165, 1)"/>
    </linearGradient>
    <filter id="warp-filter-2" x="-500%" y="-500%" width="1000%" height="1000%" bx:preset="warp 1 50 0.1">
      <feComponentTransfer>
        <feFuncR type="table" tableValues="1 0.5"/>
      </feComponentTransfer>
      <feMerge result="a">
        <feMergeNode/>
        <feMergeNode in="SourceGraphic"/>
      </feMerge>
      <feTurbulence type="fractalNoise" baseFrequency="0.01" numOctaves="1" result="warp"/>
      <feDisplacementMap xChannelSelector="R" yChannelSelector="G" scale="50" in="a" in2="warp"/>
    </filter>
    <linearGradient gradientUnits="userSpaceOnUse" x1="442.907" y1="9.306" x2="442.907" y2="16.646" id="gradient-1" gradientTransform="matrix(1, 0, 0, 1, -19.595594, 0.383499)">
      <stop offset="0" style="stop-color: rgba(216, 216, 216, 1)"/>
      <stop offset="1" style="stop-color: rgba(165, 165, 165, 1)"/>
    </linearGradient>
    <linearGradient gradientUnits="userSpaceOnUse" x1="440.311" y1="-2.298" x2="440.311" y2="7.488" id="gradient-2" gradientTransform="matrix(1, 0, 0, 1, -14.595594, 0.383499)">
      <stop offset="0" style="stop-color: rgba(216, 216, 216, 1)"/>
      <stop offset="1" style="stop-color: rgba(165, 165, 165, 1)"/>
    </linearGradient>
    <linearGradient gradientUnits="userSpaceOnUse" x1="434.256" y1="4.948" x2="434.256" y2="17.544" id="gradient-3" gradientTransform="matrix(1, 0, 0, 1, -14.595594, 0.383499)">
      <stop offset="0" style="stop-color: rgba(216, 216, 216, 1)"/>
      <stop offset="1" style="stop-color: rgba(165, 165, 165, 1)"/>
    </linearGradient>
    <linearGradient gradientUnits="userSpaceOnUse" x1="430.796" y1="15.571" x2="430.796" y2="24.221" id="gradient-4" gradientTransform="matrix(1, 0, 0, 1, -14.595594, 0.383499)">
      <stop offset="0" style="stop-color: rgba(216, 216, 216, 1)"/>
      <stop offset="1" style="stop-color: rgba(165, 165, 165, 1)"/>
    </linearGradient>
    <linearGradient gradientUnits="userSpaceOnUse" x1="433.391" y1="17.817" x2="433.391" y2="28.895" id="gradient-5" gradientTransform="matrix(1, 0, 0, 1, -14.595594, 0.383499)">
      <stop offset="0" style="stop-color: rgba(216, 216, 216, 1)"/>
      <stop offset="1" style="stop-color: rgba(165, 165, 165, 1)"/>
    </linearGradient>
    <linearGradient gradientUnits="userSpaceOnUse" x1="427.336" y1="24.738" x2="427.336" y2="35.816" id="gradient-6" gradientTransform="matrix(1, 0, 0, 1, -22.595594, 0.383499)">
      <stop offset="0" style="stop-color: rgba(216, 216, 216, 1)"/>
      <stop offset="1" style="stop-color: rgba(165, 165, 165, 1)"/>
    </linearGradient>
    <linearGradient gradientUnits="userSpaceOnUse" x1="435.121" y1="27.333" x2="435.121" y2="38.411" id="gradient-7" gradientTransform="matrix(1, 0, 0, 1, -23.595594, 0.383499)">
      <stop offset="0" style="stop-color: rgba(216, 216, 216, 1)"/>
      <stop offset="1" style="stop-color: rgba(165, 165, 165, 1)"/>
    </linearGradient>
    <linearGradient gradientUnits="userSpaceOnUse" x1="441.176" y1="20.043" x2="441.176" y2="30.131" id="gradient-8" gradientTransform="matrix(1, 0, 0, 1, -10.595594, 0.383499)">
      <stop offset="0" style="stop-color: rgba(216, 216, 216, 1)"/>
      <stop offset="1" style="stop-color: rgba(165, 165, 165, 1)"/>
    </linearGradient>
    <linearGradient gradientUnits="userSpaceOnUse" x1="445.502" y1="-1.73" x2="445.502" y2="6.92" id="gradient-9" gradientTransform="matrix(1, 0, 0, 1, -2.595594, 0.383499)">
      <stop offset="0" style="stop-color: rgba(216, 216, 216, 1)"/>
      <stop offset="1" style="stop-color: rgba(165, 165, 165, 1)"/>
    </linearGradient>
    <linearGradient gradientUnits="userSpaceOnUse" x1="447.232" y1="-7.785" x2="447.232" y2="0.865" id="gradient-10" gradientTransform="matrix(1, 0, 0, 1, -9.595594, 0.383499)">
      <stop offset="0" style="stop-color: rgba(216, 216, 216, 1)"/>
      <stop offset="1" style="stop-color: rgba(165, 165, 165, 1)"/>
    </linearGradient>
    <linearGradient gradientUnits="userSpaceOnUse" x1="419.55" y1="430.166" x2="419.55" y2="452.186" id="gradient-11" gradientTransform="matrix(1, 0, 0, 1, 0.404406, -1.616501)">
      <stop offset="0" style="stop-color: rgba(216, 216, 216, 1)"/>
      <stop offset="1" style="stop-color: rgba(165, 165, 165, 1)"/>
    </linearGradient>
    <linearGradient gradientUnits="userSpaceOnUse" x1="424.74" y1="334.534" x2="424.74" y2="362.698" id="gradient-12" gradientTransform="matrix(0.128719, 0.991681, -0.368578, 0.047841, 493.369624, -102.677051)">
      <stop offset="0" style="stop-color: rgba(216, 216, 216, 1)"/>
      <stop offset="1" style="stop-color: rgba(165, 165, 165, 1)"/>
    </linearGradient>
    <linearGradient gradientUnits="userSpaceOnUse" x1="426.471" y1="273.101" x2="426.471" y2="290.913" id="gradient-22">
      <stop offset="0" style="stop-color: rgba(216, 216, 216, 1)"/>
      <stop offset="1" style="stop-color: rgba(165, 165, 165, 1)"/>
    </linearGradient>
    <linearGradient gradientUnits="userSpaceOnUse" x1="429.931" y1="260.725" x2="429.931" y2="275.607" id="gradient-20" gradientTransform="matrix(1, 0, 0, 1, -10.595594, 0.383499)">
      <stop offset="0" style="stop-color: rgba(216, 216, 216, 1)"/>
      <stop offset="1" style="stop-color: rgba(165, 165, 165, 1)"/>
    </linearGradient>
    <linearGradient gradientUnits="userSpaceOnUse" x1="429.931" y1="249.578" x2="429.931" y2="265.992" id="gradient-13">
      <stop offset="0" style="stop-color: rgba(216, 216, 216, 1)"/>
      <stop offset="1" style="stop-color: rgba(165, 165, 165, 1)"/>
    </linearGradient>
    <linearGradient gradientUnits="userSpaceOnUse" x1="421.28" y1="188.496" x2="421.28" y2="197.318" id="gradient-21" gradientTransform="matrix(1, 0, 0, 1, -2.595594, 0.383499)">
      <stop offset="0" style="stop-color: rgba(216, 216, 216, 1)"/>
      <stop offset="1" style="stop-color: rgba(165, 165, 165, 1)"/>
    </linearGradient>
    <linearGradient gradientUnits="userSpaceOnUse" x1="429.066" y1="172.344" x2="429.066" y2="190.978" id="gradient-19" gradientTransform="matrix(1, 0, 0, 1, -2.595594, 0.383499)">
      <stop offset="0" style="stop-color: rgba(216, 216, 216, 1)"/>
      <stop offset="1" style="stop-color: rgba(165, 165, 165, 1)"/>
    </linearGradient>
    <linearGradient gradientUnits="userSpaceOnUse" x1="430.796" y1="154.991" x2="430.796" y2="165.079" id="gradient-18" gradientTransform="matrix(1, 0, 0, 1, -2.595594, 0.383499)">
      <stop offset="0" style="stop-color: rgba(216, 216, 216, 1)"/>
      <stop offset="1" style="stop-color: rgba(165, 165, 165, 1)"/>
    </linearGradient>
    <linearGradient gradientUnits="userSpaceOnUse" x1="422.145" y1="119.33" x2="422.145" y2="134.996" id="gradient-17" gradientTransform="matrix(1, 0, 0, 1, -2.595594, 0.383499)">
      <stop offset="0" style="stop-color: rgba(216, 216, 216, 1)"/>
      <stop offset="1" style="stop-color: rgba(165, 165, 165, 1)"/>
    </linearGradient>
    <linearGradient gradientUnits="userSpaceOnUse" x1="435.986" y1="91.506" x2="435.986" y2="107.456" id="gradient-16">
      <stop offset="0" style="stop-color: rgba(216, 216, 216, 1)"/>
      <stop offset="1" style="stop-color: rgba(165, 165, 165, 1)"/>
    </linearGradient>
    <linearGradient gradientUnits="userSpaceOnUse" x1="431.661" y1="66.609" x2="431.661" y2="82.179" id="gradient-15" gradientTransform="matrix(1, 0, 0, 1, -12.595594, 3.383499)">
      <stop offset="0" style="stop-color: rgba(216, 216, 216, 1)"/>
      <stop offset="1" style="stop-color: rgba(165, 165, 165, 1)"/>
    </linearGradient>
    <linearGradient gradientUnits="userSpaceOnUse" x1="428.201" y1="45.848" x2="428.201" y2="57.958" id="gradient-14" gradientTransform="matrix(1, 0, 0, 1, -11.595594, 9.383499)">
      <stop offset="0" style="stop-color: rgba(216, 216, 216, 1)"/>
      <stop offset="1" style="stop-color: rgba(165, 165, 165, 1)"/>
    </linearGradient>
    <linearGradient gradientUnits="userSpaceOnUse" x1="434.256" y1="475.725" x2="434.256" y2="489.673" id="gradient-23" gradientTransform="matrix(1, 0, 0, 1, -2.595594, 0.383499)">
      <stop offset="0" style="stop-color: rgba(216, 216, 216, 1)"/>
      <stop offset="1" style="stop-color: rgba(165, 165, 165, 1)"/>
    </linearGradient>
    <linearGradient gradientUnits="userSpaceOnUse" x1="423.01" y1="484.588" x2="423.01" y2="503.302" id="gradient-24" gradientTransform="matrix(1, 0, 0, 1, -2.595594, 0.383499)">
      <stop offset="0" style="stop-color: rgba(216, 216, 216, 1)"/>
      <stop offset="1" style="stop-color: rgba(165, 165, 165, 1)"/>
    </linearGradient>
  </defs>
  <rect x="-5.154" width="500.866" height="500.865" style="fill: rgb(91, 132, 177);" transform="matrix(1, 0.00009, 0.000449, 1, 1.581347, 0.361626)"/>
  <path d="M 425.472 -7.423 C 415.31 -7.423 402.492 34.086 405.978 53.892 C 406.906 59.163 411.354 66.622 413.13 71.666 C 414.831 76.497 416.549 88.637 415.365 95.366 C 412.532 111.459 403.908 126.773 407.766 148.69 C 409.05 155.98 415.243 160.694 413.13 170.697 C 410.841 181.535 405.465 189.571 402.849 199.476 C 402.447 200.999 400.93 209.384 401.956 211.325 C 406.134 219.238 414.951 223.691 418.047 232.486 C 423.039 246.666 412.505 253.813 409.554 261.263 C 405.532 271.42 402.797 285.016 403.743 299.353 C 404.721 314.169 412.623 312.439 414.471 326.438 C 415.703 335.771 411.589 335.662 410.001 341.673 C 407.329 351.793 402.276 357.641 404.19 372.144 C 406.475 389.448 419.064 393.156 421.623 407.694 C 423.77 419.89 407.991 425.886 406.425 434.779 C 405.179 441.861 401.652 461.099 404.637 468.636 C 406.82 474.146 410.561 472.448 412.236 478.793 C 414.043 485.638 408.217 491.503 409.554 496.568 C 411.078 502.338 415.315 505.652 418.494 509.265 C 423.951 515.464 434.995 503.099 438.637 507.739 C 444.922 515.746 480.992 518.184 484.487 498.327 C 487.234 482.718 477.23 446.019 479.081 428.492 C 485.736 365.484 489.812 359.303 486.478 296.156 C 485.738 282.138 489.166 239.055 486.722 226.098 C 484.452 214.06 484.517 187.776 483.564 175.145 C 481.932 153.515 487.204 129.285 480.261 111.757 C 479.585 110.048 481.175 59.806 480.681 57.463 C 477.119 40.602 486.747 9.629 478.011 1.358 C 474.737 -1.743 542.174 -15.071 537.987 -12.428 C 535.69 -10.978 469.717 -5.749 468.609 -5.749" style="fill: rgb(50, 174, 179);"/>
  <path d="M 446.234 -2.232 C 436.072 -2.232 415.468 9 418.954 28.806 C 419.882 34.077 424.33 65.757 426.106 70.801 C 427.807 75.632 429.525 87.772 428.341 94.501 C 425.508 110.594 416.884 125.908 420.742 147.825 C 422.026 155.115 428.219 159.829 426.106 169.832 C 423.817 180.67 421.901 184.381 419.285 194.286 C 418.883 195.809 416.501 208.519 417.527 210.46 C 421.705 218.373 427.927 222.826 431.023 231.621 C 436.015 245.801 423.751 257.273 420.8 264.723 C 416.778 274.88 416.638 287.611 417.584 301.948 C 418.562 316.764 426.464 311.574 428.312 325.573 C 429.544 334.906 424.565 334.797 422.977 340.808 C 420.305 350.928 417.847 357.641 419.761 372.144 C 422.046 389.448 432.04 392.291 434.599 406.829 C 436.746 419.025 420.967 425.021 419.401 433.914 C 418.155 440.996 416.358 455.044 419.343 462.581 C 421.526 468.091 423.537 471.583 425.212 477.928 C 427.019 484.773 421.193 490.638 422.53 495.703 C 424.054 501.473 428.291 504.787 431.47 508.4 C 436.927 514.599 447.971 502.234 451.613 506.874 C 457.898 514.881 493.968 517.319 497.463 497.462 C 500.21 481.853 490.206 445.154 492.057 427.627 C 498.712 364.619 502.788 358.438 499.454 295.291 C 498.714 281.273 502.142 238.19 499.698 225.233 C 497.428 213.195 497.493 186.911 496.54 174.28 C 494.908 152.65 500.18 128.42 493.237 110.892 C 492.561 109.183 494.151 58.941 493.657 56.598 C 490.095 39.737 499.723 8.764 490.987 0.493 C 487.713 -2.608 450.479 -32.372 446.292 -29.729 C 443.995 -28.279 448.956 35.773 447.848 35.773" style="fill: rgb(50, 186, 190);"/>
  <g transform="matrix(0.014461, -0.102899, 0.111883, 0.015724, 436.332642, 188.331726)" style=""/>
  <g transform="matrix(0.014461, -0.102899, 0.111883, 0.015724, 436.332642, 188.331726)" style=""/>
  <g transform="matrix(0.014461, -0.102899, 0.111883, 0.015724, 436.332642, 188.331726)" style=""/>
  <g transform="matrix(0.014461, -0.102899, 0.111883, 0.015724, 436.332642, 188.331726)" style=""/>
  <g transform="matrix(0.014461, -0.102899, 0.111883, 0.015724, 436.332642, 188.331726)" style=""/>
  <g transform="matrix(0.014461, -0.102899, 0.111883, 0.015724, 436.332642, 188.331726)" style=""/>
  <g transform="matrix(0.014461, -0.102899, 0.111883, 0.015724, 436.332642, 188.331726)" style=""/>
  <g transform="matrix(0.014461, -0.102899, 0.111883, 0.015724, 436.332642, 188.331726)" style=""/>
  <g transform="matrix(0.014461, -0.102899, 0.111883, 0.015724, 436.332642, 188.331726)" style=""/>
  <g transform="matrix(0.014461, -0.102899, 0.111883, 0.015724, 436.332642, 188.331726)" style=""/>
  <g transform="matrix(0.014461, -0.102899, 0.111883, 0.015724, 436.332642, 188.331726)" style=""/>
  <g transform="matrix(0.014461, -0.102899, 0.111883, 0.015724, 436.332642, 188.331726)" style=""/>
  <g transform="matrix(0.014461, -0.102899, 0.111883, 0.015724, 436.332642, 188.331726)" style=""/>
  <g transform="matrix(0.014461, -0.102899, 0.111883, 0.015724, 436.332642, 188.331726)" style=""/>
  <g transform="matrix(0.014461, -0.102899, 0.111883, 0.015724, 436.332642, 188.331726)" style=""/>
  <path d="M 439.596 5.915 C 440.697 2.986 442.14 -2.057 443.749 -3.082 C 447.936 -5.752 496.416 -6.27 499.69 -3.138 C 508.426 5.217 498.798 36.502 502.36 53.533 C 502.854 55.9 501.264 106.649 501.94 108.375 C 508.883 126.08 503.611 150.554 505.243 172.403 C 506.196 185.161 506.131 211.71 508.401 223.87 C 510.845 236.957 507.417 280.475 508.157 294.635 C 511.491 358.419 507.415 364.662 500.76 428.306 C 498.909 446.01 508.913 483.079 506.166 498.845 C 502.671 518.903 466.601 516.44 460.316 508.352 C 456.674 503.666 445.63 516.155 440.173 509.894 C 436.994 506.244 432.757 502.897 431.233 497.069 C 429.896 491.953 435.722 486.028 433.915 479.114 C 432.24 472.705 428.499 474.42 426.316 468.855 C 423.331 461.242 426.858 441.81 428.104 434.656 C 429.67 425.673 445.449 419.617 443.302 407.298 C 440.743 392.613 428.154 388.868 425.869 371.389 C 423.955 356.74 429.008 350.833 431.68 340.611 C 433.268 334.539 437.382 334.649 436.15 325.222 C 434.302 311.082 426.4 312.829 425.422 297.864 C 424.476 283.382 427.211 269.649 431.233 259.39 C 434.184 251.864 444.718 244.645 439.726 230.322 C 436.63 221.438 427.813 216.941 423.635 208.948 C 422.609 206.987 424.126 198.517 424.528 196.979 C 427.144 186.974 432.52 178.857 434.809 167.91 C 436.922 157.806 430.729 153.044 429.445 145.681 C 425.587 123.543 434.211 108.074 437.044 91.819 C 438.228 85.022 436.51 72.759 434.809 67.88 C 433.033 62.785 428.585 55.25 427.657 49.926 C 424.447 31.506 430.659 9.318 439.596 5.915 Z M 438.718 7.794 L 438.385 8.033 C 438.489 8.033 438.6 7.949 438.718 7.794 Z" style="fill: rgb(212, 174, 120); filter: url(#brightness-filter-0);"/>
  <circle style="fill: url(#gradient-0); paint-order: stroke; filter: url(#warp-filter-2);" cx="426.311" cy="21.144" r="3.67"/>
  <circle style="fill: url(#gradient-1); filter: url(#warp-filter-2);" cx="423.311" cy="13.359" r="3.67"/>
  <circle style="fill: url(#gradient-2); filter: url(#warp-filter-2);" cx="425.715" cy="2.978" r="4.893"/>
  <circle style="fill: url(#gradient-3); filter: url(#warp-filter-2);" cx="419.66" cy="11.629" r="6.298"/>
  <circle style="fill: url(#gradient-4); filter: url(#warp-filter-2);" cx="416.2" cy="20.279" r="4.325"/>
  <circle style="fill: url(#gradient-5); filter: url(#warp-filter-2);" cx="418.795" cy="23.739" r="5.539"/>
  <circle style="fill: url(#gradient-6); filter: url(#warp-filter-2);" cx="404.74" cy="30.66" r="5.539"/>
  <circle style="fill: url(#gradient-7); filter: url(#warp-filter-2);" cx="411.525" cy="33.256" r="5.539"/>
  <circle style="fill: url(#gradient-8); filter: url(#warp-filter-2);" cx="430.58" cy="25.47" r="5.044"/>
  <circle style="fill: url(#gradient-9); filter: url(#warp-filter-2);" cx="442.906" cy="2.978" r="4.325"/>
  <circle style="fill: url(#gradient-10); filter: url(#warp-filter-2);" cx="437.636" cy="-3.077" r="4.325"/>
  <circle style="fill: url(#gradient-11); filter: url(#warp-filter-2);" cx="419.954" cy="439.559" r="11.01"/>
  <circle style="fill: url(#gradient-12); filter: url(#warp-filter-2);" cx="424.74" cy="348.616" r="15.812" transform="matrix(0.726456, 0, 0, 0.781166, 112.04924, 86.18821)"/>
  <circle style="fill: url(#gradient-22); filter: url(#warp-filter-2);" cx="426.471" cy="282.007" r="8.906" transform="matrix(0.708606, 0, 0, 0.514343, 113.080307, 138.667297)"/>
  <circle style="fill: url(#gradient-20); filter: url(#warp-filter-2);" cx="419.335" cy="268.549" r="7.441"/>
  <circle style="fill: url(#gradient-13); filter: url(#warp-filter-2);" cx="429.931" cy="257.785" r="8.207" transform="matrix(0.894597, 0, 0, 1.052702, 51.371449, -22.285343)"/>
  <circle style="fill: url(#gradient-21); filter: url(#warp-filter-2);" cx="418.684" cy="193.29" r="4.411"/>
  <circle style="fill: url(#gradient-19); filter: url(#warp-filter-2);" cx="426.47" cy="182.044" r="11.047"/>
  <circle style="fill: url(#gradient-18); filter: url(#warp-filter-2);" cx="428.2" cy="160.419" r="5.044"/>
  <circle style="fill: url(#gradient-17); filter: url(#warp-filter-2);" cx="419.549" cy="127.547" r="7.833"/>
  <circle style="fill: url(#gradient-16); filter: url(#warp-filter-2);" cx="435.986" cy="99.481" r="7.975" transform="matrix(1, 0, 0, 0.837294, -19.595594, 28.867205)"/>
  <circle style="fill: url(#gradient-15); filter: url(#warp-filter-2);" cx="419.065" cy="77.777" r="7.785"/>
  <circle style="fill: url(#gradient-14); filter: url(#warp-filter-2);" cx="416.605" cy="61.286" r="6.055"/>
  <circle style="fill: url(#gradient-23); filter: url(#warp-filter-2);" cx="431.66" cy="483.083" r="6.974"/>
  <circle style="fill: url(#gradient-24); filter: url(#warp-filter-2);" cx="420.414" cy="494.329" r="9.357"/>
  <path d="M 461.072 246.058 C 460.199 244.603 457.623 233.093 462.802 238.273 C 462.973 238.443 461.072 242.358 461.072 243.463" style="fill: rgb(158, 151, 151);"/>
  <path d="M 437.716 279.795 C 437.716 280.123 443.504 293.935 444.636 294.501 C 450.026 297.196 448.435 286.941 445.501 284.986 C 442.76 283.158 439.252 283.927 436.851 281.525" style="fill: rgb(204, 191, 191);"/>
  <path d="M 455.017 341.214 C 453.224 348.385 453.595 342.696 455.017 345.539 C 455.481 346.468 455.072 350.784 455.882 351.595 C 457.337 353.05 463.889 342.944 455.017 342.944" style="fill: rgb(204, 191, 191);"/>
  <path d="M 455.017 394.847 C 452.424 407.811 470.315 394.847 453.287 394.847" style="fill: rgb(204, 191, 191);"/>
  <path d="M 457.612 438.965 C 451.473 451.243 465.386 445.874 458.477 438.965" style="fill: rgb(204, 191, 191);"/>
  <path d="M 491.349 377.546 C 496.994 369.079 498.075 379.276 493.944 379.276" style="fill: rgb(204, 191, 191);"/>
  <path d="M 490.484 348.134 C 490.484 346.791 489.668 330.017 494.809 335.159 C 496.989 337.339 491.349 342.041 491.349 342.944" style="fill: rgb(204, 191, 191);"/>
  <path d="M 498.269 312.667 C 490.041 308.553 496.539 303.147 496.539 311.802" style="fill: rgb(204, 191, 191);"/>
  <path d="M 492.214 287.581 C 489.796 280.327 501.113 278.682 493.079 286.716" style="fill: rgb(204, 191, 191);"/>
  <path d="M 493.079 263.359 C 483.918 257.252 489.831 263.359 491.349 263.359" style="fill: rgb(204, 191, 191);"/>
  <path d="M 489.619 242.598 C 489.619 238.405 496.84 229.923 494.809 227.892 C 490.025 223.108 488.754 235.238 488.754 237.408" style="fill: rgb(204, 191, 191);"/>
  <path d="M 480.103 213.186 C 480.103 211.174 485.339 204.581 488.754 207.996 C 492.696 211.938 481.93 215.781 480.103 215.781" style="fill: rgb(204, 191, 191);"/>
  <path d="M 445.501 174.259 C 454.558 171.995 448.075 180.314 445.501 180.314" style="fill: rgb(204, 191, 191);"/>
  <path d="M 445.501 196.75 C 443.488 206.816 453.273 197.615 444.636 197.615" style="fill: rgb(204, 191, 191);"/>
  <path d="M 474.913 165.608 C 467.114 178.607 470.99 167.137 472.318 166.473 C 477.997 163.634 473.695 170.11 470.588 171.664" style="fill: rgb(204, 191, 191);"/>
  <path d="M 450.692 137.927 C 449.719 141.818 452.261 150.198 457.612 144.847 C 460.042 142.418 451.557 141.381 451.557 138.792" style="fill: rgb(204, 191, 191);"/>
  <path d="M 458.477 105.92 C 458.477 110.309 462.345 115.664 467.993 112.84 C 469.282 112.195 466.417 110.4 465.397 109.38 C 462.279 106.262 461.769 106.785 458.477 106.785" style="fill: rgb(204, 191, 191);"/>
  <path d="M 438.581 59.207 C 447.058 57.512 441.092 59.207 437.716 59.207" style="fill: rgb(204, 191, 191);"/>
  <path d="M 461.072 26.335 C 462.484 31.981 468.148 28.93 463.667 28.93" style="fill: rgb(204, 191, 191);"/>
  <path d="M 458.477 53.152 C 456.723 60.17 462.267 55.87 461.072 52.287 C 460.254 49.831 455.017 51.248 455.017 54.017" style="fill: rgb(204, 191, 191);"/>
  <path d="M 459.342 74.778 C 446.815 87.305 471.583 75.643 459.342 75.643" style="fill: rgb(204, 191, 191);"/>
  <path d="M 479.238 86.024 C 486.137 87.748 479.238 78.173 479.238 88.619" style="fill: rgb(204, 191, 191);"/>
  <path d="M 488.754 124.086 C 492.495 116.605 493.737 123.635 492.214 126.681 C 490.826 129.458 485.938 126.037 489.619 122.356" style="fill: rgb(204, 191, 191);"/>
  <path d="M 490.484 59.207 C 488.781 64.316 493.079 60.891 493.079 59.207" style="fill: rgb(204, 191, 191);"/>
  <path d="M 491.349 34.986 C 483.979 34.986 492.161 27.147 494.809 29.795 C 496.901 31.887 492.898 35.851 492.214 35.851" style="fill: rgb(204, 191, 191);"/>
  <path d="M 486.159 15.089 C 490.039 9.269 489.04 13.073 485.294 16.819" style="fill: rgb(204, 191, 191);"/>
  <path d="M 461.072 2.114 C 467.934 5.544 472.7 2.114 463.667 2.114" style="fill: rgb(204, 191, 191);"/>
  <path d="M 480.968 0.383 C 486.946 0.383 495.514 2.979 485.294 2.979" style="fill: rgb(204, 191, 191);"/>
  <path d="M 488.754 396.577 C 482.842 400.519 497.281 397.442 487.024 397.442" style="fill: rgb(204, 191, 191);"/>
  <path d="M 480.103 415.608 C 480.103 423.259 492.133 414.743 480.968 414.743" style="fill: rgb(204, 191, 191);"/>
  <path d="M 483.564 439.83 C 481.969 443.019 485.807 447.102 488.754 444.155 C 492.054 440.855 485.294 432.113 485.294 442.425" style="fill: rgb(204, 191, 191);"/>
  <path d="M 438.581 456.266 C 450.062 462.006 441.176 449.871 441.176 456.266" style="fill: rgb(204, 191, 191);"/>
  <path d="M 446.366 479.622 C 449.89 493.718 451.887 475.895 450.692 475.297 C 446.023 472.963 446.366 479.824 446.366 482.217" style="fill: rgb(204, 191, 191);"/>
  <path d="M 465.397 482.217 C 465.397 493.038 468.997 483.082 465.397 483.082" style="fill: rgb(204, 191, 191);"/>
  <path d="M 468.858 470.107 C 479.845 470.107 467.128 457.396 467.128 470.107" style="fill: rgb(204, 191, 191);"/>
  <path d="M 489.619 473.567 C 499.405 483.353 503.058 473.567 495.674 473.567" style="fill: rgb(204, 191, 191);"/>
  <path d="M 489.619 496.923 C 487.929 501.992 495.358 499.286 496.539 496.923 C 497.549 494.905 491.349 493.56 491.349 496.923" style="fill: rgb(204, 191, 191);"/>
  <g style="" transform="matrix(0.039135, 0.009757, -0.018489, 0.074156, 465.084473, 453.646851)">
    <title>croco</title>
    <path style="fill:#96BE4B;" d="M 618.839 280.912 L 589.313 280.912 C 563.725 280.912 536.568 275.313 504.94 250.075 C 501.109 247.018 495.956 251.666 498.766 255.682 C 515.34 279.375 548.908 312.977 605.997 312.977 L 628.322 312.977 C 649.256 312.977 667.95 328.281 669.937 349.12 C 672.217 373.025 653.48 393.138 630.045 393.138 L 451.638 393.138 C 447.792 393.138 444.074 391.756 441.162 389.243 L 438.378 386.841 C 431.098 380.56 421.804 377.105 412.189 377.105 L 362.763 377.105 C 354.259 377.105 346.103 380.483 340.09 386.497 L 322.113 404.474 C 319.106 407.481 315.028 409.17 310.776 409.17 L 238.114 409.17 C 230.128 409.17 222.725 414.627 221.443 422.51 C 219.809 432.554 227.519 441.235 237.256 441.235 L 246.642 460.006 C 250.716 468.153 259.043 473.299 268.151 473.299 L 445.675 473.299 L 485.753 473.299 L 622.03 473.299 C 675.756 473.299 719.194 429.255 718.207 375.304 C 717.238 322.348 671.804 280.912 618.839 280.912 Z"/>
    <path style="fill:#89AA4F;" d="M 362.763 377.105 C 354.259 377.105 346.103 380.483 340.09 386.496 L 322.113 404.473 C 319.106 407.48 315.028 409.169 310.776 409.169 L 238.114 409.169 C 230.128 409.169 222.725 414.626 221.443 422.509 C 219.809 432.553 227.519 441.234 237.256 441.234 L 246.641 460.005 C 250.715 468.152 259.042 473.299 268.151 473.299 L 549.885 473.299 L 549.885 473.299 C 549.885 464.445 534.691 449.251 525.837 449.251 L 393.084 449.251 C 371.861 449.251 353.893 440.738 353.116 419.529 C 352.701 408.187 355.79 394.121 365.513 377.106 L 362.763 377.106 L 362.763 377.105 Z"/>
    <g transform="matrix(1, 0, 0, 1, 213.723175, 113.089256)">
      <path style="fill:#7E9A52;" d="M215.919,336.161v24.048h-32.065c-14.107,0-26.086,9.11-30.375,21.767 c-1.719,5.072,2.357,10.297,7.712,10.297h86.792c13.282,0,24.048-10.767,24.048-24.048V336.16c0-8.854-7.178-16.032-16.032-16.032 h-24.048C223.097,320.129,215.919,327.307,215.919,336.161z"/>
      <path style="fill:#7E9A52;" d="M400.29,344.178v16.032h-32.065c-14.107,0-26.086,9.11-30.375,21.767 c-1.719,5.072,2.357,10.297,7.712,10.297h86.792c13.282,0,24.048-10.767,24.048-24.048v-24.048c0-8.854-7.178-16.032-16.032-16.032 h-24.048C407.468,328.145,400.29,335.323,400.29,344.178z"/>
    </g>
    <circle style="fill:#6F6571;" cx="365.513" cy="393.139" r="16.03"/>
    <path style="fill:#89AA4F;" d="M 638.062 296.944 L 597.981 296.944 C 541.868 296.944 513.413 265.472 500.221 249.669 C 498.246 250.768 497.111 253.315 498.766 255.682 C 515.34 279.376 548.908 312.977 605.997 312.977 L 628.322 312.977 C 649.256 312.977 667.95 328.281 669.937 349.12 C 672.217 373.026 653.48 393.138 630.045 393.138 L 638.061 393.138 C 664.624 393.138 686.158 371.604 686.158 345.041 C 686.158 318.478 664.625 296.944 638.062 296.944 Z"/>
    <path d="M 725.723 377.105 C 725.723 319.928 679.206 273.412 622.03 273.412 L 589.314 273.412 C 560.507 273.412 532.598 263.088 510.726 244.341 L 490.637 227.121 C 488.015 224.873 484.198 224.707 481.39 226.717 C 478.582 228.728 477.51 232.395 478.792 235.601 C 479.141 236.474 487.57 257.218 507.372 278.062 C 525.754 297.412 557.787 320.477 605.997 320.477 L 630.045 320.477 C 648.01 320.477 662.626 335.093 662.626 353.058 C 662.626 361.014 659.728 368.674 654.465 374.626 C 651.722 377.73 652.013 382.469 655.116 385.213 C 658.22 387.955 662.959 387.665 665.703 384.562 C 673.391 375.865 677.626 364.677 677.626 353.058 C 677.626 326.822 656.281 305.477 630.045 305.477 L 605.997 305.477 C 572.234 305.477 543.178 293.256 519.618 269.154 C 540.562 281.678 564.645 288.413 589.313 288.413 L 622.029 288.413 C 670.935 288.413 710.722 328.201 710.722 377.107 C 710.722 404.295 698.107 429.897 677.13 446.589 C 676.055 443.763 673.328 441.751 670.125 441.751 C 665.983 441.751 662.625 445.108 662.625 449.251 L 662.625 481.315 C 662.625 490.44 655.202 497.864 646.077 497.864 L 558.554 497.864 C 561.731 487.975 571.017 480.8 581.948 480.8 L 630.045 480.8 C 634.187 480.8 637.545 477.443 637.545 473.3 C 637.545 469.157 634.187 465.8 630.045 465.8 L 621.513 465.8 L 621.513 457.268 C 621.513 453.125 618.155 449.768 614.013 449.768 C 609.871 449.768 606.513 453.125 606.513 457.268 L 606.513 465.8 L 493.255 465.8 L 493.255 457.268 C 493.255 453.125 489.897 449.768 485.755 449.768 C 481.613 449.768 478.255 453.125 478.255 457.268 L 478.255 473.242 C 478.255 473.262 478.252 473.281 478.252 473.3 C 478.252 473.319 478.255 473.338 478.255 473.358 L 478.255 481.316 C 478.255 490.441 470.832 497.865 461.707 497.865 L 374.184 497.865 C 377.361 487.976 386.647 480.801 397.578 480.801 L 445.675 480.801 C 449.817 480.801 453.175 477.444 453.175 473.301 C 453.175 469.158 449.817 465.801 445.675 465.801 L 437.143 465.801 L 437.143 457.269 C 437.143 453.126 433.785 449.769 429.643 449.769 C 425.501 449.769 422.143 453.126 422.143 457.269 L 422.143 465.801 L 268.15 465.801 C 261.841 465.801 256.17 462.296 253.348 456.653 L 249.39 448.737 L 285.868 448.737 L 285.868 449.253 C 285.868 453.396 289.226 456.753 293.368 456.753 C 297.51 456.753 300.868 453.396 300.868 449.253 L 300.868 448.737 L 348.035 448.737 C 355.382 448.737 362.74 447 369.313 443.714 L 376.883 439.929 C 380.588 438.076 382.089 433.572 380.237 429.866 C 378.385 426.16 373.881 424.662 370.174 426.512 L 362.605 430.297 C 358.104 432.547 353.065 433.736 348.034 433.736 L 268.804 433.736 L 268.804 433.219 C 268.804 429.076 265.446 425.719 261.304 425.719 C 257.162 425.719 253.804 429.076 253.804 433.219 L 253.804 433.736 L 237.255 433.736 C 232.55 433.736 228.723 429.909 228.723 425.204 C 228.723 420.499 232.551 416.672 237.255 416.672 L 317.416 416.672 C 319.405 416.672 321.313 415.882 322.719 414.475 L 342.071 395.124 C 343.083 407.174 353.207 416.672 365.513 416.672 C 378.489 416.672 389.045 406.115 389.045 393.14 C 389.045 390.131 388.471 387.255 387.437 384.608 L 412.192 384.608 C 420.004 384.608 427.563 387.419 433.477 392.521 L 436.262 394.924 C 440.534 398.61 445.994 400.64 451.635 400.64 L 630.045 400.64 C 634.187 400.64 637.545 397.283 637.545 393.14 C 637.545 388.997 634.187 385.64 630.045 385.64 L 451.635 385.64 C 449.59 385.64 447.61 384.904 446.061 383.568 L 443.277 381.165 C 434.64 373.713 423.601 369.608 412.193 369.608 L 362.763 369.608 C 352.195 369.608 342.26 373.723 334.787 381.195 L 314.31 401.673 L 237.255 401.673 C 224.28 401.67 213.723 412.227 213.723 425.202 C 213.723 436.5 221.728 445.961 232.362 448.219 L 239.932 463.359 C 245.31 474.116 256.123 480.798 268.15 480.798 L 366.597 480.798 C 361.231 487.552 358.013 496.086 358.013 505.362 C 358.013 509.505 361.371 512.862 365.513 512.862 L 461.706 512.862 C 479.102 512.862 493.254 498.71 493.254 481.313 L 493.254 480.797 L 550.967 480.797 C 545.601 487.551 542.383 496.085 542.383 505.361 C 542.383 509.504 545.741 512.861 549.883 512.861 L 646.077 512.861 C 663.473 512.861 677.625 498.709 677.625 481.312 L 677.625 464.632 C 707.397 445.678 725.723 412.543 725.723 377.105 Z M 374.046 393.138 C 374.046 397.843 370.218 401.67 365.514 401.67 C 360.81 401.67 356.982 397.843 356.982 393.138 C 356.982 388.433 360.81 384.606 365.514 384.606 C 370.218 384.606 374.046 388.433 374.046 393.138 Z" style="visibility: hidden;"/>
    <g transform="matrix(1, 0, 0, 1, 213.723175, 113.089256)"/>
    <g transform="matrix(1, 0, 0, 1, 213.723175, 113.089256)"/>
    <g transform="matrix(1, 0, 0, 1, 213.723175, 113.089256)"/>
    <g transform="matrix(1, 0, 0, 1, 213.723175, 113.089256)"/>
    <g transform="matrix(1, 0, 0, 1, 213.723175, 113.089256)"/>
    <g transform="matrix(1, 0, 0, 1, 213.723175, 113.089256)"/>
    <g transform="matrix(1, 0, 0, 1, 213.723175, 113.089256)"/>
    <g transform="matrix(1, 0, 0, 1, 213.723175, 113.089256)"/>
    <g transform="matrix(1, 0, 0, 1, 213.723175, 113.089256)"/>
    <g transform="matrix(1, 0, 0, 1, 213.723175, 113.089256)"/>
    <g transform="matrix(1, 0, 0, 1, 213.723175, 113.089256)"/>
    <g transform="matrix(1, 0, 0, 1, 213.723175, 113.089256)"/>
    <g transform="matrix(1, 0, 0, 1, 213.723175, 113.089256)"/>
    <g transform="matrix(1, 0, 0, 1, 213.723175, 113.089256)"/>
    <g transform="matrix(1, 0, 0, 1, 213.723175, 113.089256)"/>
  </g>
  <g style="" transform="matrix(0.034929, -0.020167, 0.038213, 0.066187, 433.55072, 271.90387)">
    <title>croco</title>
    <path style="fill:#96BE4B;" d="M 618.839 280.912 L 589.313 280.912 C 563.725 280.912 536.568 275.313 504.94 250.075 C 501.109 247.018 495.956 251.666 498.766 255.682 C 515.34 279.375 548.908 312.977 605.997 312.977 L 628.322 312.977 C 649.256 312.977 667.95 328.281 669.937 349.12 C 672.217 373.025 653.48 393.138 630.045 393.138 L 451.638 393.138 C 447.792 393.138 444.074 391.756 441.162 389.243 L 438.378 386.841 C 431.098 380.56 421.804 377.105 412.189 377.105 L 362.763 377.105 C 354.259 377.105 346.103 380.483 340.09 386.497 L 322.113 404.474 C 319.106 407.481 315.028 409.17 310.776 409.17 L 238.114 409.17 C 230.128 409.17 222.725 414.627 221.443 422.51 C 219.809 432.554 227.519 441.235 237.256 441.235 L 246.642 460.006 C 250.716 468.153 259.043 473.299 268.151 473.299 L 445.675 473.299 L 485.753 473.299 L 622.03 473.299 C 675.756 473.299 719.194 429.255 718.207 375.304 C 717.238 322.348 671.804 280.912 618.839 280.912 Z"/>
    <path style="fill:#89AA4F;" d="M 362.763 377.105 C 354.259 377.105 346.103 380.483 340.09 386.496 L 322.113 404.473 C 319.106 407.48 315.028 409.169 310.776 409.169 L 238.114 409.169 C 230.128 409.169 222.725 414.626 221.443 422.509 C 219.809 432.553 227.519 441.234 237.256 441.234 L 246.641 460.005 C 250.715 468.152 259.042 473.299 268.151 473.299 L 549.885 473.299 L 549.885 473.299 C 549.885 464.445 534.691 449.251 525.837 449.251 L 393.084 449.251 C 371.861 449.251 353.893 440.738 353.116 419.529 C 352.701 408.187 355.79 394.121 365.513 377.106 L 362.763 377.106 L 362.763 377.105 Z"/>
    <g transform="matrix(1, 0, 0, 1, 213.723175, 113.089256)">
      <path style="fill:#7E9A52;" d="M215.919,336.161v24.048h-32.065c-14.107,0-26.086,9.11-30.375,21.767 c-1.719,5.072,2.357,10.297,7.712,10.297h86.792c13.282,0,24.048-10.767,24.048-24.048V336.16c0-8.854-7.178-16.032-16.032-16.032 h-24.048C223.097,320.129,215.919,327.307,215.919,336.161z"/>
      <path style="fill:#7E9A52;" d="M400.29,344.178v16.032h-32.065c-14.107,0-26.086,9.11-30.375,21.767 c-1.719,5.072,2.357,10.297,7.712,10.297h86.792c13.282,0,24.048-10.767,24.048-24.048v-24.048c0-8.854-7.178-16.032-16.032-16.032 h-24.048C407.468,328.145,400.29,335.323,400.29,344.178z"/>
    </g>
    <circle style="fill:#6F6571;" cx="365.513" cy="393.139" r="16.03"/>
    <path style="fill: rgb(137, 170, 79);" d="M 638.062 296.944 L 597.981 296.944 C 541.868 296.944 513.413 265.472 500.221 249.669 C 498.246 250.768 497.111 253.315 498.766 255.682 C 515.34 279.376 548.908 312.977 605.997 312.977 L 628.322 312.977 C 649.256 312.977 667.95 328.281 669.937 349.12 C 672.217 373.026 653.48 393.138 630.045 393.138 L 638.061 393.138 C 664.624 393.138 686.158 371.604 686.158 345.041 C 686.158 318.478 664.625 296.944 638.062 296.944 Z"/>
    <path d="M 725.723 377.105 C 725.723 319.928 679.206 273.412 622.03 273.412 L 589.314 273.412 C 560.507 273.412 532.598 263.088 510.726 244.341 L 490.637 227.121 C 488.015 224.873 484.198 224.707 481.39 226.717 C 478.582 228.728 477.51 232.395 478.792 235.601 C 479.141 236.474 487.57 257.218 507.372 278.062 C 525.754 297.412 557.787 320.477 605.997 320.477 L 630.045 320.477 C 648.01 320.477 662.626 335.093 662.626 353.058 C 662.626 361.014 659.728 368.674 654.465 374.626 C 651.722 377.73 652.013 382.469 655.116 385.213 C 658.22 387.955 662.959 387.665 665.703 384.562 C 673.391 375.865 677.626 364.677 677.626 353.058 C 677.626 326.822 656.281 305.477 630.045 305.477 L 605.997 305.477 C 572.234 305.477 543.178 293.256 519.618 269.154 C 540.562 281.678 564.645 288.413 589.313 288.413 L 622.029 288.413 C 670.935 288.413 710.722 328.201 710.722 377.107 C 710.722 404.295 698.107 429.897 677.13 446.589 C 676.055 443.763 673.328 441.751 670.125 441.751 C 665.983 441.751 662.625 445.108 662.625 449.251 L 662.625 481.315 C 662.625 490.44 655.202 497.864 646.077 497.864 L 558.554 497.864 C 561.731 487.975 571.017 480.8 581.948 480.8 L 630.045 480.8 C 634.187 480.8 637.545 477.443 637.545 473.3 C 637.545 469.157 634.187 465.8 630.045 465.8 L 621.513 465.8 L 621.513 457.268 C 621.513 453.125 618.155 449.768 614.013 449.768 C 609.871 449.768 606.513 453.125 606.513 457.268 L 606.513 465.8 L 493.255 465.8 L 493.255 457.268 C 493.255 453.125 489.897 449.768 485.755 449.768 C 481.613 449.768 478.255 453.125 478.255 457.268 L 478.255 473.242 C 478.255 473.262 478.252 473.281 478.252 473.3 C 478.252 473.319 478.255 473.338 478.255 473.358 L 478.255 481.316 C 478.255 490.441 470.832 497.865 461.707 497.865 L 374.184 497.865 C 377.361 487.976 386.647 480.801 397.578 480.801 L 445.675 480.801 C 449.817 480.801 453.175 477.444 453.175 473.301 C 453.175 469.158 449.817 465.801 445.675 465.801 L 437.143 465.801 L 437.143 457.269 C 437.143 453.126 433.785 449.769 429.643 449.769 C 425.501 449.769 422.143 453.126 422.143 457.269 L 422.143 465.801 L 268.15 465.801 C 261.841 465.801 256.17 462.296 253.348 456.653 L 249.39 448.737 L 285.868 448.737 L 285.868 449.253 C 285.868 453.396 289.226 456.753 293.368 456.753 C 297.51 456.753 300.868 453.396 300.868 449.253 L 300.868 448.737 L 348.035 448.737 C 355.382 448.737 362.74 447 369.313 443.714 L 376.883 439.929 C 380.588 438.076 382.089 433.572 380.237 429.866 C 378.385 426.16 373.881 424.662 370.174 426.512 L 362.605 430.297 C 358.104 432.547 353.065 433.736 348.034 433.736 L 268.804 433.736 L 268.804 433.219 C 268.804 429.076 265.446 425.719 261.304 425.719 C 257.162 425.719 253.804 429.076 253.804 433.219 L 253.804 433.736 L 237.255 433.736 C 232.55 433.736 228.723 429.909 228.723 425.204 C 228.723 420.499 232.551 416.672 237.255 416.672 L 317.416 416.672 C 319.405 416.672 321.313 415.882 322.719 414.475 L 342.071 395.124 C 343.083 407.174 353.207 416.672 365.513 416.672 C 378.489 416.672 389.045 406.115 389.045 393.14 C 389.045 390.131 388.471 387.255 387.437 384.608 L 412.192 384.608 C 420.004 384.608 427.563 387.419 433.477 392.521 L 436.262 394.924 C 440.534 398.61 445.994 400.64 451.635 400.64 L 630.045 400.64 C 634.187 400.64 637.545 397.283 637.545 393.14 C 637.545 388.997 634.187 385.64 630.045 385.64 L 451.635 385.64 C 449.59 385.64 447.61 384.904 446.061 383.568 L 443.277 381.165 C 434.64 373.713 423.601 369.608 412.193 369.608 L 362.763 369.608 C 352.195 369.608 342.26 373.723 334.787 381.195 L 314.31 401.673 L 237.255 401.673 C 224.28 401.67 213.723 412.227 213.723 425.202 C 213.723 436.5 221.728 445.961 232.362 448.219 L 239.932 463.359 C 245.31 474.116 256.123 480.798 268.15 480.798 L 366.597 480.798 C 361.231 487.552 358.013 496.086 358.013 505.362 C 358.013 509.505 361.371 512.862 365.513 512.862 L 461.706 512.862 C 479.102 512.862 493.254 498.71 493.254 481.313 L 493.254 480.797 L 550.967 480.797 C 545.601 487.551 542.383 496.085 542.383 505.361 C 542.383 509.504 545.741 512.861 549.883 512.861 L 646.077 512.861 C 663.473 512.861 677.625 498.709 677.625 481.312 L 677.625 464.632 C 707.397 445.678 725.723 412.543 725.723 377.105 Z M 374.046 393.138 C 374.046 397.843 370.218 401.67 365.514 401.67 C 360.81 401.67 356.982 397.843 356.982 393.138 C 356.982 388.433 360.81 384.606 365.514 384.606 C 370.218 384.606 374.046 388.433 374.046 393.138 Z" style="visibility: hidden;"/>
    <g transform="matrix(1, 0, 0, 1, 213.723175, 113.089256)"/>
    <g transform="matrix(1, 0, 0, 1, 213.723175, 113.089256)"/>
    <g transform="matrix(1, 0, 0, 1, 213.723175, 113.089256)"/>
    <g transform="matrix(1, 0, 0, 1, 213.723175, 113.089256)"/>
    <g transform="matrix(1, 0, 0, 1, 213.723175, 113.089256)"/>
    <g transform="matrix(1, 0, 0, 1, 213.723175, 113.089256)"/>
    <g transform="matrix(1, 0, 0, 1, 213.723175, 113.089256)"/>
    <g transform="matrix(1, 0, 0, 1, 213.723175, 113.089256)"/>
    <g transform="matrix(1, 0, 0, 1, 213.723175, 113.089256)"/>
    <g transform="matrix(1, 0, 0, 1, 213.723175, 113.089256)"/>
    <g transform="matrix(1, 0, 0, 1, 213.723175, 113.089256)"/>
    <g transform="matrix(1, 0, 0, 1, 213.723175, 113.089256)"/>
    <g transform="matrix(1, 0, 0, 1, 213.723175, 113.089256)"/>
    <g transform="matrix(1, 0, 0, 1, 213.723175, 113.089256)"/>
    <g transform="matrix(1, 0, 0, 1, 213.723175, 113.089256)"/>
  </g>
  <g style="" transform="matrix(-0.039135, 0.009757, 0.018489, 0.074156, 440.035583, 172.671356)">
    <title>croco</title>
    <path style="fill:#96BE4B;" d="M 618.839 280.912 L 589.313 280.912 C 563.725 280.912 536.568 275.313 504.94 250.075 C 501.109 247.018 495.956 251.666 498.766 255.682 C 515.34 279.375 548.908 312.977 605.997 312.977 L 628.322 312.977 C 649.256 312.977 667.95 328.281 669.937 349.12 C 672.217 373.025 653.48 393.138 630.045 393.138 L 451.638 393.138 C 447.792 393.138 444.074 391.756 441.162 389.243 L 438.378 386.841 C 431.098 380.56 421.804 377.105 412.189 377.105 L 362.763 377.105 C 354.259 377.105 346.103 380.483 340.09 386.497 L 322.113 404.474 C 319.106 407.481 315.028 409.17 310.776 409.17 L 238.114 409.17 C 230.128 409.17 222.725 414.627 221.443 422.51 C 219.809 432.554 227.519 441.235 237.256 441.235 L 246.642 460.006 C 250.716 468.153 259.043 473.299 268.151 473.299 L 445.675 473.299 L 485.753 473.299 L 622.03 473.299 C 675.756 473.299 719.194 429.255 718.207 375.304 C 717.238 322.348 671.804 280.912 618.839 280.912 Z"/>
    <path style="fill:#89AA4F;" d="M 362.763 377.105 C 354.259 377.105 346.103 380.483 340.09 386.496 L 322.113 404.473 C 319.106 407.48 315.028 409.169 310.776 409.169 L 238.114 409.169 C 230.128 409.169 222.725 414.626 221.443 422.509 C 219.809 432.553 227.519 441.234 237.256 441.234 L 246.641 460.005 C 250.715 468.152 259.042 473.299 268.151 473.299 L 549.885 473.299 L 549.885 473.299 C 549.885 464.445 534.691 449.251 525.837 449.251 L 393.084 449.251 C 371.861 449.251 353.893 440.738 353.116 419.529 C 352.701 408.187 355.79 394.121 365.513 377.106 L 362.763 377.106 L 362.763 377.105 Z"/>
    <g transform="matrix(1, 0, 0, 1, 213.723175, 113.089256)">
      <path style="fill:#7E9A52;" d="M215.919,336.161v24.048h-32.065c-14.107,0-26.086,9.11-30.375,21.767 c-1.719,5.072,2.357,10.297,7.712,10.297h86.792c13.282,0,24.048-10.767,24.048-24.048V336.16c0-8.854-7.178-16.032-16.032-16.032 h-24.048C223.097,320.129,215.919,327.307,215.919,336.161z"/>
      <path style="fill:#7E9A52;" d="M400.29,344.178v16.032h-32.065c-14.107,0-26.086,9.11-30.375,21.767 c-1.719,5.072,2.357,10.297,7.712,10.297h86.792c13.282,0,24.048-10.767,24.048-24.048v-24.048c0-8.854-7.178-16.032-16.032-16.032 h-24.048C407.468,328.145,400.29,335.323,400.29,344.178z"/>
    </g>
    <circle style="fill:#6F6571;" cx="365.513" cy="393.139" r="16.03"/>
    <path style="fill:#89AA4F;" d="M 638.062 296.944 L 597.981 296.944 C 541.868 296.944 513.413 265.472 500.221 249.669 C 498.246 250.768 497.111 253.315 498.766 255.682 C 515.34 279.376 548.908 312.977 605.997 312.977 L 628.322 312.977 C 649.256 312.977 667.95 328.281 669.937 349.12 C 672.217 373.026 653.48 393.138 630.045 393.138 L 638.061 393.138 C 664.624 393.138 686.158 371.604 686.158 345.041 C 686.158 318.478 664.625 296.944 638.062 296.944 Z"/>
    <path d="M 725.723 377.105 C 725.723 319.928 679.206 273.412 622.03 273.412 L 589.314 273.412 C 560.507 273.412 532.598 263.088 510.726 244.341 L 490.637 227.121 C 488.015 224.873 484.198 224.707 481.39 226.717 C 478.582 228.728 477.51 232.395 478.792 235.601 C 479.141 236.474 487.57 257.218 507.372 278.062 C 525.754 297.412 557.787 320.477 605.997 320.477 L 630.045 320.477 C 648.01 320.477 662.626 335.093 662.626 353.058 C 662.626 361.014 659.728 368.674 654.465 374.626 C 651.722 377.73 652.013 382.469 655.116 385.213 C 658.22 387.955 662.959 387.665 665.703 384.562 C 673.391 375.865 677.626 364.677 677.626 353.058 C 677.626 326.822 656.281 305.477 630.045 305.477 L 605.997 305.477 C 572.234 305.477 543.178 293.256 519.618 269.154 C 540.562 281.678 564.645 288.413 589.313 288.413 L 622.029 288.413 C 670.935 288.413 710.722 328.201 710.722 377.107 C 710.722 404.295 698.107 429.897 677.13 446.589 C 676.055 443.763 673.328 441.751 670.125 441.751 C 665.983 441.751 662.625 445.108 662.625 449.251 L 662.625 481.315 C 662.625 490.44 655.202 497.864 646.077 497.864 L 558.554 497.864 C 561.731 487.975 571.017 480.8 581.948 480.8 L 630.045 480.8 C 634.187 480.8 637.545 477.443 637.545 473.3 C 637.545 469.157 634.187 465.8 630.045 465.8 L 621.513 465.8 L 621.513 457.268 C 621.513 453.125 618.155 449.768 614.013 449.768 C 609.871 449.768 606.513 453.125 606.513 457.268 L 606.513 465.8 L 493.255 465.8 L 493.255 457.268 C 493.255 453.125 489.897 449.768 485.755 449.768 C 481.613 449.768 478.255 453.125 478.255 457.268 L 478.255 473.242 C 478.255 473.262 478.252 473.281 478.252 473.3 C 478.252 473.319 478.255 473.338 478.255 473.358 L 478.255 481.316 C 478.255 490.441 470.832 497.865 461.707 497.865 L 374.184 497.865 C 377.361 487.976 386.647 480.801 397.578 480.801 L 445.675 480.801 C 449.817 480.801 453.175 477.444 453.175 473.301 C 453.175 469.158 449.817 465.801 445.675 465.801 L 437.143 465.801 L 437.143 457.269 C 437.143 453.126 433.785 449.769 429.643 449.769 C 425.501 449.769 422.143 453.126 422.143 457.269 L 422.143 465.801 L 268.15 465.801 C 261.841 465.801 256.17 462.296 253.348 456.653 L 249.39 448.737 L 285.868 448.737 L 285.868 449.253 C 285.868 453.396 289.226 456.753 293.368 456.753 C 297.51 456.753 300.868 453.396 300.868 449.253 L 300.868 448.737 L 348.035 448.737 C 355.382 448.737 362.74 447 369.313 443.714 L 376.883 439.929 C 380.588 438.076 382.089 433.572 380.237 429.866 C 378.385 426.16 373.881 424.662 370.174 426.512 L 362.605 430.297 C 358.104 432.547 353.065 433.736 348.034 433.736 L 268.804 433.736 L 268.804 433.219 C 268.804 429.076 265.446 425.719 261.304 425.719 C 257.162 425.719 253.804 429.076 253.804 433.219 L 253.804 433.736 L 237.255 433.736 C 232.55 433.736 228.723 429.909 228.723 425.204 C 228.723 420.499 232.551 416.672 237.255 416.672 L 317.416 416.672 C 319.405 416.672 321.313 415.882 322.719 414.475 L 342.071 395.124 C 343.083 407.174 353.207 416.672 365.513 416.672 C 378.489 416.672 389.045 406.115 389.045 393.14 C 389.045 390.131 388.471 387.255 387.437 384.608 L 412.192 384.608 C 420.004 384.608 427.563 387.419 433.477 392.521 L 436.262 394.924 C 440.534 398.61 445.994 400.64 451.635 400.64 L 630.045 400.64 C 634.187 400.64 637.545 397.283 637.545 393.14 C 637.545 388.997 634.187 385.64 630.045 385.64 L 451.635 385.64 C 449.59 385.64 447.61 384.904 446.061 383.568 L 443.277 381.165 C 434.64 373.713 423.601 369.608 412.193 369.608 L 362.763 369.608 C 352.195 369.608 342.26 373.723 334.787 381.195 L 314.31 401.673 L 237.255 401.673 C 224.28 401.67 213.723 412.227 213.723 425.202 C 213.723 436.5 221.728 445.961 232.362 448.219 L 239.932 463.359 C 245.31 474.116 256.123 480.798 268.15 480.798 L 366.597 480.798 C 361.231 487.552 358.013 496.086 358.013 505.362 C 358.013 509.505 361.371 512.862 365.513 512.862 L 461.706 512.862 C 479.102 512.862 493.254 498.71 493.254 481.313 L 493.254 480.797 L 550.967 480.797 C 545.601 487.551 542.383 496.085 542.383 505.361 C 542.383 509.504 545.741 512.861 549.883 512.861 L 646.077 512.861 C 663.473 512.861 677.625 498.709 677.625 481.312 L 677.625 464.632 C 707.397 445.678 725.723 412.543 725.723 377.105 Z M 374.046 393.138 C 374.046 397.843 370.218 401.67 365.514 401.67 C 360.81 401.67 356.982 397.843 356.982 393.138 C 356.982 388.433 360.81 384.606 365.514 384.606 C 370.218 384.606 374.046 388.433 374.046 393.138 Z" style="visibility: hidden;"/>
    <g transform="matrix(1, 0, 0, 1, 213.723175, 113.089256)"/>
    <g transform="matrix(1, 0, 0, 1, 213.723175, 113.089256)"/>
    <g transform="matrix(1, 0, 0, 1, 213.723175, 113.089256)"/>
    <g transform="matrix(1, 0, 0, 1, 213.723175, 113.089256)"/>
    <g transform="matrix(1, 0, 0, 1, 213.723175, 113.089256)"/>
    <g transform="matrix(1, 0, 0, 1, 213.723175, 113.089256)"/>
    <g transform="matrix(1, 0, 0, 1, 213.723175, 113.089256)"/>
    <g transform="matrix(1, 0, 0, 1, 213.723175, 113.089256)"/>
    <g transform="matrix(1, 0, 0, 1, 213.723175, 113.089256)"/>
    <g transform="matrix(1, 0, 0, 1, 213.723175, 113.089256)"/>
    <g transform="matrix(1, 0, 0, 1, 213.723175, 113.089256)"/>
    <g transform="matrix(1, 0, 0, 1, 213.723175, 113.089256)"/>
    <g transform="matrix(1, 0, 0, 1, 213.723175, 113.089256)"/>
    <g transform="matrix(1, 0, 0, 1, 213.723175, 113.089256)"/>
    <g transform="matrix(1, 0, 0, 1, 213.723175, 113.089256)"/>
  </g>
  <g transform="matrix(0.031463, 0, 0, 0.023269, 403.752747, 417.976898)" style="">
    <path d="m181.527 374.541c-.22.44-21.44 45.99-6.75 119.43 1.853 9.267-5.242 17.94-14.71 17.94-45.91 0-86.944-20.307-93.96-66.04-45.74-7.016-66.04-48.06-66.04-93.96 0-9.46 8.66-16.562 17.94-14.71 73.44 14.69 118.99-6.53 119.44-6.75 10.285-4.903 21.826 2.901 21.51 13.91-.08 3.23-.12 6.18-.14 8.8 2.62-.02 5.57-.06 8.8-.14 11.198-.3 18.799 11.376 13.91 21.52z" style="fill: rgba(255, 181, 84, 0.33);"/>
    <path d="m181.527 374.541c-.22.44-21.44 45.99-6.75 119.43 1.853 9.267-5.242 17.94-14.71 17.94-45.91 0-86.944-20.307-93.96-66.04l92.71-92.71c2.62-.02 5.57-.06 8.8-.14 11.198-.3 18.799 11.376 13.91 21.52z" style="fill: rgba(255, 181, 84, 0.33);"/>
    <path d="m358.612 298.376c-33.34 24.05-77.146 40.541-130.2 49.013-7.668 1.225-13.134 8.098-12.6 15.845 3.027 43.879 26.531 82.852 27.53 84.49 3.406 5.584 10.003 8.282 16.298 6.776 3.445-.825 84.68-20.891 109.378-80.301 8.746-21.045 13.369-43.057 13.369-63.657.001-12.214-13.866-19.312-23.775-12.166z" style="fill: rgba(255, 126, 71, 0.47);"/>
    <path d="m283.217 89.941c-67.54 75.05-76.11 181.98-76.19 183.05-.55 7.48-6.54 13.42-14.02 13.89-19.384 1.021-48.352-1.813-75.11-9.56-52.147-15.099-93.243-46.984-115.45-95.12-2.43-5.26-1.61-11.44 2.1-15.89 40.565-48.695 104.454-75.307 166.27-89.04 54.97-12.22 99.39-12.36 101.25-12.36 12.958 0 19.814 15.404 11.15 25.03z" style="fill: rgba(255, 181, 84, 0.33);"/>
    <path d="m136.017 180.631c-30.45 19.03-48.86 44.08-58.94 61.75l-7.89 13.95c-8.77-5.28-16.94-11.19-24.45-17.71l6.25-11.05c11.83-20.72 33.38-50.04 69.13-72.38 7.03-4.39 16.28-2.25 20.67 4.77 4.39 7.03 2.25 16.28-4.77 20.67z" style="fill: rgba(255, 126, 71, 0.47);"/>
    <path d="m402.747 300.151c-44.46 44.46-107.51 66.95-169.6 76.86-35.12 5.59-70.96 6.93-89.91 5.88-7.629-.44-13.708-6.499-14.15-14.15-.02-.39-.53-9.81-.11-25.18 2.22-82.38 24.57-176.04 82.85-234.33 95.088-95.108 249.223-132.74 285.34-94.42 38.5 40.11-.73 191.65-94.42 285.34z" style="fill: rgba(242, 210, 49, 0.78);"/>
    <path d="m402.747 300.151c-44.46 44.46-107.51 66.95-169.6 76.86-35.12 5.59-70.96 6.93-89.91 5.88-3.81-.22-7.25-1.84-9.77-4.38l363.7-363.7c38.5 40.11-.73 191.65-94.42 285.34z" style="fill: rgba(255, 159, 33, 0.41);"/>
    <path d="m511.197 79.191c-2.3 27.7-10.85 60.66-24.08 92.78-173.81-16.41-180.81-131.23-180.81-131.23 37.14-19.32 77.12-32.91 112.58-38.27 24.4-3.69 61.36-5.62 78.28 12.34 14.72 15.32 15.77 43.4 14.03 64.38z" fill="#faf17d"/>
    <path d="m511.197 79.191c-2.3 27.7-10.85 60.66-24.08 92.78-50.48-4.76-86.89-17.83-113.14-33.97l123.19-123.19c14.72 15.32 15.77 43.4 14.03 64.38z" fill="#f2d131"/>
    <path d="m393.137 81.381c-.393-3.785.744-7.802 3.33-10.98 5.175-6.33 14.637-7.374 21.11-2.09 6.367 5.197 7.355 14.669 2.09 21.11-8.707 10.339-25.164 5.156-26.53-8.04z" fill="#966117"/>
  </g>
  <g transform="matrix(-0.030886, -0.006003, -0.00444, 0.022842, 424.039307, 321.380188)" style="">
    <path d="m181.527 374.541c-.22.44-21.44 45.99-6.75 119.43 1.853 9.267-5.242 17.94-14.71 17.94-45.91 0-86.944-20.307-93.96-66.04-45.74-7.016-66.04-48.06-66.04-93.96 0-9.46 8.66-16.562 17.94-14.71 73.44 14.69 118.99-6.53 119.44-6.75 10.285-4.903 21.826 2.901 21.51 13.91-.08 3.23-.12 6.18-.14 8.8 2.62-.02 5.57-.06 8.8-.14 11.198-.3 18.799 11.376 13.91 21.52z" style="fill: rgba(255, 181, 84, 0.33);"/>
    <path d="m181.527 374.541c-.22.44-21.44 45.99-6.75 119.43 1.853 9.267-5.242 17.94-14.71 17.94-45.91 0-86.944-20.307-93.96-66.04l92.71-92.71c2.62-.02 5.57-.06 8.8-.14 11.198-.3 18.799 11.376 13.91 21.52z" style="fill: rgba(255, 181, 84, 0.33);"/>
    <path d="m358.612 298.376c-33.34 24.05-77.146 40.541-130.2 49.013-7.668 1.225-13.134 8.098-12.6 15.845 3.027 43.879 26.531 82.852 27.53 84.49 3.406 5.584 10.003 8.282 16.298 6.776 3.445-.825 84.68-20.891 109.378-80.301 8.746-21.045 13.369-43.057 13.369-63.657.001-12.214-13.866-19.312-23.775-12.166z" style="fill: rgba(255, 126, 71, 0.47);"/>
    <path d="m283.217 89.941c-67.54 75.05-76.11 181.98-76.19 183.05-.55 7.48-6.54 13.42-14.02 13.89-19.384 1.021-48.352-1.813-75.11-9.56-52.147-15.099-93.243-46.984-115.45-95.12-2.43-5.26-1.61-11.44 2.1-15.89 40.565-48.695 104.454-75.307 166.27-89.04 54.97-12.22 99.39-12.36 101.25-12.36 12.958 0 19.814 15.404 11.15 25.03z" style="fill: rgba(255, 181, 84, 0.33);"/>
    <path d="m136.017 180.631c-30.45 19.03-48.86 44.08-58.94 61.75l-7.89 13.95c-8.77-5.28-16.94-11.19-24.45-17.71l6.25-11.05c11.83-20.72 33.38-50.04 69.13-72.38 7.03-4.39 16.28-2.25 20.67 4.77 4.39 7.03 2.25 16.28-4.77 20.67z" style="fill: rgba(255, 126, 71, 0.47);"/>
    <path d="m402.747 300.151c-44.46 44.46-107.51 66.95-169.6 76.86-35.12 5.59-70.96 6.93-89.91 5.88-7.629-.44-13.708-6.499-14.15-14.15-.02-.39-.53-9.81-.11-25.18 2.22-82.38 24.57-176.04 82.85-234.33 95.088-95.108 249.223-132.74 285.34-94.42 38.5 40.11-.73 191.65-94.42 285.34z" style="fill: rgba(242, 210, 49, 0.78);"/>
    <path d="m402.747 300.151c-44.46 44.46-107.51 66.95-169.6 76.86-35.12 5.59-70.96 6.93-89.91 5.88-3.81-.22-7.25-1.84-9.77-4.38l363.7-363.7c38.5 40.11-.73 191.65-94.42 285.34z" style="fill: rgba(255, 159, 33, 0.41);"/>
    <path d="m511.197 79.191c-2.3 27.7-10.85 60.66-24.08 92.78-173.81-16.41-180.81-131.23-180.81-131.23 37.14-19.32 77.12-32.91 112.58-38.27 24.4-3.69 61.36-5.62 78.28 12.34 14.72 15.32 15.77 43.4 14.03 64.38z" fill="#faf17d"/>
    <path d="m511.197 79.191c-2.3 27.7-10.85 60.66-24.08 92.78-50.48-4.76-86.89-17.83-113.14-33.97l123.19-123.19c14.72 15.32 15.77 43.4 14.03 64.38z" fill="#f2d131"/>
    <path d="m393.137 81.381c-.393-3.785.744-7.802 3.33-10.98 5.175-6.33 14.637-7.374 21.11-2.09 6.367 5.197 7.355 14.669 2.09 21.11-8.707 10.339-25.164 5.156-26.53-8.04z" fill="#966117"/>
  </g>
  <g transform="matrix(0.027573, 0, 0, 0.01938, 400.303833, 156.725037)" style="">
    <path d="m181.527 374.541c-.22.44-21.44 45.99-6.75 119.43 1.853 9.267-5.242 17.94-14.71 17.94-45.91 0-86.944-20.307-93.96-66.04-45.74-7.016-66.04-48.06-66.04-93.96 0-9.46 8.66-16.562 17.94-14.71 73.44 14.69 118.99-6.53 119.44-6.75 10.285-4.903 21.826 2.901 21.51 13.91-.08 3.23-.12 6.18-.14 8.8 2.62-.02 5.57-.06 8.8-.14 11.198-.3 18.799 11.376 13.91 21.52z" style="fill: rgba(255, 181, 84, 0.33);"/>
    <path d="m181.527 374.541c-.22.44-21.44 45.99-6.75 119.43 1.853 9.267-5.242 17.94-14.71 17.94-45.91 0-86.944-20.307-93.96-66.04l92.71-92.71c2.62-.02 5.57-.06 8.8-.14 11.198-.3 18.799 11.376 13.91 21.52z" style="fill: rgba(255, 181, 84, 0.33);"/>
    <path d="m358.612 298.376c-33.34 24.05-77.146 40.541-130.2 49.013-7.668 1.225-13.134 8.098-12.6 15.845 3.027 43.879 26.531 82.852 27.53 84.49 3.406 5.584 10.003 8.282 16.298 6.776 3.445-.825 84.68-20.891 109.378-80.301 8.746-21.045 13.369-43.057 13.369-63.657.001-12.214-13.866-19.312-23.775-12.166z" style="fill: rgba(255, 126, 71, 0.47);"/>
    <path d="m283.217 89.941c-67.54 75.05-76.11 181.98-76.19 183.05-.55 7.48-6.54 13.42-14.02 13.89-19.384 1.021-48.352-1.813-75.11-9.56-52.147-15.099-93.243-46.984-115.45-95.12-2.43-5.26-1.61-11.44 2.1-15.89 40.565-48.695 104.454-75.307 166.27-89.04 54.97-12.22 99.39-12.36 101.25-12.36 12.958 0 19.814 15.404 11.15 25.03z" style="fill: rgba(255, 181, 84, 0.33);"/>
    <path d="m136.017 180.631c-30.45 19.03-48.86 44.08-58.94 61.75l-7.89 13.95c-8.77-5.28-16.94-11.19-24.45-17.71l6.25-11.05c11.83-20.72 33.38-50.04 69.13-72.38 7.03-4.39 16.28-2.25 20.67 4.77 4.39 7.03 2.25 16.28-4.77 20.67z" style="fill: rgba(255, 126, 71, 0.47);"/>
    <path d="m402.747 300.151c-44.46 44.46-107.51 66.95-169.6 76.86-35.12 5.59-70.96 6.93-89.91 5.88-7.629-.44-13.708-6.499-14.15-14.15-.02-.39-.53-9.81-.11-25.18 2.22-82.38 24.57-176.04 82.85-234.33 95.088-95.108 249.223-132.74 285.34-94.42 38.5 40.11-.73 191.65-94.42 285.34z" style="fill: rgba(242, 210, 49, 0.78);"/>
    <path d="m402.747 300.151c-44.46 44.46-107.51 66.95-169.6 76.86-35.12 5.59-70.96 6.93-89.91 5.88-3.81-.22-7.25-1.84-9.77-4.38l363.7-363.7c38.5 40.11-.73 191.65-94.42 285.34z" style="fill: rgba(255, 159, 33, 0.41);"/>
    <path d="m511.197 79.191c-2.3 27.7-10.85 60.66-24.08 92.78-173.81-16.41-180.81-131.23-180.81-131.23 37.14-19.32 77.12-32.91 112.58-38.27 24.4-3.69 61.36-5.62 78.28 12.34 14.72 15.32 15.77 43.4 14.03 64.38z" fill="#faf17d"/>
    <path d="m511.197 79.191c-2.3 27.7-10.85 60.66-24.08 92.78-50.48-4.76-86.89-17.83-113.14-33.97l123.19-123.19c14.72 15.32 15.77 43.4 14.03 64.38z" fill="#f2d131"/>
    <path d="m393.137 81.381c-.393-3.785.744-7.802 3.33-10.98 5.175-6.33 14.637-7.374 21.11-2.09 6.367 5.197 7.355 14.669 2.09 21.11-8.707 10.339-25.164 5.156-26.53-8.04z" fill="#966117"/>
  </g>
  <g transform="matrix(-0.031463, 0, 0, 0.023269, 418.446411, 40.319096)" style="">
    <path d="m181.527 374.541c-.22.44-21.44 45.99-6.75 119.43 1.853 9.267-5.242 17.94-14.71 17.94-45.91 0-86.944-20.307-93.96-66.04-45.74-7.016-66.04-48.06-66.04-93.96 0-9.46 8.66-16.562 17.94-14.71 73.44 14.69 118.99-6.53 119.44-6.75 10.285-4.903 21.826 2.901 21.51 13.91-.08 3.23-.12 6.18-.14 8.8 2.62-.02 5.57-.06 8.8-.14 11.198-.3 18.799 11.376 13.91 21.52z" style="fill: rgba(255, 181, 84, 0.33);"/>
    <path d="m181.527 374.541c-.22.44-21.44 45.99-6.75 119.43 1.853 9.267-5.242 17.94-14.71 17.94-45.91 0-86.944-20.307-93.96-66.04l92.71-92.71c2.62-.02 5.57-.06 8.8-.14 11.198-.3 18.799 11.376 13.91 21.52z" style="fill: rgba(255, 181, 84, 0.33);"/>
    <path d="m358.612 298.376c-33.34 24.05-77.146 40.541-130.2 49.013-7.668 1.225-13.134 8.098-12.6 15.845 3.027 43.879 26.531 82.852 27.53 84.49 3.406 5.584 10.003 8.282 16.298 6.776 3.445-.825 84.68-20.891 109.378-80.301 8.746-21.045 13.369-43.057 13.369-63.657.001-12.214-13.866-19.312-23.775-12.166z" style="fill: rgba(255, 126, 71, 0.47);"/>
    <path d="m283.217 89.941c-67.54 75.05-76.11 181.98-76.19 183.05-.55 7.48-6.54 13.42-14.02 13.89-19.384 1.021-48.352-1.813-75.11-9.56-52.147-15.099-93.243-46.984-115.45-95.12-2.43-5.26-1.61-11.44 2.1-15.89 40.565-48.695 104.454-75.307 166.27-89.04 54.97-12.22 99.39-12.36 101.25-12.36 12.958 0 19.814 15.404 11.15 25.03z" style="fill: rgba(255, 181, 84, 0.33);"/>
    <path d="m136.017 180.631c-30.45 19.03-48.86 44.08-58.94 61.75l-7.89 13.95c-8.77-5.28-16.94-11.19-24.45-17.71l6.25-11.05c11.83-20.72 33.38-50.04 69.13-72.38 7.03-4.39 16.28-2.25 20.67 4.77 4.39 7.03 2.25 16.28-4.77 20.67z" style="fill: rgba(255, 126, 71, 0.47);"/>
    <path d="m402.747 300.151c-44.46 44.46-107.51 66.95-169.6 76.86-35.12 5.59-70.96 6.93-89.91 5.88-7.629-.44-13.708-6.499-14.15-14.15-.02-.39-.53-9.81-.11-25.18 2.22-82.38 24.57-176.04 82.85-234.33 95.088-95.108 249.223-132.74 285.34-94.42 38.5 40.11-.73 191.65-94.42 285.34z" style="fill: rgba(242, 210, 49, 0.78);"/>
    <path d="m402.747 300.151c-44.46 44.46-107.51 66.95-169.6 76.86-35.12 5.59-70.96 6.93-89.91 5.88-3.81-.22-7.25-1.84-9.77-4.38l363.7-363.7c38.5 40.11-.73 191.65-94.42 285.34z" style="fill: rgba(255, 159, 33, 0.41);"/>
    <path d="m511.197 79.191c-2.3 27.7-10.85 60.66-24.08 92.78-173.81-16.41-180.81-131.23-180.81-131.23 37.14-19.32 77.12-32.91 112.58-38.27 24.4-3.69 61.36-5.62 78.28 12.34 14.72 15.32 15.77 43.4 14.03 64.38z" fill="#faf17d"/>
    <path d="m511.197 79.191c-2.3 27.7-10.85 60.66-24.08 92.78-50.48-4.76-86.89-17.83-113.14-33.97l123.19-123.19c14.72 15.32 15.77 43.4 14.03 64.38z" fill="#f2d131"/>
    <path d="m393.137 81.381c-.393-3.785.744-7.802 3.33-10.98 5.175-6.33 14.637-7.374 21.11-2.09 6.367 5.197 7.355 14.669 2.09 21.11-8.707 10.339-25.164 5.156-26.53-8.04z" fill="#966117"/>
  </g>
  <g id="Fill_out_line" data-name="Fill out line" transform="matrix(-0.056415, 0, 0, 0.05683, 492.899841, 28.055902)" style="">
    <path d="m24 136h336v256h-336z" fill="#2d80b4"/>
    <path d="m360 392h128v-328l-128 72z" fill="#396796"/>
    <path d="m488 64-128 72h-336l128-72z" fill="#2f4054"/>
    <path d="m24 208h336v16h-336z" fill="#396796"/>
    <g fill="#2d80b4">
      <path d="m384 152h16v240h-16z"/>
      <path d="m416 136h16v256h-16z"/>
      <path d="m448 120h16v272h-16z"/>
    </g>
    <path d="m208 344v-104h32v32h32v-32h32v104z" fill="#c5d5e1"/>
    <path d="m93.65685 341.65685 58.34315 58.34315 40-40-58.34315-58.34315a8 8 0 0 0 -11.3137 0l-28.6863 28.6863a8 8 0 0 0 0 11.3137z" fill="#c5d5e1"/>
    <path d="m96 328-18.34315-18.34315a8 8 0 0 1 0-11.3137l12.6863-12.6863a8 8 0 0 1 11.3137 0l18.34315 18.34315z" fill="#a7b3bd"/>
    <path d="m296 344a23.99432 23.99432 0 0 0 -41.21191-16.71741 31.99686 31.99686 0 0 0 -62.58252 5.12732 31.99867 31.99867 0 0 0 -46.60157 37.59473 24.00029 24.00029 0 1 0 -9.604 45.99536h184v-72z" fill="#ae7d4d"/>
    <path d="m461.08831 325.08831-37.08831-37.08831h-80l-37.08831 37.08831c-45.35747 45.35747-13.23346 122.91169 50.91169 122.91169h52.35324c64.14515 0 96.26916-77.55422 50.91169-122.91169z" fill="#2f4054"/>
    <rect fill="#ae7d4d" height="24" rx="12" width="112" x="328" y="264"/>
    <path d="m336 240v-16a16 16 0 0 1 16-16 16 16 0 0 1 16 16 16 16 0 0 0 16 16 16 16 0 0 0 16-16 16 16 0 0 1 16-16 16 16 0 0 1 16 16v16a24 24 0 0 1 -24 24h-48a24 24 0 0 1 -24-24z" fill="#2f4054"/>
    <path d="m439.58569 292.272a19.95466 19.95466 0 0 0 -4.66186-35.01074 31.79962 31.79962 0 0 0 5.07617-17.26126v-16a24 24 0 0 0 -48 0 8 8 0 0 1 -16 0 24 24 0 0 0 -48 0v16a31.79962 31.79962 0 0 0 5.07617 17.26123 19.95466 19.95466 0 0 0 -4.66186 35.01074l-16.41431 16.41443v-68.6864a8.00008 8.00008 0 0 0 -8-8h-32a8.00008 8.00008 0 0 0 -8 8v24h-16v-24a8.00008 8.00008 0 0 0 -8-8h-32a8.00008 8.00008 0 0 0 -8 8v63.97827a39.91555 39.91555 0 0 0 -13.28125 17.48511 39.89592 39.89592 0 0 0 -21.82422.11706l-25.58105-25.58144a16.02894 16.02894 0 0 0 -18.81543-2.81518l-13.18457-13.18482a16.02162 16.02162 0 0 0 -22.62793.001l-12.68455 12.68555a15.99888 15.99888 0 0 0 -.001 22.62793l13.17773 13.178a16.01917 16.01917 0 0 0 2.82227 18.822l23.793 23.79333a31.974 31.974 0 0 0 24.207 52.89319h157.69775c14.78663 20.10144 37.99024 32 64.12549 32h52.35352c32.97168 0 61.292-18.92334 73.91015-49.38525 12.61719-30.46192 5.97266-63.86866-17.34179-87.18311zm-99.58569-12.272a4 4 0 0 1 0-8h88a4 4 0 0 1 0 8zm4-56a8 8 0 0 1 16 0 24 24 0 0 0 48 0 8 8 0 0 1 16 0v16a16.01833 16.01833 0 0 1 -16 16h-48a16.01833 16.01833 0 0 1 -16-16zm-128 24h16v24a8.00008 8.00008 0 0 0 8 8h32a8.00008 8.00008 0 0 0 8-8v-24h16v74.8335a32.06023 32.06023 0 0 0 -37.87891-7.68653 40.01115 40.01115 0 0 0 -42.12109-18.34297zm-120 43.31348 12.686 12.68628-12.68576 12.68624-12.68579-12.686zm32 16 4.68628 4.68628-18.34351 18.3435 11.31446 11.31348 18.34277-18.3429 6.1748 6.17493a39.92033 39.92033 0 0 0 -14.1748 30.51123 31.8448 31.8448 0 0 0 -10.80444 1.88159l-25.88111-25.88159zm8 100.68652a16 16 0 1 1 6.39746-30.66553 7.99979 7.99979 0 0 0 10.80566-9.82812 23.99692 23.99692 0 0 1 34.94336-28.20215 7.99955 7.99955 0 0 0 12.00879-6.00586 23.99746 23.99746 0 0 1 46.93457-3.83984 7.99965 7.99965 0 0 0 13.43653 3.39843 15.99542 15.99542 0 0 1 26.48852 5.6073c-11.18384 20.68921-12.58667 45.25135-3.1018 68.15052.1936.46728.40234.92334.603 1.38525zm333.30469-7.5083a63.01011 63.01011 0 0 1 -59.12793 39.5083h-52.35352a63.99971 63.99971 0 0 1 -45.2539-109.25488l34.74466-34.74512h3.29883a116.37968 116.37968 0 0 0 -22.61283 69.25488v26.74512h16v-26.74512a100.53635 100.53635 0 0 1 27.395-69.25488h17.21a100.53635 100.53635 0 0 1 27.395 69.25488v26.74512h16v-26.74512a116.37968 116.37968 0 0 0 -22.61279-69.25488h11.29879l34.74462 34.74512a63.00948 63.00948 0 0 1 13.87407 69.74658z"/>
    <path d="m492.03906 57.09424a7.99671 7.99671 0 0 0 -4.03906-1.08972v-.00452h-336a8.00073 8.00073 0 0 0 -3.92188 1.02734l-127.8833 71.93433-.02246.0127-.09424.053.00171.00318a7.99307 7.99307 0 0 0 -4.07983 6.96945v256a8.00008 8.00008 0 0 0 8 8h64v-16h-56v-160h280v-16h-280v-64h320v40h16v-43.32129l112-63v234.32129h16v-248a8.00037 8.00037 0 0 0 -3.96094-6.90576zm-168.6997 70.90576 44.49264-25.02734-7.84375-13.94532-69.2839 38.97266h-34.56519l44.49268-25.02734-7.84375-13.94532-69.28394 38.97266h-34.56445l44.49194-25.02734-7.84375-13.94532-69.28296 38.97266h-34.56543l44.49195-25.02734-7.84375-13.94532-69.28296 38.97266h-34.56474l99.5557-56h303.3643l-99.55542 56z"/>
    <path d="m384 152h16v40h-16z"/>
    <path d="m416 136h16v48h-16z"/>
    <path d="m448 120h16v128h-16z"/>
    <path d="m244 344a28.03216 28.03216 0 0 0 -25.34668 16.11865c-.876-.07226-1.759-.11865-2.65332-.11865a32.03635 32.03635 0 0 0 -32 32h16a16 16 0 0 1 32 0h16a31.99155 31.99155 0 0 0 -14.07544-26.495 11.99036 11.99036 0 0 1 22.07544 6.495h16a28.03146 28.03146 0 0 0 -28-28z"/>
  </g>
  <rect x="495.836" y="84.104" width="5.973" height="13.936" style="fill: rgb(174, 119, 119);"/>
  <rect x="493.845" y="100.031" width="11.945" height="7.963" style="fill: rgb(174, 119, 119);"/>
  <rect x="484.886" y="81.118" width="7.963" height="6.968" style="fill: rgb(174, 119, 119);"/>
  <rect x="483.891" y="89.081" width="7.963" height="4.977" style="fill: rgb(174, 119, 119);"/>
  <rect x="483.891" y="96.049" width="7.963" height="5.973" style="fill: rgb(174, 119, 119);"/>
  <rect x="472.941" y="81.118" width="8.959" height="6.968" style="fill: rgb(174, 119, 119);"/>
  <rect x="469.955" y="90.076" width="9.954" height="4.977" style="fill: rgb(174, 119, 119);"/>
  <rect x="472.941" y="97.045" width="5.973" height="3.982" style="fill: rgb(174, 119, 119);"/>
  <rect x="460.001" y="79.126" width="6.968" height="5.973" style="fill: rgb(174, 119, 119);"/>
  <rect x="460.996" y="85.1" width="5.973" height="8.959" style="fill: rgb(174, 119, 119);"/>
  <rect x="460.996" y="97.045" width="8.959" height="2.986" style="fill: rgb(174, 119, 119);"/>
  <rect x="446.065" y="78.132" width="7.963" height="5.973" style="fill: rgb(174, 119, 119);"/>
  <rect x="448.055" y="85.1" width="4.977" height="9.954" style="fill: rgb(174, 119, 119);"/>
  <rect x="452.037" y="97.045" width="7.963" height="5.973" style="fill: rgb(174, 119, 119);"/>
  <rect x="442.083" y="94.059" width="5.973" height="5.973" style="fill: rgb(174, 119, 119);"/>
  <rect x="438.101" y="84.104" width="4.977" height="1.991" style="fill: rgb(174, 119, 119);"/>
  <g transform="matrix(0.062958, 0, 0, 0.062897, 451.213074, 118.805092)" style="">
    <title>hunter</title>
    <path d="M 546.236 49.885 C 546.232 46.385 545.021 43.174 543.009 40.624 L 514.865 4.94 L 479.521 77.795 L 539.521 77.795 C 547.802 77.795 554.521 71.569 554.521 63.284 C 554.521 57.417 551.146 52.35 546.236 49.885 Z M 546.236 49.885" fill="#f9d4a0"/>
    <path d="M 412.802 49.885 C 412.806 46.385 414.017 43.174 416.029 40.624 L 444.177 4.94 L 479.521 77.795 C 479.521 77.795 427.802 77.795 419.521 77.795 C 411.236 77.795 404.521 71.565 404.521 63.284 C 404.521 57.417 407.896 52.35 412.802 49.885 Z M 412.802 49.885" fill="#ffebcf"/>
    <path d="M 479.521 -12.205 L 479.521 88.795 L 524.521 42.795 L 524.521 32.795 C 524.521 7.944 504.372 -12.205 479.521 -12.205 Z M 479.521 -12.205" fill="#f69b65"/>
    <path d="M 479.521 -12.205 C 454.665 -12.205 434.521 7.944 434.521 32.795 L 434.521 42.795 L 494.521 88.795 L 494.521 32.795 C 494.521 7.944 487.806 -12.205 479.521 -12.205 Z M 479.521 -12.205" fill="#f9b589"/>
    <path d="M 498.228 42.795 C 497.177 41.221 495.927 39.792 494.521 38.534 L 479.521 107.795 C 504.372 107.795 524.521 87.647 524.521 62.795 L 524.521 42.795 Z M 498.228 42.795" fill="#ffebcf"/>
    <path d="M 494.521 62.795 L 494.521 38.534 C 490.54 34.967 485.287 32.795 479.521 32.795 C 471.72 32.795 464.849 36.764 460.81 42.795 L 434.521 42.795 L 434.521 62.795 C 434.521 87.647 454.665 107.795 479.521 107.795 C 487.806 107.795 494.521 87.647 494.521 62.795 Z M 494.521 62.795" fill="#fff"/>
    <path d="M 479.521 197.795 L 509.521 272.795 L 539.521 287.795 L 539.521 242.795 Z M 479.521 197.795" fill="#967151"/>
    <path d="M 419.521 242.795 L 419.521 287.795 L 449.521 272.795 L 479.521 287.795 L 509.521 272.795 L 509.521 197.795 Z M 419.521 242.795" fill="#cb9851"/>
    <path d="M 569.521 107.795 L 509.521 107.795 L 464.521 167.795 L 509.521 227.795 L 539.521 242.795 L 539.521 172.737 C 547.029 162.733 552.103 150.795 553.837 137.795 L 599.521 137.795 C 599.521 121.225 586.087 107.795 569.521 107.795 Z M 569.521 107.795" fill="#f9d4a0"/>
    <path d="M 479.521 107.795 L 419.521 197.795 L 419.521 242.795 L 449.521 227.795 L 479.521 242.795 L 509.521 227.795 L 509.521 107.795 Z M 479.521 107.795" fill="#ffebcf"/>
    <path d="M 479.521 152.795 L 479.521 107.795 L 389.521 107.795 C 372.951 107.795 359.521 121.225 359.521 137.795 L 405.204 137.795 C 406.939 150.795 412.013 162.733 419.521 172.737 L 419.521 197.795 L 434.521 197.795 C 459.372 197.795 479.521 177.647 479.521 152.795 Z M 479.521 152.795" fill="#f9b589"/>
    <path d="M 457.021 137.795 C 457.021 141.936 453.662 145.295 449.521 145.295 C 445.376 145.295 442.021 141.936 442.021 137.795 C 442.021 133.651 445.376 130.295 449.521 130.295 C 453.662 130.295 457.021 133.651 457.021 137.795 Z M 457.021 137.795" fill="#f38042"/>
    <path d="M 344.521 -27.205 C 344.521 -44.091 338.939 -59.669 329.521 -72.205 C 320.103 -59.669 314.521 -44.091 314.521 -27.205 C 314.521 -18.919 321.236 -12.205 329.521 -12.205 C 337.806 -12.205 344.521 -18.919 344.521 -27.205 Z M 344.521 -27.205" fill="#a3e9d9"/>
    <path d="M 606.326 130.639 C 602.974 113.374 587.751 100.295 569.521 100.295 L 516.212 100.295 C 520.615 95.987 524.263 90.917 526.943 85.295 L 539.521 85.295 C 552.138 85.295 562.021 75.627 562.021 63.284 C 562.021 56.213 558.767 49.725 553.31 45.514 C 552.63 42.053 551.138 38.815 548.9 35.979 L 520.755 0.295 C 520.603 0.1 520.439 -0.083 520.271 -0.259 C 510.638 -12.111 495.951 -19.705 479.521 -19.705 C 462.747 -19.705 447.798 -11.791 438.181 0.491 C 437.818 0.917 437.458 1.362 437.091 1.823 L 410.142 35.979 C 407.904 38.819 406.408 42.057 405.728 45.514 C 400.271 49.725 397.021 56.213 397.021 63.284 C 397.021 75.627 406.904 85.295 419.521 85.295 L 432.095 85.295 C 434.775 90.917 438.427 95.987 442.826 100.295 L 389.521 100.295 C 371.412 100.295 356.259 113.198 352.775 130.295 L 337.021 130.295 L 337.021 -5.994 C 345.747 -9.091 352.021 -17.427 352.021 -27.205 C 352.021 -45.22 346.314 -62.337 335.517 -76.708 C 334.099 -78.595 331.88 -79.705 329.521 -79.705 C 327.162 -79.705 324.939 -78.595 323.525 -76.708 C 312.728 -62.337 307.021 -45.22 307.021 -27.205 C 307.021 -17.427 313.29 -9.091 322.021 -5.994 L 322.021 100.295 L 314.521 100.295 C 302.115 100.295 292.021 110.389 292.021 122.795 C 292.021 135.202 302.115 145.295 314.521 145.295 L 322.021 145.295 L 322.021 328.795 L 319.521 328.795 C 315.38 328.795 312.021 332.151 312.021 336.295 C 312.021 340.436 315.38 343.795 319.521 343.795 L 322.021 343.795 L 322.021 424.792 C 322.021 428.936 325.38 432.292 329.521 432.292 C 333.662 432.292 337.021 428.936 337.021 424.792 L 337.021 213.795 L 339.521 213.795 C 343.662 213.795 347.021 210.436 347.021 206.295 C 347.021 202.151 343.662 198.795 339.521 198.795 L 337.021 198.795 L 337.021 145.295 L 398.908 145.295 C 401.232 155.983 405.697 166.174 412.021 175.174 L 412.021 287.795 C 412.021 290.393 413.365 292.807 415.576 294.174 C 417.787 295.542 420.552 295.667 422.872 294.502 L 442.021 284.928 L 442.021 409.389 L 417.15 417.678 C 413.22 418.987 411.095 423.237 412.404 427.167 C 413.451 430.307 416.38 432.295 419.517 432.295 C 420.306 432.295 421.103 432.17 421.892 431.909 L 451.892 421.909 C 454.954 420.889 457.021 418.022 457.021 414.795 L 457.021 284.928 L 476.165 294.502 C 478.275 295.557 480.763 295.557 482.872 294.502 L 502.021 284.928 L 502.021 414.795 C 502.021 418.022 504.083 420.889 507.146 421.909 L 537.146 431.909 C 537.935 432.17 538.732 432.295 539.521 432.295 C 542.662 432.295 545.587 430.307 546.634 427.167 C 547.943 423.237 545.822 418.987 541.888 417.678 L 517.017 409.389 L 517.017 284.928 L 536.165 294.502 C 537.224 295.03 538.372 295.295 539.517 295.295 C 540.888 295.295 542.255 294.917 543.462 294.174 C 545.673 292.807 547.017 290.393 547.017 287.795 L 547.017 175.174 C 553.341 166.174 557.806 155.983 560.13 145.295 L 599.517 145.295 C 628.466 145.295 652.017 168.846 652.017 197.795 C 652.017 201.936 655.376 205.295 659.517 205.295 C 663.658 205.295 667.017 201.936 667.017 197.795 C 667.021 162.874 640.361 134.061 606.326 130.639 Z M 329.521 -58.173 C 334.451 -48.669 337.021 -38.138 337.021 -27.205 C 337.021 -23.068 333.658 -19.708 329.525 -19.705 C 325.384 -19.708 322.021 -23.068 322.021 -27.205 C 322.021 -38.138 324.591 -48.669 329.521 -58.173 Z M 314.521 130.295 C 310.384 130.295 307.021 126.932 307.021 122.795 C 307.021 118.659 310.384 115.295 314.521 115.295 L 322.021 115.295 L 322.021 130.295 Z M 538.736 49.893 C 538.74 52.725 540.337 55.315 542.869 56.588 C 545.427 57.874 547.017 60.44 547.017 63.284 C 547.017 67.28 543.794 70.295 539.517 70.295 L 531.474 70.295 C 531.826 67.842 532.021 65.342 532.021 62.795 L 532.021 38.799 L 537.122 45.272 C 537.857 46.202 538.736 47.76 538.736 49.893 Z M 479.521 -4.705 C 500.197 -4.705 517.021 12.116 517.021 32.795 L 517.021 35.295 L 501.88 35.295 C 496.228 28.971 488.134 25.295 479.521 25.295 C 470.904 25.295 462.814 28.971 457.158 35.295 L 442.021 35.295 L 442.021 32.795 C 442.021 12.116 458.841 -4.705 479.521 -4.705 Z M 419.521 70.295 C 415.244 70.295 412.021 67.28 412.021 63.284 C 412.021 60.44 413.611 57.874 416.169 56.588 C 418.701 55.315 420.298 52.725 420.302 49.893 C 420.306 47.76 421.181 46.202 421.919 45.268 C 423.283 43.542 425.044 41.303 427.021 38.799 L 427.021 62.795 C 427.021 65.342 427.212 67.842 427.564 70.295 Z M 442.021 62.795 L 442.021 50.295 L 460.814 50.295 C 463.314 50.295 465.654 49.045 467.044 46.967 C 469.841 42.788 474.505 40.295 479.521 40.295 C 484.537 40.295 489.201 42.788 491.997 46.967 C 493.388 49.045 495.728 50.295 498.228 50.295 L 517.021 50.295 L 517.021 62.795 C 517.021 83.471 500.197 100.295 479.521 100.295 C 458.841 100.295 442.021 83.471 442.021 62.795 Z M 412.638 136.803 C 412.142 133.077 408.962 130.295 405.204 130.295 L 368.31 130.295 C 371.408 121.565 379.744 115.295 389.521 115.295 L 472.021 115.295 L 472.021 152.795 C 472.021 173.471 455.197 190.295 434.521 190.295 L 427.021 190.295 L 427.021 172.737 C 427.021 171.116 426.494 169.534 425.521 168.237 C 418.607 159.022 414.15 148.151 412.638 136.803 Z M 512.872 266.084 C 512.833 266.065 512.787 266.049 512.744 266.03 C 512.56 265.944 512.372 265.862 512.181 265.788 C 512.107 265.76 512.037 265.733 511.962 265.709 C 511.771 265.643 511.576 265.584 511.376 265.534 C 511.306 265.514 511.236 265.495 511.162 265.479 C 510.954 265.432 510.744 265.397 510.529 265.37 C 510.466 265.362 510.408 265.346 510.345 265.342 C 510.076 265.311 509.798 265.292 509.521 265.292 C 509.24 265.292 508.966 265.311 508.693 265.342 C 508.63 265.346 508.572 265.362 508.509 265.37 C 508.298 265.397 508.087 265.432 507.876 265.479 C 507.806 265.495 507.736 265.514 507.662 265.534 C 507.462 265.584 507.271 265.643 507.079 265.709 C 507.005 265.733 506.931 265.76 506.857 265.788 C 506.665 265.862 506.478 265.944 506.294 266.03 C 506.251 266.049 506.208 266.065 506.165 266.084 L 479.521 279.409 L 452.872 266.084 C 452.829 266.065 452.787 266.049 452.744 266.03 C 452.56 265.944 452.372 265.862 452.181 265.788 C 452.107 265.76 452.033 265.733 451.958 265.709 C 451.771 265.643 451.576 265.584 451.376 265.534 C 451.306 265.514 451.232 265.495 451.162 265.479 C 450.954 265.432 450.744 265.397 450.529 265.37 C 450.466 265.362 450.408 265.346 450.345 265.342 C 450.072 265.311 449.798 265.292 449.521 265.292 C 449.24 265.292 448.966 265.311 448.693 265.342 C 448.63 265.346 448.572 265.362 448.509 265.37 C 448.294 265.397 448.083 265.432 447.876 265.479 C 447.806 265.495 447.732 265.514 447.662 265.534 C 447.462 265.584 447.267 265.643 447.076 265.709 C 447.001 265.733 446.931 265.76 446.857 265.788 C 446.665 265.862 446.478 265.944 446.294 266.03 C 446.251 266.049 446.204 266.065 446.165 266.084 L 427.017 275.659 L 427.017 247.428 L 449.517 236.178 L 476.165 249.502 C 477.22 250.03 478.369 250.295 479.517 250.295 C 480.665 250.295 481.818 250.03 482.872 249.502 L 509.517 236.178 L 532.017 247.428 L 532.017 275.659 Z M 553.837 130.295 C 550.076 130.295 546.9 133.077 546.404 136.803 C 544.888 148.151 540.435 159.022 533.521 168.237 C 532.544 169.534 532.021 171.116 532.021 172.737 L 532.021 230.659 L 512.872 221.084 C 510.763 220.03 508.279 220.03 506.165 221.084 L 479.521 234.409 L 452.872 221.084 C 450.763 220.03 448.279 220.03 446.165 221.084 L 427.021 230.659 L 427.021 205.295 L 434.521 205.295 C 463.47 205.295 487.021 181.745 487.021 152.795 L 487.021 115.295 L 569.521 115.295 C 579.298 115.295 587.634 121.565 590.728 130.295 Z M 553.837 130.295"/>
  </g>
</svg>