<svg id="Layer_3" enable-background="new 0 0 64 64" height="512" viewBox="0 0 64 64" width="512" xmlns="http://www.w3.org/2000/svg"><g><g><path d="m26 25.999h2v5h-2z" fill="#d76e31"/></g><g><path d="m36 25.999h2v5h-2z" fill="#d76e31"/></g><g fill="#d76e31"><path d="m49 40 9-3 4-7-3-2-3 6-7.185 2.053"/><path d="m15 40-9-3-4-7 3-2 3 6 7.08 2.023"/><path d="m15 50-9 3-4 7 3 2 3-6 7.865-2.247"/><path d="m49 50 9 3 4 7-3 2-3-6-7.693-2.198"/><path d="m15.876 33.876c1.054-1.725 2.955-2.876 5.124-2.876 0-3.201-1.272-6.272-3.536-8.536l-.464-.464-.879.879c-1.123 1.123-2.576 1.839-4.131 2.053l.01.068c0 3.201 1.272 6.272 3.536 8.536z"/><path d="m48.114 33.876c-1.054-1.725-2.954-2.876-5.123-2.876 0-3.201 1.272-6.272 3.536-8.536l.464-.464.879.879c1.123 1.123 2.576 1.839 4.131 2.053l-.01.068c0 3.201-1.272 6.272-3.536 8.536z"/><path d="m17.867 14.379.155-.486c.63-3.149.063-6.419-1.589-9.172-.269-.447-.752-.721-1.274-.721-.681 0-1.275.464-1.44 1.125-.465 1.86-1.556 3.503-3.09 4.654l-1.836 1.357c.515.533 1.236.864 2.035.864h1.509c1.098 0 2.187.21 3.206.617.94.376 1.734.993 2.324 1.762z"/></g><path d="m19 17.723c0 1.458-.579 2.857-1.61 3.888l-1.268 1.268c-1.359 1.358-3.201 2.121-5.122 2.121-1.921 0-3.763-.763-5.121-2.121l-2.101-2.101c-1.138-1.138-1.778-2.683-1.778-4.293 0-5.433 2.158-10.643 6-14.485l1.293 1.293c.453.453.707 1.067.707 1.707 0 .64-.254 1.254-.707 1.707l-.465.465c-.53.53-.828 1.249-.828 2 0 1.562 1.266 2.828 2.828 2.828h1.509c1.098 0 2.187.21 3.206.617 2.088.835 3.457 2.857 3.457 5.106z" fill="#ee8041"/><path d="m46.133 14.379-.155-.486c-.63-3.149-.063-6.419 1.589-9.172.269-.447.752-.721 1.274-.721.681 0 1.275.464 1.44 1.125.465 1.86 1.556 3.503 3.09 4.654l1.836 1.357c-.515.533-1.236.864-2.035.864h-1.509c-1.098 0-2.187.21-3.206.617-.94.376-1.734.993-2.324 1.762z" fill="#d76e31"/><path d="m45 17.723c0 1.458.579 2.857 1.61 3.888l1.268 1.268c1.359 1.358 3.201 2.121 5.122 2.121 1.921 0 3.763-.763 5.121-2.121l2.101-2.101c1.138-1.138 1.778-2.683 1.778-4.293 0-5.433-2.158-10.643-6-14.485l-1.293 1.293c-.453.453-.707 1.067-.707 1.707 0 .64.254 1.254.707 1.707l.464.464c.53.53.828 1.25.828 2 .001 1.563-1.265 2.829-2.827 2.829h-1.509c-1.098 0-2.187.21-3.206.617-2.088.835-3.457 2.857-3.457 5.106z" fill="#ee8041"/><path d="m43 57h-22c-3.314 0-6-2.686-6-6v-14c0-3.314 2.686-6 6-6h22c3.314 0 6 2.686 6 6v14c0 3.314-2.686 6-6 6z" fill="#ee8041"/><path d="m27 27c-1.105 0-2-.895-2-2v-2c0-1.105.895-2 2-2 1.105 0 2 .895 2 2v2c0 1.105-.895 2-2 2z" fill="#d5cec2"/><path d="m37 27c-1.105 0-2-.895-2-2v-2c0-1.105.895-2 2-2 1.105 0 2 .895 2 2v2c0 1.105-.895 2-2 2z" fill="#d5cec2"/><path d="m15 42-9 3-4 7 3 2 3-6 7-2" fill="#d76e31"/><path d="m49 42 9 3 4 7-3 2-3-6-7-2" fill="#d76e31"/><g><path d="m32 43.998c-1.584 0-3.073-.843-3.888-2.2-1.035-1.727-2.93-2.799-4.944-2.799h-5.169v-2h5.169c2.713 0 5.265 1.444 6.66 3.771.454.758 1.286 1.229 2.171 1.229.884 0 1.717-.471 2.171-1.229 1.396-2.326 3.947-3.771 6.659-3.771h5.169v2h-5.169c-2.014 0-3.908 1.072-4.943 2.799-.815 1.357-2.304 2.2-3.886 2.2z" fill="#d76e31"/></g><path d="m28.924 22.484c-.228-.853-.999-1.484-1.924-1.484-1.105 0-2 .895-2 2v2c0 .254.052.495.138.718 1.889-.065 3.443-1.43 3.786-3.234z" fill="#e7e4dd"/><path d="m38.924 22.484c-.228-.853-.999-1.484-1.924-1.484-1.105 0-2 .895-2 2v2c0 .254.052.495.138.718 1.889-.065 3.443-1.43 3.786-3.234z" fill="#e7e4dd"/><path d="m12.337 12h-1.509c-1.562 0-2.828-1.266-2.828-2.828 0-.75.298-1.47.828-2l.464-.464c.454-.454.708-1.068.708-1.708s-.254-1.254-.707-1.707l-1.293-1.293c-3.842 3.842-6 9.052-6 14.485 0 1.61.64 3.154 1.778 4.293l2.1 2.101c.331.331.692.626 1.075.884 3.656-2.868 6.389-6.853 7.687-11.444-.748-.208-1.522-.319-2.303-.319z" fill="#f19846"/><path d="m13.719 5.125c-.465 1.86-1.556 3.503-3.09 4.654l-1.836 1.357c.515.533 1.236.864 2.035.864h1.509c.78 0 1.555.111 2.304.318.545-1.928.843-3.96.843-6.062 0-.752-.038-1.495-.111-2.228-.071-.011-.141-.028-.214-.028-.681 0-1.275.464-1.44 1.125z" fill="#ee8041"/><path d="m54.707 3.293c-.453.453-.707 1.067-.707 1.707s.254 1.254.707 1.707l.464.464c.53.53.828 1.25.828 2 .001 1.563-1.265 2.829-2.827 2.829h-1.509c-1.098 0-2.187.21-3.206.617-2.088.835-3.457 2.857-3.457 5.106 0 1.458.579 2.857 1.61 3.888l1.268 1.268c.099.099.206.188.31.281 5.325-1.866 9.151-6.922 9.151-12.884 0-2.736-.813-5.279-2.198-7.416z" fill="#f19846"/></g></svg>