<svg id="Capa_1" enable-background="new 0 0 512 512" height="512" viewBox="0 0 512 512" width="512" xmlns="http://www.w3.org/2000/svg"><g><path d="m5.548 309.26c-3.846-18.174-5.764-37.06-5.529-56.434 1.696-139.93 116.573-253.11 256.513-252.825 132.308.269 241.054 100.908 254.146 229.825.061.598.104 1.464.129 2.567 1.167 50.692-39.868 92.313-90.574 92.313h-395.551c-9.219 0-17.225-6.427-19.134-15.446z" fill="#40c1fa"/><path d="m492 236c0 113.771-92.229 206-206 206s-206-92.229-206-206 92.229-206 206-206 206 92.229 206 206z" fill="#93dcfc"/><path d="m462 234c0 75.111-60.889 136-136 136s-136-60.889-136-136 60.889-136 136-136 136 60.889 136 136z" fill="#fff5f5"/><path d="m444.706 319.706v65.294c0 8.284-6.716 15-15 15h-385.396c-18.588-27.273-32.044-58.325-38.977-91.764 2.611-2.202 5.984-3.53 9.667-3.53h16.765v-48.529c0-8.284 6.716-15 15-15h16.765v-48.53c0-8.284 6.716-15 15-15h37.941v-48.529c0-8.284 6.716-15 15-15h27.353v-48.53c0-8.284 6.716-15 15-15h97.059c8.284 0 15 6.716 15 15v48.53h27.353c8.284 0 15 6.716 15 15v48.529h37.941c8.284 0 15 6.716 15 15v48.53h16.765c8.284 0 15 6.716 15 15v48.529h16.765c8.283 0 14.999 6.716 14.999 15z" fill="#e4ab45"/><path d="m173.823 50.588h34.98c-8.284 0-15 6.716-15 15v48.53h-27.353c-8.284 0-15 6.716-15 15v48.529h2.324c5.326 0 9.977 4.02 10.321 9.334.377 5.824-4.235 10.666-9.979 10.666h-45.606c-5.523 0-10 4.477-10 10v23.53c0 5.523 4.477 10 10 10h11.148c5.326 0 9.977 4.019 10.321 9.334.377 5.824-4.235 10.666-9.978 10.666h-43.256c-5.523 0-10 4.477-10 10v23.529c0 5.523 4.477 10 10 10h15.912c5.326 0 9.977 4.019 10.321 9.335.377 5.824-4.235 10.665-9.979 10.665h-35.154c-6.857 0-11.663 6.739-9.469 13.236 7.498 22.207 17.96 43.05 30.915 62.058h-34.981c-18.588-27.273-32.044-58.325-38.977-91.764 2.611-2.202 5.984-3.53 9.667-3.53h16.765v-48.529c0-8.284 6.716-15 15-15h16.765v-48.53c0-8.284 6.716-15 15-15h37.941v-48.529c0-8.284 6.716-15 15-15h27.353v-48.53c-.001-8.284 6.715-15 14.999-15zm212.177 254.118h-60c-5.523 0-10 4.477-10 10s4.477 10 10 10h60c5.523 0 10-4.477 10-10s-4.477-10-10-10zm-37.5-53.529c0-5.523-4.477-10-10-10h-60c-5.523 0-10 4.477-10 10s4.477 10 10 10h60c5.523 0 10-4.478 10-10z" fill="#df9d28"/><path d="m243.529 86.765v29.485c0 5.523-4.477 10-10 10h-22.353c-5.523 0-10-4.477-10-10v-29.485c0-8.284 6.716-15 15-15h12.353c8.285 0 15 6.715 15 15z" fill="#3f4a4a"/><path d="m286.471 40h-11.765c-5.523 0-10 4.477-10 10v64.118h-84.706v-64.118c0-5.523-4.477-10-10-10h-11.765c-5.523 0-10 4.477-10 10v340c0 5.523 4.477 10 10 10h11.765c5.523 0 10-4.477 10-10v-42.941h84.706v42.941c0 5.523 4.477 10 10 10h11.765c5.523 0 10-4.477 10-10v-340c0-5.523-4.478-10-10-10zm-106.471 158.823v-21.177h84.706v21.177zm84.706 21.177v21.177h-84.706v-21.177zm-84.706 42.353h84.706v21.176h-84.706zm84.706-127.059v21.177h-84.706v-21.177zm-84.706 190.588v-21.177h84.706v21.177z" fill="#b9801b"/><path d="m299.943 392.233c.77 18.554-6.242 35.474-18.039 47.767 11.208 11.679 18.096 27.535 18.096 45v.254c-.052 13.687-26.745 26.176-27.886 26.247-5.329.331-10.702.499-16.114.499-20.467 0-40.372-2.402-59.451-6.939-3.031-.721-3.561-3.4-6.549-4.228-59.41-16.453-107.177-51.182-140.833-101-1.486-2.2-8.385-5.125-9.804-7.374-6.684-10.589-12.613-21.702-17.712-33.264 9.75-5.839 21.157-9.195 33.349-9.195 26.195 0 48.771 15.496 59.062 37.821 9.199-4.988 19.738-7.821 30.938-7.821 9.137 0 17.833 1.885 25.721 5.288 4.776-31.875 32.696-56.181 66.109-55.262 33.915.931 61.706 28.309 63.113 62.207z" fill="#356845"/><path d="m505 230c1.928 0 3.835.084 5.721.249.845 8.469 1.279 17.059 1.279 25.751 0 135.973-106.009 247.186-239.887 255.501-1.379-5.27-2.113-10.799-2.113-16.501 0-12.331 3.434-23.859 9.397-33.682-11.973-11.79-19.397-28.187-19.397-46.318 0-35.898 29.102-65 65-65 9.244 0 18.037 1.93 25.998 5.408-.656-3.704-.998-7.516-.998-11.408 0-35.898 29.102-65 65-65 9.193 0 17.941 1.909 25.868 5.352 5.081-30.833 31.86-54.352 64.132-54.352z" fill="#489160"/><path d="m335.666 499.361c-9.748 3.189-19.754 5.809-29.979 7.82-7.48-2.469-15.174-4.518-23.043-6.104-31.218-6.291-60.845-4.412-86.094 3.984-65.953-15.684-122.017-56.886-157.185-112.597 45.136 7.886 88.041 34.468 121.256 75.019 8.46 10.329 23.82 11.83 34.061 3.264 7.621-6.374 16.157-11.501 25.502-15.095 41.61-16.002 87.15 3.032 115.482 43.709z" fill="#84b017"/><path d="m364.249 389.29c3.084 2.301 1.432 7.2-2.416 7.196-49.592-.052-105.23 22.076-153.897 65.883-7.142 6.429-13.926 13.138-20.341 20.081-11.328 12.26-28.778 7.567-35.493-4.096-1.323-2.297-9.361-20.232-12.069-24.992-5.014-8.812-10.694-17.369-17.039-25.567-29.545-38.172-67.791-61.179-105.456-67.344-3.879-.635-4.67-5.832-1.14-7.56 28.415-13.916 59.505-17.426 87.448-7.348 34.586 12.474 56.762 43.028 63.138 80.422 20.123-32.371 50.585-55.777 87.667-63.379 38.704-7.936 77.553 2.794 109.598 26.704z" fill="#b9e746"/><path d="m168.732 449.851c-3.878 10.342-15.407 15.583-25.749 11.704-10.342-3.878-15.583-15.407-11.704-25.749s15.407-15.583 25.749-11.704c10.342 3.878 15.582 15.407 11.704 25.749z" fill="#e20a62"/><path d="m196.822 460.385c-3.878 10.342-15.407 15.583-25.749 11.704-10.342-3.878-15.583-15.407-11.704-25.749 3.878-10.342 15.407-15.582 25.749-11.704s15.582 15.406 11.704 25.749z" fill="#ff5e93"/><path d="m193.311 427.028c-3.878 10.342-15.407 15.583-25.749 11.704-10.342-3.878-15.583-15.407-11.704-25.749s15.407-15.583 25.749-11.704c10.342 3.878 15.582 15.406 11.704 25.749z" fill="#ffa2c1"/></g></svg>