<?xml version="1.0" encoding="iso-8859-1"?>
<!-- Generator: Adobe Illustrator 19.0.0, SVG Export Plug-In . SVG Version: 6.00 Build 0)  -->
<svg version="1.1" id="Capa_1" xmlns="http://www.w3.org/2000/svg" xmlns:xlink="http://www.w3.org/1999/xlink" x="0px" y="0px"
	 viewBox="0 0 512.002 512.002" style="enable-background:new 0 0 512.002 512.002;" xml:space="preserve">
<path style="fill:#3C435A;" d="M316.001,216c-23.447,0-55.038,0-80,0c-33.14,0-60,26.86-60,60v33.21l200-8.21v-25
	C376.001,242.86,349.141,216,316.001,216z"/>
<path style="fill:#FFD87D;" d="M424.341,280.09c-13.099,0.526-289.382,11.625-304.44,12.23c-28.911,1.542-53.618,19.604-64.34,45.53
	v56.3c10.775,26.056,35.563,43.995,64.34,45.53l298.44,12.23c42.21,2.22,83.66-31.4,83.66-73.68v-24.46
	C502.001,311.49,466.551,277.87,424.341,280.09z"/>
<g>
	<circle style="fill:#7FD6F5;" cx="386" cy="365.999" r="30"/>
	<circle style="fill:#7FD6F5;" cx="286" cy="365.999" r="30"/>
</g>
<path style="fill:#D6EDFF;" d="M316.001,36c-33.14,0-60,26.86-60,60c0,10.726,0,103.798,0,120h40c0-10.187,0-103.847,0-120
	c0-11.05,8.95-20,20-20h40V36C356.001,36,316.001,36,316.001,36z"/>
<g>
	<circle style="fill:#7FD6F5;" cx="186" cy="365.999" r="30"/>
	<path style="fill:#7FD6F5;" d="M136.001,176c11.05,0,20,8.95,20,20s-8.95,20-20,20s-20-8.95-20-20S124.951,176,136.001,176z"/>
</g>
<g>
	<polygon style="fill:#D6EDFF;" points="110.001,356 110.001,376 50.001,396 50.001,336 	"/>
	<polygon style="fill:#D6EDFF;" points="80.001,256 50.001,256 62.521,324.87 104.651,294.73 	"/>
	<polygon style="fill:#D6EDFF;" points="62.521,407.13 50.001,476 80.001,476 104.651,437.27 	"/>
</g>
<path d="M462.001,346c5.52,0,10-4.48,10-10s-4.48-10-10-10s-10,4.48-10,10S456.481,346,462.001,346z"/>
<path d="M416.001,226c-5.52,0-10,4.48-10,10s4.48,10,10,10s10-4.48,10-10S421.521,226,416.001,226z"/>
<path d="M366.001,176c0,5.52,4.48,10,10,10s10-4.48,10-10s-4.48-10-10-10S366.001,170.48,366.001,176z"/>
<path d="M286.001,406c22.056,0,40-17.944,40-40s-17.944-40-40-40s-40,17.944-40,40S263.945,406,286.001,406z M286.001,346
	c11.028,0,20,8.972,20,20s-8.972,20-20,20s-20-8.972-20-20S274.973,346,286.001,346z"/>
<path d="M386.001,406c22.056,0,40-17.944,40-40s-17.944-40-40-40s-40,17.944-40,40S363.945,406,386.001,406z M386.001,346
	c11.028,0,20,8.972,20,20s-8.972,20-20,20s-20-8.972-20-20S374.973,346,386.001,346z"/>
<path d="M146.001,366c0,22.056,17.944,40,40,40s40-17.944,40-40s-17.944-40-40-40S146.001,343.944,146.001,366z M206.001,366
	c0,11.028-8.972,20-20,20s-20-8.972-20-20s8.972-20,20-20S206.001,354.972,206.001,366z"/>
<path d="M507.547,117.679c-4.595-3.061-10.804-1.819-13.867,2.775c-2.607,3.912-7.534,6.248-13.179,6.248
	s-10.571-2.336-13.179-6.248c-6.325-9.49-17.473-15.156-29.821-15.156s-23.496,5.666-29.821,15.156
	c-2.646,3.971-6.903,6.248-11.679,6.248s-9.032-2.277-11.679-6.248c-6.325-9.49-16.912-15.156-28.321-15.156
	s-21.996,5.666-28.321,15.156c-2.646,3.971-6.903,6.248-11.679,6.248c-3.875,0-7.391-1.52-10-4.207V96c0-5.514,4.486-10,10-10h40
	c5.522,0,10-4.478,10-10V36c0-5.522-4.478-10-10-10h-40c-38.599,0-70,31.401-70,70v26.495c-2.609,2.687-6.125,4.207-10,4.207
	c-4.775,0-9.032-2.277-11.679-6.248c-6.325-9.49-16.912-15.156-28.321-15.156s-21.996,5.666-28.321,15.156
	c-2.646,3.971-6.903,6.248-11.679,6.248s-9.032-2.277-11.679-6.248c-6.325-9.49-16.912-15.156-28.321-15.156
	s-21.996,5.666-28.321,15.156c-2.607,3.912-7.534,6.248-13.179,6.248s-10.571-2.336-13.179-6.248
	c-6.325-9.49-17.473-15.156-29.821-15.156S8.005,110.964,1.68,120.454c-3.063,4.596-1.82,10.805,2.775,13.867
	c4.597,3.063,10.804,1.821,13.867-2.775c2.607-3.912,7.534-6.248,13.179-6.248s10.571,2.336,13.179,6.248
	c6.325,9.49,17.473,15.156,29.821,15.156s23.496-5.666,29.821-15.156c2.646-3.971,6.903-6.248,11.679-6.248
	s9.032,2.277,11.679,6.248c6.325,9.49,16.912,15.156,28.321,15.156s21.996-5.666,28.321-15.156
	c2.646-3.971,6.903-6.248,11.679-6.248s9.032,2.277,11.679,6.248c6.325,9.49,16.912,15.156,28.321,15.156
	c3.441,0,6.803-0.524,10-1.504v60.802h-10c-38.598,0-70,31.402-70,70v4.463l-46.5,1.865c-0.044,0.002-0.087,0.004-0.131,0.006
	c-3.371,0.18-6.723,0.566-10.029,1.141l-20.904-32.844c-1.836-2.885-5.018-4.631-8.437-4.631H50c-2.965,0-5.777,1.315-7.678,3.593
	c-1.899,2.276-2.691,5.278-2.161,8.195l11.82,65.021c-0.635,1.054-1.238,2.128-1.826,3.209c-2.126-0.033-4.236,0.597-6.005,1.872
	c-2.606,1.879-4.15,4.896-4.15,8.11v20H20v-40c0-5.522-4.478-10-10-10s-10,4.478-10,10v100c0,5.522,4.478,10,10,10s10-4.478,10-10
	v-40h20v20c0,3.214,1.544,6.231,4.15,8.11c1.726,1.244,3.776,1.89,5.851,1.89c0.053,0,0.107-0.006,0.161-0.006
	c0.586,1.077,1.187,2.147,1.819,3.198l-11.82,65.021c-0.53,2.917,0.262,5.919,2.161,8.195c1.9,2.277,4.713,3.593,7.678,3.593h30
	c3.419,0,6.601-1.746,8.437-4.631l20.904-32.844c3.306,0.575,6.658,0.961,10.029,1.141c0.041,0.002,0.081,0.004,0.122,0.005
	l298.384,12.227c47.795,2.484,94.125-35.482,94.125-83.669v-24.461c0-47.996-40.147-86.185-88.121-83.669l-38.029,1.528
	c-2.266-36.568-32.721-65.629-69.85-65.629h-10v-60.802c3.197,0.98,6.559,1.504,10,1.504c11.409,0,21.996-5.666,28.321-15.156
	c2.646-3.971,6.903-6.248,11.679-6.248s9.032,2.277,11.679,6.248c6.325,9.49,16.912,15.156,28.321,15.156
	s21.996-5.666,28.321-15.156c2.607-3.912,7.534-6.248,13.179-6.248s10.571,2.336,13.179,6.248
	c6.325,9.49,17.473,15.156,29.821,15.156s23.496-5.666,29.821-15.156C513.385,126.95,512.143,120.741,507.547,117.679z
	 M266.001,129.505c2.609-2.687,6.125-4.207,10-4.207s7.391,1.52,10,4.207V206h-20V129.505z M316.001,46h30v20h-30
	c-16.542,0-30,13.458-30,30v10.802c-3.197-0.98-6.559-1.504-10-1.504s-6.803,0.524-10,1.504V96C266.001,68.43,288.431,46,316.001,46
	z M74.512,266l14.993,23.557c-7.568,3.394-14.583,7.885-20.817,13.331L61.982,266H74.512z M60.001,382.129v-32.258l40,13.336v5.586
	L60.001,382.129z M74.512,466h-12.53l6.706-36.888c6.234,5.447,13.249,9.937,20.817,13.331L74.512,466z M424.742,290.082
	c0.041-0.002,0.082-0.004,0.124-0.006c36.466-1.927,67.135,27.044,67.135,63.693v24.461c0,15.931-7.034,31.378-19.808,43.497
	c-0.063,0.06-0.13,0.114-0.192,0.173v-45.901c0-5.522-4.478-10-10-10s-10,4.478-10,10v59.308
	c-10.497,4.815-21.978,7.197-33.135,6.616c-0.039-0.002-0.077-0.004-0.116-0.005l-298.377-12.229
	c-20.527-1.108-39.353-11.929-50.577-29.748l43.368-14.456c4.083-1.361,6.837-5.183,6.837-9.486v-20
	c0-4.304-2.754-8.125-6.837-9.486l-43.367-14.458c0.338-0.537,0.668-1.079,1.022-1.605c10.987-16.34,29.047-27.029,49.551-28.141
	C123.953,302.166,350.69,293.08,424.742,290.082z M365.86,272.432l-179.859,7.228V276c0-27.57,22.43-50,50-50
	c23.456,0,55.045,0,80,0C342.37,226,364.022,246.522,365.86,272.432z"/>
<path d="M166.001,196c0-16.542-13.458-30-30-30s-30,13.458-30,30s13.458,30,30,30S166.001,212.542,166.001,196z M126.001,196
	c0-5.514,4.486-10,10-10s10,4.486,10,10s-4.486,10-10,10S126.001,201.514,126.001,196z"/>
<g>
</g>
<g>
</g>
<g>
</g>
<g>
</g>
<g>
</g>
<g>
</g>
<g>
</g>
<g>
</g>
<g>
</g>
<g>
</g>
<g>
</g>
<g>
</g>
<g>
</g>
<g>
</g>
<g>
</g>
</svg>
