<?xml version="1.0" encoding="iso-8859-1"?>
<!-- Generator: Adobe Illustrator 19.0.0, SVG Export Plug-In . SVG Version: 6.00 Build 0)  -->
<svg version="1.1" id="Capa_1" xmlns="http://www.w3.org/2000/svg" xmlns:xlink="http://www.w3.org/1999/xlink" x="0px" y="0px"
	 viewBox="0 0 512 512" style="enable-background:new 0 0 512 512;" xml:space="preserve">
<g>
	<path style="fill:#5AAAE7;" d="M160.806,50.882c-4.183,0-7.574-3.39-7.574-7.574V7.574c0-4.184,3.391-7.574,7.574-7.574
		s7.574,3.39,7.574,7.574v35.734C168.38,47.491,164.989,50.882,160.806,50.882z"/>
	<path style="fill:#5AAAE7;" d="M204.274,50.882c-4.183,0-7.574-3.39-7.574-7.574V7.574C196.7,3.39,200.091,0,204.274,0
		s7.574,3.39,7.574,7.574v35.734C211.848,47.491,208.456,50.882,204.274,50.882z"/>
	<path style="fill:#5AAAE7;" d="M247.741,50.882c-4.183,0-7.574-3.39-7.574-7.574V7.574c0-4.184,3.391-7.574,7.574-7.574
		c4.184,0,7.574,3.39,7.574,7.574v35.734C255.315,47.491,251.925,50.882,247.741,50.882z"/>
	<path style="fill:#5AAAE7;" d="M291.21,50.882c-4.184,0-7.574-3.39-7.574-7.574V7.574c0-4.184,3.39-7.574,7.574-7.574
		s7.574,3.39,7.574,7.574v35.734C298.784,47.491,295.393,50.882,291.21,50.882z"/>
	<path style="fill:#5AAAE7;" d="M334.677,50.882c-4.184,0-7.574-3.39-7.574-7.574V7.574c0-4.184,3.39-7.574,7.574-7.574
		c4.184,0,7.574,3.39,7.574,7.574v35.734C342.251,47.491,338.861,50.882,334.677,50.882z"/>
	<path style="fill:#5AAAE7;" d="M160.806,512c-4.183,0-7.574-3.39-7.574-7.574v-35.734c0-4.184,3.391-7.574,7.574-7.574
		s7.574,3.39,7.574,7.574v35.734C168.38,508.61,164.989,512,160.806,512z"/>
	<path style="fill:#5AAAE7;" d="M204.274,512c-4.183,0-7.574-3.39-7.574-7.574v-35.734c0-4.184,3.391-7.574,7.574-7.574
		s7.574,3.39,7.574,7.574v35.734C211.848,508.61,208.456,512,204.274,512z"/>
	<path style="fill:#5AAAE7;" d="M247.741,512c-4.183,0-7.574-3.39-7.574-7.574v-35.734c0-4.184,3.391-7.574,7.574-7.574
		c4.184,0,7.574,3.39,7.574,7.574v35.734C255.315,508.61,251.925,512,247.741,512z"/>
	<path style="fill:#5AAAE7;" d="M291.21,512c-4.184,0-7.574-3.39-7.574-7.574v-35.734c0-4.184,3.39-7.574,7.574-7.574
		s7.574,3.39,7.574,7.574v35.734C298.784,508.61,295.393,512,291.21,512z"/>
	<path style="fill:#5AAAE7;" d="M334.677,512c-4.184,0-7.574-3.39-7.574-7.574v-35.734c0-4.184,3.39-7.574,7.574-7.574
		c4.184,0,7.574,3.39,7.574,7.574v35.734C342.251,508.61,338.861,512,334.677,512z"/>
	<path style="fill:#5AAAE7;" d="M119.914,0c-4.183,0-7.574,3.39-7.574,7.574v35.734c0,4.184,3.391,7.574,7.574,7.574
		s7.574-3.39,7.574-7.574V7.574C127.488,3.39,124.097,0,119.914,0z"/>
	<path style="fill:#5AAAE7;" d="M380.72,0c-4.184,0-7.574,3.39-7.574,7.574v35.734c0,4.184,3.39,7.574,7.574,7.574
		s7.574-3.39,7.574-7.574V7.574C388.294,3.39,384.904,0,380.72,0z"/>
	<path style="fill:#5AAAE7;" d="M119.914,461.118c-4.183,0-7.574,3.39-7.574,7.574v35.734c0,4.184,3.391,7.574,7.574,7.574
		s7.574-3.39,7.574-7.574v-35.734C127.488,464.509,124.097,461.118,119.914,461.118z"/>
	<path style="fill:#5AAAE7;" d="M380.72,461.118c-4.184,0-7.574,3.39-7.574,7.574v35.734c0,4.184,3.39,7.574,7.574,7.574
		s7.574-3.39,7.574-7.574v-35.734C388.294,464.509,384.904,461.118,380.72,461.118z"/>
	<path style="fill:#5AAAE7;" d="M388.295,43.303v425.394c0,4.181-3.393,7.574-7.574,7.574H119.914c-4.181,0-7.574-3.393-7.574-7.574
		V43.303c0-4.181,3.393-7.574,7.574-7.574h260.807C384.902,35.729,388.295,39.122,388.295,43.303z"/>
</g>
<path style="fill:#78B9EB;" d="M388.295,43.303v425.394c0,4.181-3.393,7.574-7.574,7.574H153.168V35.729h227.552
	C384.902,35.729,388.295,39.122,388.295,43.303z"/>
<rect x="112.337" y="74.578" style="fill:#FFE477;" width="275.955" height="357.087"/>
<rect x="112.337" y="74.578" style="fill:#FFD422;" width="40.829" height="357.087"/>
<rect x="112.337" y="196.923" style="fill:#FFA733;" width="275.955" height="112.398"/>
<rect x="112.337" y="196.923" style="fill:#EE8700;" width="40.829" height="112.398"/>
<g>
	<path style="fill:#FF7956;" d="M451.623,370.7c-1.404,2.262-4.07,3.726-7.17,3.181l-12.027-2.131
		c-15.542-2.747-31.326,3.393-40.92,15.936l-7.423,9.695c-3.807,4.969-11.704,2.888-12.573-3.302l-1.697-12.098
		c-2.181-15.633-12.906-28.741-27.791-33.992l-11.523-4.06c-5.887-2.08-6.362-10.24-0.737-12.977l10.987-5.352
		c14.189-6.907,23.348-21.157,23.732-36.941l0.313-12.209c0.151-6.251,7.766-9.21,12.108-4.716l8.483,8.796
		c2.464,2.555,5.201,4.756,8.15,6.574c10.119,6.281,22.591,8.079,34.315,4.595l11.704-3.494c5.999-1.777,11.169,4.544,8.23,10.068
		l-5.746,10.775c-7.412,13.936-6.453,30.841,2.504,43.848l6.938,10.058C453.239,365.509,453.037,368.489,451.623,370.7z"/>
	<path style="fill:#FF7956;" d="M180.96,161.83l-10.937,5.443c-14.128,7.039-23.156,21.359-23.419,37.143l-0.192,12.219
		c-0.101,6.251-7.695,9.281-12.068,4.817l-8.564-8.725c-4.989-5.07-11.058-8.705-17.602-10.745
		c-7.978-2.474-16.663-2.585-24.954-0.04l-11.684,3.585c-5.968,1.828-11.199-4.443-8.311-9.988l5.645-10.836
		c7.301-13.997,6.19-30.892-2.878-43.818l-7.029-9.998c-3.585-5.12,0.767-12.027,6.938-10.987l12.048,2.02
		c15.562,2.616,31.296-3.666,40.778-16.289l7.342-9.765c3.757-4.989,11.674-2.989,12.593,3.201l1.798,12.078
		c0.798,5.332,2.585,10.371,5.201,14.885c5.009,8.705,13.058,15.491,22.894,18.864l11.553,3.969
		C186.019,150.894,186.565,159.043,180.96,161.83z"/>
</g>
<g>
	<path style="fill:#FF9478;" d="M180.96,161.83l-10.937,5.443c-14.128,7.039-23.156,21.359-23.419,37.143l-0.192,12.219
		c-0.101,6.251-7.695,9.281-12.068,4.817l-8.564-8.725c-4.989-5.07-11.058-8.705-17.602-10.745
		c-2.474-6.423-3.837-13.411-3.837-20.712c0-26.145,17.44-48.231,41.324-55.239c5.009,8.705,13.058,15.491,22.894,18.864
		l11.553,3.969C186.019,150.894,186.565,159.043,180.96,161.83z"/>
	<path style="fill:#FF9478;" d="M451.623,370.7c-2.282,0.283-4.605,0.424-6.958,0.424c-31.79,0-57.562-25.772-57.562-57.562
		c0-9.543,2.323-18.541,6.433-26.458c10.119,6.281,22.591,8.079,34.315,4.595l11.704-3.494c5.999-1.777,11.169,4.544,8.23,10.068
		l-5.746,10.775c-7.412,13.936-6.453,30.841,2.504,43.848l6.938,10.058C453.239,365.509,453.037,368.489,451.623,370.7z"/>
</g>
<g>
	<path style="fill:#FF5023;" d="M453.215,363.458l-46.691-30.846l42.699-36.161c3.192-2.703,3.589-7.482,0.886-10.674
		c-2.703-3.192-7.482-3.589-10.674-0.886l-42.159,35.703l-18.598-47.816c-1.517-3.897-5.905-5.826-9.805-4.313
		c-3.898,1.517-5.829,5.907-4.313,9.805l18.471,47.492l-53.023,3.809c-4.173,0.3-7.311,3.925-7.011,8.097
		c0.286,3.988,3.61,7.032,7.547,7.032c0.183,0,0.366-0.006,0.55-0.02l52.596-3.779l-13.047,55.418
		c-0.958,4.072,1.565,8.15,5.637,9.109c0.584,0.137,1.167,0.203,1.743,0.203c3.434,0,6.544-2.352,7.366-5.84l12.833-54.509
		l46.647,30.817c1.285,0.849,2.735,1.255,4.168,1.255c2.459,0,4.87-1.196,6.327-3.4
		C457.666,370.463,456.705,365.764,453.215,363.458z"/>
	<path style="fill:#FF5023;" d="M181.934,146.089l-55.055,4.583l12.627-49.728c1.029-4.055-1.423-8.176-5.477-9.205
		c-4.055-1.028-8.176,1.423-9.205,5.477l-12.541,49.39l-45.379-27.691c-3.572-2.177-8.231-1.049-10.411,2.521
		c-2.178,3.57-1.05,8.23,2.521,10.411l45.013,27.467l-42.804,37.539c-3.145,2.758-3.458,7.544-0.7,10.688
		c1.498,1.707,3.592,2.58,5.698,2.58c1.772,0,3.554-0.619,4.991-1.879l42.102-36.924l20.08,52.176
		c1.158,3.009,4.027,4.856,7.07,4.856c0.905,0,1.825-0.163,2.719-0.507c3.904-1.503,5.85-5.885,4.348-9.789l-20.099-52.226
		l55.761-4.641c4.169-0.347,7.267-4.008,6.92-8.177C189.764,148.842,186.101,145.746,181.934,146.089z"/>
</g>
<g>
</g>
<g>
</g>
<g>
</g>
<g>
</g>
<g>
</g>
<g>
</g>
<g>
</g>
<g>
</g>
<g>
</g>
<g>
</g>
<g>
</g>
<g>
</g>
<g>
</g>
<g>
</g>
<g>
</g>
</svg>
