<svg height="512" viewBox="0 0 512 512" width="512" xmlns="http://www.w3.org/2000/svg"><g id="Filled_outline" data-name="Filled outline"><path d="m456 400-32 24a80 80 0 0 0 -32 64h96v-88z" fill="#ffb531"/><path d="m456 352v48h32v-56a24 24 0 0 0 -24-24h-72v32z" fill="#f7a116"/><path d="m360 344h32v56h-32z" fill="#f7a116"/><path d="m360 400-32 24a80 80 0 0 0 -32 64h96v-88z" fill="#ffb531"/><path d="m112 64-17.271-14.393a110.481 110.481 0 0 0 -70.729-25.607l80 72z" fill="#ffb531"/><path d="m488 192a172.971 172.971 0 0 1 -41.65 112.59l-35.19 41.06a63.992 63.992 0 0 1 -48.6 22.35h-134.68a48 48 0 0 1 -33.94-14.06l-43.88-43.88-.15-.15a47.978 47.978 0 0 1 -13.91-33.79v-28.12h-78.06a33.941 33.941 0 0 1 -24-57.94l62.06-62.06 16-64h22.1a37.239 37.239 0 0 1 26.33 63.57l-64.43 64.43z" fill="#e0e0de"/><path d="m488 192a172.971 172.971 0 0 1 -41.65 112.59l-35.19 41.06a63.992 63.992 0 0 1 -48.6 22.35h-134.68a48 48 0 0 1 -33.94-14.06l-43.88-43.88-.15-.15c65.78-23.83 152.01-62.59 213.97-117.91z" fill="#d6d6d4"/><path d="m104 96-80-32a40.787 40.787 0 0 0 20.98 35.655l51.02 28.345z" fill="#ffb531"/><path d="m352 448h16v40h-16z" fill="#e8770c"/><path d="m320 456h16v32h-16z" fill="#e8770c"/><path d="m448 448h16v40h-16z" fill="#e8770c"/><path d="m416 456h16v32h-16z" fill="#e8770c"/><path d="m128 88h16v16h-16z" fill="#4d5e78"/><path d="m488 151.92a22.158 22.158 0 0 1 -2.33 9.9 21.2 21.2 0 0 1 -1.88 3.14 22.23 22.23 0 0 1 -11.04 8.12l-3.13 1.04-38.83 12.95-14.79 4.93h-223.61a40.39 40.39 0 0 1 -29.89-67.55l51.62-56.78a40.381 40.381 0 0 1 43.01-11.03l215.81 74.18a22.322 22.322 0 0 1 15.06 21.1z" fill="#4d5e78"/><path d="m160 224h208a24 24 0 0 1 24 24v96a24 24 0 0 1 -24 24h-140.118a48 48 0 0 1 -33.941-14.059l-43.882-43.882a48 48 0 0 1 -14.059-33.941v-28.118a24 24 0 0 1 24-24z" fill="#92563a"/><path d="m256 296h80v40h-80z" fill="#d0d24b"/><path d="m224 304h32v32h-32z" fill="#f59898"/><path d="m256 389.578h16v28.844h-16z" fill="#348fd9" transform="matrix(.832 -.555 .555 .832 -179.76 214.293)"/><circle cx="128" cy="376" fill="#7eb457" r="16"/><path d="m37.656 309.656-11.312-11.312 8-8a19.331 19.331 0 0 1 27.312 0 3.325 3.325 0 0 0 4.688 0 19.331 19.331 0 0 1 27.312 0 3.325 3.325 0 0 0 4.688 0l8-8 11.312 11.312-8 8a19.331 19.331 0 0 1 -27.312 0 3.325 3.325 0 0 0 -4.688 0 19.331 19.331 0 0 1 -27.312 0 3.325 3.325 0 0 0 -4.688 0z" fill="#348fd9"/><path d="m168 256h56v32h-56z" fill="#f35244"/><path d="m168 288 24 24 32 8v-32z" fill="#ffb531"/><path d="m224 256h32v48h-32z" fill="#348fd9"/><path d="m304 264h56v32h-56z" fill="#48add9"/><path d="m256 256v40h48v-32h-16l-8-8z" fill="#7eb457"/><path d="m336 336v-40h32l-8 40z" fill="#f35244"/><path d="m64 360h16v24h-16z" fill="#348fd9"/><path d="m128 424h16v16h-16z" fill="#348fd9"/><g fill="#f35244"><path d="m48 328h32v16h-32z"/><path d="m156.686 456.001h22.627v15.998h-22.627z" transform="matrix(.707 -.707 .707 .707 -278.891 254.696)"/><path d="m88 408h16v16h-16z"/><path d="m112 312h16v16h-16z"/><path d="m296 392h16v16h-16z"/></g><path d="m192 312-24 40 24 16 32-48z" fill="#48add9"/><path d="m224 432h-56v-32h32l8 8 16 8z" fill="#348fd9"/><path d="m485.67 161.82a21.2 21.2 0 0 1 -1.88 3.14 22.23 22.23 0 0 1 -11.04 8.12l-3.13 1.04-175.66-46.39 4.08-15.46z" fill="#313b4c"/><path d="m430.79 187.07-14.79 4.93h-23.97l-106.36-32.35 4.66-15.3z" fill="#313b4c"/><path d="m16 214.078a41.877 41.877 0 0 0 41.922 41.922h70.078v20.078a55.709 55.709 0 0 0 16.422 39.656l22.5 22.5-5.786 9.644a8 8 0 0 0 2.421 10.773l24 16a8 8 0 0 0 11.094-2.218l2.274-3.411a55.223 55.223 0 0 0 26.997 6.978h124.078v20l-28.8 21.6a88.423 88.423 0 0 0 -35.2 70.4 8 8 0 0 0 8 8h192a8 8 0 0 0 8-8v-144a32.036 32.036 0 0 0 -32-32h-13.52l1.915-2.234a181.09 181.09 0 0 0 43.605-117.766 8 8 0 0 0 -8-8h-22.7l9.973-3.324a30.311 30.311 0 0 0 .27-57.418l-215.809-74.184a48.383 48.383 0 0 0 -51.534 13.207l-29.444 32.39a44.974 44.974 0 0 0 -44.678-38.671h-19.178l-15.048-12.539a118.707 118.707 0 0 0 -75.852-27.461 8 8 0 0 0 -5.352 13.945l46.591 41.932-38.266-15.307a8 8 0 0 0 -10.973 7.43 48.819 48.819 0 0 0 25.094 42.648l41.751 23.195-54.579 54.579a42.2 42.2 0 0 0 -12.266 29.656zm248 49.922h12.688l5.656 5.656a8 8 0 0 0 5.656 2.344h8v16h-32zm48 8h40v16h-40zm16 56h-64v-24h64zm-80 0h-16v-16h16zm96-24h14.242l-4.8 24h-9.442zm-96-8h-16v-32h16zm-32-16h-40v-16h40zm0 16v13.753l-19.913-4.978-8.775-8.775zm-26.219 60.906-11-7.332 17.028-28.374 15.237 3.81zm20.077-1.272 9.06-13.59a7.87 7.87 0 0 0 5.082 1.956h136a8 8 0 0 0 7.844-6.43l8-40a8 8 0 0 0 -7.844-9.57v-24a8 8 0 0 0 -8-8h-68.688l-5.656-5.656a8 8 0 0 0 -5.656-2.344h-112a8 8 0 0 0 -8 8v31.4a9.452 9.452 0 0 0 2.844 6.759l19.083 19.083-6.516 10.86-19.677-19.677a39.823 39.823 0 0 1 -11.734-28.347v-28.078a16.03 16.03 0 0 1 16-16h208a16 16 0 0 1 16 16v96a15.967 15.967 0 0 1 -9.788 14.714 51.274 51.274 0 0 1 -11.653 1.286h-134.637a39.446 39.446 0 0 1 -18.064-4.366zm238.142 40.366-28.8 21.6a87.484 87.484 0 0 0 -19.2 20.074v-72.31a68.722 68.722 0 0 0 7.745-5.364h40.255zm-80-20a29.865 29.865 0 0 0 9.938-1.641c.2-.04.388-.123.584-.179.114-.032.232-.033.345-.071 1.765-.406 3.43-1.006 5.133-1.539v19.43h-16zm-35.2 54.4 29.868-22.4h21.332v72h-16v-32h-16v32h-16v-24h-16v24h-15.547a72.413 72.413 0 0 1 28.347-49.6zm147.2 49.6h-16v-32h-16v32h-16v-24h-16v24h-15.547a72.413 72.413 0 0 1 28.347-49.6l29.868-22.4h21.332zm0-136v48h-16v-40a8 8 0 0 0 -8-8h-32.891l13.715-16h27.176a16.016 16.016 0 0 1 16 16zm-259.961-270.953a32.345 32.345 0 0 1 34.492-8.84l215.813 74.184a14.306 14.306 0 0 1 9.656 13.531 14.145 14.145 0 0 1 -2.132 7.253l-179.848-46.917-4.04 15.484 162.4 42.365-40.458 13.486-125.536-39.23-4.774 15.274 77.964 24.363h-171.189a32.319 32.319 0 0 1 -27.208-49.867l.876-.875a44.436 44.436 0 0 0 5.747-7.148zm-75.86 82.087a48.129 48.129 0 0 0 12.363 28.866h-41.23zm-54.57-99.384 13.411 11.18-3.556 14.226-51.429-46.289a102.671 102.671 0 0 1 41.574 20.883zm-54.976 21.121 59.912 23.964-3.775 15.106-41.9-23.277a32.813 32.813 0 0 1 -14.237-15.793zm4.945 118.863s62.247-62.318 62.345-62.428c.127-.142 16.324-61.306 16.324-61.306h15.831a29.176 29.176 0 0 1 24.973 44.351s-4.6 5.5-5.638 6.923l-63.069 63.07a8 8 0 0 0 5.656 13.656h383.805a165.135 165.135 0 0 1 -39.567 99.359l-35.426 41.348a53 53 0 0 1 -4.92 4.7c.021-.473.108-.933.108-1.41v-95.997a32.036 32.036 0 0 0 -32-32h-208a31.726 31.726 0 0 0 -30.864 24h-71.214a25.942 25.942 0 0 1 -18.344-44.266z"/><path d="m128 88h16v16h-16z"/><path d="m48 328h32v16h-32z"/><path d="m256 389.578h16v28.844h-16z" transform="matrix(.832 -.555 .555 .832 -179.76 214.293)"/><path d="m156.686 456.001h22.627v15.998h-22.627z" transform="matrix(.707 -.707 .707 .707 -278.891 254.696)"/><path d="m152 376a24 24 0 1 0 -24 24 24.027 24.027 0 0 0 24-24zm-24 8a8 8 0 1 1 8-8 8.011 8.011 0 0 1 -8 8z"/><path d="m82.344 301.656a19.331 19.331 0 0 0 27.312 0l8-8-11.312-11.312-8 8a3.325 3.325 0 0 1 -4.688 0 19.331 19.331 0 0 0 -27.312 0 3.325 3.325 0 0 1 -4.688 0 19.331 19.331 0 0 0 -27.312 0l-8 8 11.312 11.312 8-8a3.325 3.325 0 0 1 4.688 0 19.331 19.331 0 0 0 27.312 0 3.325 3.325 0 0 1 4.688 0z"/><path d="m64 360h16v24h-16z"/><path d="m88 408h16v16h-16z"/><path d="m112 312h16v16h-16z"/><path d="m128 424h16v16h-16z"/><path d="m296 392h16v16h-16z"/><path d="m224 440a8 8 0 0 0 8-8v-16a8 8 0 0 0 -4.422-7.156l-14.84-7.418-7.082-7.082a8 8 0 0 0 -5.656-2.344h-32a8 8 0 0 0 -8 8v32a8 8 0 0 0 8 8zm-48-32h20.688l5.656 5.656a7.922 7.922 0 0 0 2.078 1.5l11.578 5.789v3.055h-40z"/></g></svg>